{
copyright = "Copyright (c) 2015, Brand New Type, New Delhi, INDIA";
customParameters = (
{
name = vendorID;
value = BNT;
},
{
name = glyphOrder;
value = (
    ".notdef",
    NULL,
    uni000D,
    space,
    uni0981,
    uni0982,
    uni0983,
    uni0985,
    uni0986,
    uni0987,
    uni0988,
    uni0989,
    uni098A,
    uni098B,
    uni098C,
    uni098F,
    uni0990,
    uni0993,
    uni0994,
    uni0995,
    uni0996,
    uni0997,
    uni0998,
    uni0999,
    uni099A,
    uni099B,
    uni099C,
    uni099D,
    uni099E,
    uni099F,
    uni09A0,
    uni09A1,
    uni09A2,
    uni09A3,
    uni09A4,
    uni09A5,
    uni09A6,
    uni09A7,
    uni09A8,
    uni09AA,
    uni09AB,
    uni09AC,
    uni09AD,
    uni09AE,
    uni09AF,
    uni09B0,
    uni09B2,
    uni09B6,
    uni09B7,
    uni09B8,
    uni09B9,
    g51,
    uni09BD,
    uni09BE,
    uni09BF,
    uni09C0,
    uni09C1,
    uni09C2,
    uni09C3,
    uni09C4,
    uni09C7,
    uni09C8,
    uni09CB,
    uni09CC,
    uni09CD,
    uni09D7,
    uni09DC,
    uni09DD,
    uni09DF,
    uni09E0,
    uni09E1,
    uni09E2,
    uni09E3,
    uni09E6,
    uni09E7,
    uni09E8,
    uni09E9,
    uni09EA,
    uni09EB,
    uni09EC,
    uni09ED,
    uni09EE,
    uni09EF,
    uni09F0,
    uni09F1,
    uni09F2,
    uni09F3,
    uni09F4,
    uni09F5,
    uni09F6,
    "uni099C_uni09BC_uni09F0_uni09CD",
    uni09F7,
    uni09F8,
    uni09FA,
    uni0964,
    uni0965,
    uni09F9,
    uni20B9,
    uni09FB,
    "uni09DC_uni09C1",
    "uni09DC_uni09C2",
    "uni09DD_uni09C1",
    "uni09DD_uni09C2",
    g103,
    "uni09F1_uni09F0_uni09CD_uni09C1",
    "uni09F1_uni09F0_uni09CD_uni09C2",
    "uni09BF.pres",
    "uni099C_uni09BC",
    g108,
    g109,
    g110,
    g111,
    g112,
    uni09CE,
    g114,
    g115,
    g116,
    g117,
    g118,
    g119,
    g120,
    "uni0995_uni09F0_uni09CD",
    g122,
    "uni0995_uni09AC_uni09CD",
    g124,
    g125,
    g126,
    g127,
    g128,
    g129,
    "uni0996_uni09F0_uni09CD",

glyphs = (
{
glyphname = .notdef;
layers = (
{
layerId = "4AE238AB-6A4C-459B-8E99-4D2856E6BBFA";
name = Regular;
paths = (
{
closed = 1;
nodes = (
"100 700 LINE",
"700 700 LINE",
"700 0 LINE",
"100 0 LINE"
);
},
{
closed = 1;
nodes = (
"650 50 LINE",
"650 650 LINE",
"150 650 LINE",
"150 50 LINE"
);
}
);
width = 800;
}
);
note = .notdef;
},
{
color = 3;
glyphname = uni0981;
lastChange = "2015-10-07 09:53:37 +0000";
layers = (
{
layerId = "4AE238AB-6A4C-459B-8E99-4D2856E6BBFA";
name = Regular;
paths = (
{
closed = 1;
nodes = (
"-73 646 OFFCURVE",
"-43 668 OFFCURVE",
"-24 700 CURVE SMOOTH",
"-7 729 OFFCURVE",
"-12 741 OFFCURVE",
"-20 744 CURVE SMOOTH",
"-32 749 OFFCURVE",
"-46 721 OFFCURVE",
"-52 713 CURVE SMOOTH",
"-69 690 OFFCURVE",
"-89 677 OFFCURVE",
"-119 677 CURVE SMOOTH",
"-148 677 OFFCURVE",
"-173 689 OFFCURVE",
"-199 724 CURVE SMOOTH",
"-208 736 OFFCURVE",
"-219 754 OFFCURVE",
"-230 748 CURVE SMOOTH",
"-239 743 OFFCURVE",
"-237 729 OFFCURVE",
"-225 709 CURVE SMOOTH",
"-202 671 OFFCURVE",
"-164 646 OFFCURVE",
"-117 646 CURVE SMOOTH"
);
},
{
closed = 1;
nodes = (
"-97 724 OFFCURVE",
"-75 737 OFFCURVE",
"-75 766 CURVE SMOOTH",
"-75 794 OFFCURVE",
"-96 815 OFFCURVE",
"-123 815 CURVE SMOOTH",
"-148 815 OFFCURVE",
"-167 797 OFFCURVE",
"-167 773 CURVE SMOOTH",
"-167 748 OFFCURVE",
"-148 724 OFFCURVE",
"-119 724 CURVE SMOOTH"
);
},
{
closed = 1;
nodes = (
"-135 745 OFFCURVE",
"-144 759 OFFCURVE",
"-144 771 CURVE SMOOTH",
"-144 783 OFFCURVE",
"-136 795 OFFCURVE",
"-121 795 CURVE SMOOTH",
"-105 795 OFFCURVE",
"-98 781 OFFCURVE",
"-98 769 CURVE SMOOTH",
"-98 755 OFFCURVE",
"-106 745 OFFCURVE",
"-119 745 CURVE SMOOTH"
);
}
);
width = 0;
}
);
note = uni0981;
unicode = 0981;
},
{
color = 3;
glyphname = uni0982;
lastChange = "2015-10-07 09:56:36 +0000";
layers = (
{
background = {
paths = (
{
closed = 1;
nodes = (
"40 455 OFFCURVE",
"85 500 OFFCURVE",
"141 500 CURVE SMOOTH",
"197 500 OFFCURVE",
"242 455 OFFCURVE",
"242 399 CURVE SMOOTH",
"242 343 OFFCURVE",
"197 298 OFFCURVE",
"141 298 CURVE SMOOTH",
"85 298 OFFCURVE",
"40 343 OFFCURVE",
"40 399 CURVE SMOOTH"
);
},
{
closed = 1;
nodes = (
"84 353 OFFCURVE",
"96 341 OFFCURVE",
"111 341 CURVE SMOOTH",
"150 341 OFFCURVE",
"199 384 OFFCURVE",
"199 419 CURVE SMOOTH",
"199 434 OFFCURVE",
"187 446 OFFCURVE",
"171 446 CURVE SMOOTH",
"132 446 OFFCURVE",
"84 402 OFFCURVE",
"84 369 CURVE SMOOTH"
);
},
{
closed = 1;
nodes = (
"56 263 LINE",
"133 218 OFFCURVE",
"200 128 OFFCURVE",
"243 11 CURVE",
"220 -1 LINE",
"189 83 OFFCURVE",
"119 155 OFFCURVE",
"24 199 CURVE"
);
}
);
};
layerId = "4AE238AB-6A4C-459B-8E99-4D2856E6BBFA";
name = Regular;
paths = (
{
closed = 1;
nodes = (
"220 360 OFFCURVE",
"267 393 OFFCURVE",
"267 454 CURVE SMOOTH",
"267 515 OFFCURVE",
"222 555 OFFCURVE",
"160 555 CURVE SMOOTH",
"93 555 OFFCURVE",
"62 505 OFFCURVE",
"62 463 CURVE SMOOTH",
"62 408 OFFCURVE",
"110 360 OFFCURVE",
"170 360 CURVE SMOOTH"
);
},
{
closed = 1;
nodes = (
"231 425 OFFCURVE",
"202 395 OFFCURVE",
"168 395 CURVE SMOOTH",
"139 395 OFFCURVE",
"100 416 OFFCURVE",
"100 458 CURVE SMOOTH",
"100 487 OFFCURVE",
"119 520 OFFCURVE",
"161 520 CURVE SMOOTH",
"200 520 OFFCURVE",
"231 497 OFFCURVE",
"231 459 CURVE SMOOTH"
);
},
{
closed = 1;
nodes = (
"324 55 OFFCURVE",
"301 135 OFFCURVE",
"257 204 CURVE SMOOTH",
"221 261 OFFCURVE",
"166 310 OFFCURVE",
"85 310 CURVE SMOOTH",
"52 310 OFFCURVE",
"52 270 OFFCURVE",
"84 270 CURVE SMOOTH",
"156 270 OFFCURVE",
"196 229 OFFCURVE",
"229 176 CURVE SMOOTH",
"271 109 OFFCURVE",
"297 34 OFFCURVE",
"330 0 CURVE SMOOTH",
"353 -23 OFFCURVE",
"378 -3 OFFCURVE",
"355 22 CURVE SMOOTH"
);
}
);
width = 344;
}
);
note = uni0982;
unicode = 0982;
},
{
color = 3;
glyphname = uni0983;
lastChange = "2015-10-07 09:57:09 +0000";
layers = (
{
background = {
paths = (
{
closed = 1;
nodes = (
"70 157 OFFCURVE",
"115 202 OFFCURVE",
"171 202 CURVE SMOOTH",
"227 202 OFFCURVE",
"272 157 OFFCURVE",
"272 101 CURVE SMOOTH",
"272 45 OFFCURVE",
"227 0 OFFCURVE",
"171 0 CURVE SMOOTH",
"115 0 OFFCURVE",
"70 45 OFFCURVE",
"70 101 CURVE SMOOTH"
);
},
{
closed = 1;
nodes = (
"114 56 OFFCURVE",
"126 44 OFFCURVE",
"141 44 CURVE SMOOTH",
"180 44 OFFCURVE",
"229 88 OFFCURVE",
"229 121 CURVE SMOOTH",
"229 137 OFFCURVE",
"212 149 OFFCURVE",
"191 149 CURVE SMOOTH",
"158 149 OFFCURVE",
"114 106 OFFCURVE",
"114 71 CURVE SMOOTH"
);
},
{
closed = 1;
nodes = (
"70 455 OFFCURVE",
"115 500 OFFCURVE",
"171 500 CURVE SMOOTH",
"227 500 OFFCURVE",
"272 455 OFFCURVE",
"272 399 CURVE SMOOTH",
"272 343 OFFCURVE",
"227 298 OFFCURVE",
"171 298 CURVE SMOOTH",
"115 298 OFFCURVE",
"70 343 OFFCURVE",
"70 399 CURVE SMOOTH"
);
},
{
closed = 1;
nodes = (
"114 353 OFFCURVE",
"126 341 OFFCURVE",
"141 341 CURVE SMOOTH",
"180 341 OFFCURVE",
"229 384 OFFCURVE",
"229 419 CURVE SMOOTH",
"229 434 OFFCURVE",
"212 446 OFFCURVE",
"191 446 CURVE SMOOTH",
"158 446 OFFCURVE",
"114 402 OFFCURVE",
"114 369 CURVE SMOOTH"
);
}
);
};
layerId = "4AE238AB-6A4C-459B-8E99-4D2856E6BBFA";
name = Regular;
paths = (
{
closed = 1;
nodes = (
"264 372 OFFCURVE",
"315 409 OFFCURVE",
"315 476 CURVE SMOOTH",
"315 543 OFFCURVE",
"266 587 OFFCURVE",
"198 587 CURVE SMOOTH",
"124 587 OFFCURVE",
"90 532 OFFCURVE",
"90 486 CURVE SMOOTH",
"90 425 OFFCURVE",
"143 372 OFFCURVE",
"209 372 CURVE SMOOTH"
);
},
{
closed = 1;
nodes = (
"276 444 OFFCURVE",
"244 411 OFFCURVE",
"206 411 CURVE SMOOTH",
"174 411 OFFCURVE",
"132 434 OFFCURVE",
"132 480 CURVE SMOOTH",
"132 512 OFFCURVE",
"152 548 OFFCURVE",
"199 548 CURVE SMOOTH",
"242 548 OFFCURVE",
"276 523 OFFCURVE",
"276 481 CURVE SMOOTH"
);
},
{
closed = 1;
nodes = (
"264 62 OFFCURVE",
"315 99 OFFCURVE",
"315 166 CURVE SMOOTH",
"315 233 OFFCURVE",
"266 277 OFFCURVE",
"198 277 CURVE SMOOTH",
"124 277 OFFCURVE",
"90 222 OFFCURVE",
"90 176 CURVE SMOOTH",
"90 115 OFFCURVE",
"143 62 OFFCURVE",
"209 62 CURVE SMOOTH"
);
},
{
closed = 1;
nodes = (
"276 134 OFFCURVE",
"244 101 OFFCURVE",
"206 101 CURVE SMOOTH",
"174 101 OFFCURVE",
"132 124 OFFCURVE",
"132 170 CURVE SMOOTH",
"132 202 OFFCURVE",
"152 238 OFFCURVE",
"199 238 CURVE SMOOTH",
"242 238 OFFCURVE",
"276 213 OFFCURVE",
"276 171 CURVE SMOOTH"
);
}
);
width = 407;
}
);
note = uni0983;
unicode = 0983;
},
{
color = 3;
glyphname = uni0985;
lastChange = "2015-10-07 09:57:48 +0000";
layers = (
{
background = {
paths = (
{
closed = 1;
nodes = (
"396 165 OFFCURVE",
"338 97 OFFCURVE",
"254 97 CURVE SMOOTH",
"152 97 OFFCURVE",
"73 200 OFFCURVE",
"7 402 CURVE",
"30 411 LINE",
"92 231 OFFCURVE",
"153 155 OFFCURVE",
"240 155 CURVE SMOOTH",
"310 155 OFFCURVE",
"362 204 OFFCURVE",
"362 273 CURVE SMOOTH",
"362 333 OFFCURVE",
"322 375 OFFCURVE",
"274 375 CURVE SMOOTH",
"266 375 OFFCURVE",
"258 374 OFFCURVE",
"250 372 CURVE",
"268 391 LINE",
"279 380 OFFCURVE",
"286 365 OFFCURVE",
"286 346 CURVE SMOOTH",
"286 307 OFFCURVE",
"256 280 OFFCURVE",
"220 280 CURVE SMOOTH",
"183 280 OFFCURVE",
"154 309 OFFCURVE",
"154 347 CURVE SMOOTH",
"154 389 OFFCURVE",
"191 418 OFFCURVE",
"242 418 CURVE SMOOTH",
"323 418 OFFCURVE",
"396 347 OFFCURVE",
"396 252 CURVE"
);
},
{
closed = 1;
nodes = (
"220 423 OFFCURVE",
"197 446 OFFCURVE",
"163 462 CURVE",
"209 462 LINE",
"231 447 OFFCURVE",
"245 432 OFFCURVE",
"261 410 CURVE",
"232 402 LINE"
);
},
{
closed = 1;
nodes = (
"-10 456 LINE",
"-10 491 LINE",
"586 491 LINE",
"586 456 LINE"
);
},
{
closed = 1;
nodes = (
"506 466 LINE",
"506 0 LINE",
"481 0 LINE",
"470 98 OFFCURVE",
"424 174 OFFCURVE",
"370 207 CURVE",
"381 259 LINE",
"413 229 OFFCURVE",
"454 173 OFFCURVE",
"475 110 CURVE",
"466 107 LINE",
"466 466 LINE"
);
}
);
};
layerId = "4AE238AB-6A4C-459B-8E99-4D2856E6BBFA";
name = Regular;
paths = (
{
closed = 1;
nodes = (
"436 107 OFFCURVE",
"498 192 OFFCURVE",
"498 284 CURVE SMOOTH",
"498 384 OFFCURVE",
"424 472 OFFCURVE",
"326 472 CURVE SMOOTH",
"266 472 OFFCURVE",
"223 440 OFFCURVE",
"223 392 CURVE SMOOTH",
"223 352 OFFCURVE",
"253 317 OFFCURVE",
"297 317 CURVE SMOOTH",
"339 317 OFFCURVE",
"367 349 OFFCURVE",
"367 387 CURVE SMOOTH",
"367 434 OFFCURVE",
"324 465 OFFCURVE",
"276 452 CURVE",
"276 428 LINE",
"311 444 OFFCURVE",
"337 422 OFFCURVE",
"337 393 CURVE SMOOTH",
"337 368 OFFCURVE",
"317 353 OFFCURVE",
"295 353 CURVE SMOOTH",
"273 353 OFFCURVE",
"256 369 OFFCURVE",
"256 392 CURVE SMOOTH",
"256 424 OFFCURVE",
"291 442 OFFCURVE",
"328 442 CURVE SMOOTH",
"391 442 OFFCURVE",
"462 391 OFFCURVE",
"462 296 CURVE SMOOTH",
"462 205 OFFCURVE",
"398 149 OFFCURVE",
"315 149 CURVE SMOOTH",
"170 149 OFFCURVE",
"113 319 OFFCURVE",
"73 440 CURVE SMOOTH",
"70 450 OFFCURVE",
"62 455 OFFCURVE",
"55 455 CURVE SMOOTH",
"46 455 OFFCURVE",
"40 444 OFFCURVE",
"43 433 CURVE SMOOTH",
"93 226 OFFCURVE",
"191 107 OFFCURVE",
"323 107 CURVE SMOOTH"
);
},
{
closed = 1;
nodes = (
"629 -12 OFFCURVE",
"635 4 OFFCURVE",
"635 19 CURVE SMOOTH",
"635 102 OFFCURVE",
"564 171 OFFCURVE",
"470 266 CURVE",
"472 205 LINE",
"527 158 OFFCURVE",
"593 97 OFFCURVE",
"593 56 CURVE SMOOTH",
"593 8 OFFCURVE",
"599 -12 OFFCURVE",
"613 -12 CURVE SMOOTH"
);
},
{
closed = 1;
nodes = (
"619 433 OFFCURVE",
"619 450 OFFCURVE",
"619 459 CURVE SMOOTH",
"619 539 OFFCURVE",
"588 587 OFFCURVE",
"504 587 CURVE SMOOTH",
"-11 587 LINE SMOOTH",
"-18 587 OFFCURVE",
"-26 582 OFFCURVE",
"-26 571 CURVE SMOOTH",
"-26 562 OFFCURVE",
"-20 554 OFFCURVE",
"-11 554 CURVE SMOOTH",
"521 554 LINE SMOOTH",
"572 554 OFFCURVE",
"598 520 OFFCURVE",
"598 450 CURVE SMOOTH",
"598 441 OFFCURVE",
"601 433 OFFCURVE",
"609 433 CURVE SMOOTH"
);
},
{
closed = 1;
nodes = (
"635 -12 OFFCURVE",
"629 23 OFFCURVE",
"629 71 CURVE SMOOTH",
"629 402 OFFCURVE",
"633 497 OFFCURVE",
"641 583 CURVE SMOOTH",
"642 597 OFFCURVE",
"640 609 OFFCURVE",
"628 609 CURVE SMOOTH",
"592 609 OFFCURVE",
"593 373 OFFCURVE",
"593 71 CURVE SMOOTH",
"593 23 OFFCURVE",
"593 -12 OFFCURVE",
"614 -12 CURVE SMOOTH"
);
},
{
closed = 1;
nodes = (
"740 554 LINE SMOOTH",
"749 554 OFFCURVE",
"758 558 OFFCURVE",
"758 571 CURVE SMOOTH",
"758 582 OFFCURVE",
"749 587 OFFCURVE",
"740 587 CURVE SMOOTH",
"728 587 OFFCURVE",
"703 587 OFFCURVE",
"682 587 CURVE SMOOTH",
"650 587 OFFCURVE",
"645 587 OFFCURVE",
"640 599 CURVE SMOOTH",
"637 606 OFFCURVE",
"627 602 OFFCURVE",
"627 592 CURVE SMOOTH",
"627 576 OFFCURVE",
"645 554 OFFCURVE",
"677 554 CURVE SMOOTH"
);
}
);
width = 730;
}
);
note = uni0985;
unicode = 0985;
},
{
color = 3;
glyphname = uni0986;
lastChange = "2015-10-07 09:58:23 +0000";
layers = (
{
background = {
paths = (
{
closed = 1;
nodes = (
"555 500 LINE SMOOTH",
"564 500 OFFCURVE",
"576 492 OFFCURVE",
"589 476 CURVE SMOOTH",
"602 460 OFFCURVE",
"615 438 OFFCURVE",
"628 411 CURVE",
"628 581 LINE",
"657 561 LINE",
"657 518 OFFCURVE",
"662 500 OFFCURVE",
"689 500 CURVE SMOOTH",
"705 500 LINE",
"754 456 LINE",
"673 456 LINE",
"673 -3 LINE",
"628 41 LINE",
"628 366 LINE",
"612 394 OFFCURVE",
"596 416 OFFCURVE",
"581 432 CURVE SMOOTH",
"565 448 OFFCURVE",
"552 456 OFFCURVE",
"541 456 CURVE SMOOTH",
"513 456 LINE",
"513 -23 LINE",
"488 1 LINE",
"488 73 OFFCURVE",
"452 145 OFFCURVE",
"391 197 CURVE",
"372 144 OFFCURVE",
"322 109 OFFCURVE",
"267 109 CURVE SMOOTH",
"167 109 OFFCURVE",
"64 236 OFFCURVE",
"15 419 CURVE",
"46 400 LINE",
"81 269 OFFCURVE",
"172 178 OFFCURVE",
"267 178 CURVE SMOOTH",
"323 178 OFFCURVE",
"369 226 OFFCURVE",
"369 285 CURVE SMOOTH",
"369 326 OFFCURVE",
"335 363 OFFCURVE",
"290 371 CURVE",
"293 365 OFFCURVE",
"294 358 OFFCURVE",
"294 349 CURVE SMOOTH",
"294 316 OFFCURVE",
"264 288 OFFCURVE",
"227 288 CURVE SMOOTH",
"191 288 OFFCURVE",
"161 318 OFFCURVE",
"161 354 CURVE SMOOTH",
"161 390 OFFCURVE",
"189 420 OFFCURVE",
"224 420 CURVE",
"220 433 OFFCURVE",
"201 445 OFFCURVE",
"173 456 CURVE",
"-8 456 LINE",
"-56 500 LINE"
);
},
{
closed = 1;
nodes = (
"244 444 OFFCURVE",
"251 432 OFFCURVE",
"263 421 CURVE",
"344 406 OFFCURVE",
"403 337 OFFCURVE",
"403 256 CURVE",
"426 240 OFFCURVE",
"448 203 OFFCURVE",
"468 147 CURVE",
"468 456 LINE",
"244 456 LINE"
);
}
);
};
layerId = "4AE238AB-6A4C-459B-8E99-4D2856E6BBFA";
name = Regular;
paths = (
{
closed = 1;
nodes = (
"436 107 OFFCURVE",
"498 192 OFFCURVE",
"498 284 CURVE SMOOTH",
"498 384 OFFCURVE",
"424 472 OFFCURVE",
"326 472 CURVE SMOOTH",
"266 472 OFFCURVE",
"223 440 OFFCURVE",
"223 392 CURVE SMOOTH",
"223 352 OFFCURVE",
"253 317 OFFCURVE",
"297 317 CURVE SMOOTH",
"339 317 OFFCURVE",
"367 349 OFFCURVE",
"367 387 CURVE SMOOTH",
"367 434 OFFCURVE",
"324 465 OFFCURVE",
"276 452 CURVE",
"276 428 LINE",
"311 444 OFFCURVE",
"337 422 OFFCURVE",
"337 393 CURVE SMOOTH",
"337 368 OFFCURVE",
"317 353 OFFCURVE",
"295 353 CURVE SMOOTH",
"273 353 OFFCURVE",
"256 369 OFFCURVE",
"256 392 CURVE SMOOTH",
"256 424 OFFCURVE",
"291 442 OFFCURVE",
"328 442 CURVE SMOOTH",
"391 442 OFFCURVE",
"462 391 OFFCURVE",
"462 296 CURVE SMOOTH",
"462 205 OFFCURVE",
"398 149 OFFCURVE",
"315 149 CURVE SMOOTH",
"170 149 OFFCURVE",
"113 319 OFFCURVE",
"73 440 CURVE SMOOTH",
"70 450 OFFCURVE",
"62 455 OFFCURVE",
"55 455 CURVE SMOOTH",
"46 455 OFFCURVE",
"40 444 OFFCURVE",
"43 433 CURVE SMOOTH",
"93 226 OFFCURVE",
"191 107 OFFCURVE",
"323 107 CURVE SMOOTH"
);
},
{
closed = 1;
nodes = (
"629 -12 OFFCURVE",
"635 4 OFFCURVE",
"635 19 CURVE SMOOTH",
"635 102 OFFCURVE",
"564 171 OFFCURVE",
"470 266 CURVE",
"472 205 LINE",
"527 158 OFFCURVE",
"593 97 OFFCURVE",
"593 56 CURVE SMOOTH",
"593 8 OFFCURVE",
"599 -12 OFFCURVE",
"613 -12 CURVE SMOOTH"
);
},
{
closed = 1;
nodes = (
"619 433 OFFCURVE",
"619 450 OFFCURVE",
"619 459 CURVE SMOOTH",
"619 539 OFFCURVE",
"588 587 OFFCURVE",
"504 587 CURVE SMOOTH",
"-11 587 LINE SMOOTH",
"-18 587 OFFCURVE",
"-26 582 OFFCURVE",
"-26 571 CURVE SMOOTH",
"-26 562 OFFCURVE",
"-20 554 OFFCURVE",
"-11 554 CURVE SMOOTH",
"521 554 LINE SMOOTH",
"572 554 OFFCURVE",
"598 520 OFFCURVE",
"598 450 CURVE SMOOTH",
"598 441 OFFCURVE",
"601 433 OFFCURVE",
"609 433 CURVE SMOOTH"
);
},
{
closed = 1;
nodes = (
"635 -12 OFFCURVE",
"629 23 OFFCURVE",
"629 71 CURVE SMOOTH",
"629 402 OFFCURVE",
"633 497 OFFCURVE",
"641 583 CURVE SMOOTH",
"642 597 OFFCURVE",
"640 609 OFFCURVE",
"628 609 CURVE SMOOTH",
"592 609 OFFCURVE",
"593 373 OFFCURVE",
"593 71 CURVE SMOOTH",
"593 23 OFFCURVE",
"593 -12 OFFCURVE",
"614 -12 CURVE SMOOTH"
);
},
{
closed = 1;
nodes = (
"740 554 LINE SMOOTH",
"749 554 OFFCURVE",
"758 558 OFFCURVE",
"758 571 CURVE SMOOTH",
"758 582 OFFCURVE",
"749 587 OFFCURVE",
"740 587 CURVE SMOOTH",
"728 587 OFFCURVE",
"703 587 OFFCURVE",
"682 587 CURVE SMOOTH",
"650 587 OFFCURVE",
"645 587 OFFCURVE",
"640 599 CURVE SMOOTH",
"637 606 OFFCURVE",
"627 602 OFFCURVE",
"627 592 CURVE SMOOTH",
"627 576 OFFCURVE",
"645 554 OFFCURVE",
"677 554 CURVE SMOOTH"
);
},
{
closed = 1;
nodes = (
"691 587 LINE",
"679 587 OFFCURVE",
"673 579 OFFCURVE",
"673 570 CURVE SMOOTH",
"673 561 OFFCURVE",
"679 554 OFFCURVE",
"691 554 CURVE",
"731 554 LINE",
"779 554 OFFCURVE",
"796 524 OFFCURVE",
"796 449 CURVE SMOOTH",
"796 435 OFFCURVE",
"800 433 OFFCURVE",
"808 433 CURVE SMOOTH",
"818 433 OFFCURVE",
"818 451 OFFCURVE",
"818 453 CURVE SMOOTH",
"818 539 OFFCURVE",
"785 587 OFFCURVE",
"725 587 CURVE"
);
},
{
closed = 1;
nodes = (
"956 582 OFFCURVE",
"947 587 OFFCURVE",
"938 587 CURVE SMOOTH",
"926 587 OFFCURVE",
"901 587 OFFCURVE",
"880 587 CURVE SMOOTH",
"848 587 OFFCURVE",
"843 587 OFFCURVE",
"838 599 CURVE SMOOTH",
"835 606 OFFCURVE",
"825 602 OFFCURVE",
"825 592 CURVE SMOOTH",
"825 576 OFFCURVE",
"843 554 OFFCURVE",
"875 554 CURVE SMOOTH",
"938 554 LINE SMOOTH",
"947 554 OFFCURVE",
"956 558 OFFCURVE",
"956 571 CURVE SMOOTH"
);
},
{
closed = 1;
nodes = (
"831 -12 OFFCURVE",
"827 23 OFFCURVE",
"827 71 CURVE SMOOTH",
"827 402 OFFCURVE",
"831 497 OFFCURVE",
"839 583 CURVE SMOOTH",
"840 597 OFFCURVE",
"838 609 OFFCURVE",
"826 609 CURVE SMOOTH",
"790 609 OFFCURVE",
"791 373 OFFCURVE",
"791 71 CURVE SMOOTH",
"791 23 OFFCURVE",
"791 -12 OFFCURVE",
"811 -12 CURVE SMOOTH"
);
}
);
width = 930;
}
);
note = uni0986;
unicode = 0986;
},
{
color = 3;
glyphname = uni0987;
lastChange = "2015-10-07 09:58:46 +0000";
layers = (
{
background = {
paths = (
{
closed = 1;
nodes = (
"416 491 LINE",
"416 456 LINE",
"-10 456 LINE",
"-10 491 LINE"
);
},
{
closed = 1;
nodes = (
"167 410 LINE",
"166 433 OFFCURVE",
"144 456 OFFCURVE",
"106 459 CURVE",
"161 473 LINE",
"191 446 OFFCURVE",
"196 426 OFFCURVE",
"200 411 CURVE"
);
},
{
closed = 1;
nodes = (
"294 420 OFFCURVE",
"362 356 OFFCURVE",
"362 281 CURVE SMOOTH",
"362 195 OFFCURVE",
"273 126 OFFCURVE",
"171 124 CURVE",
"167 151 LINE",
"248 106 OFFCURVE",
"313 68 OFFCURVE",
"445 -50 CURVE",
"429 -69 LINE",
"279 50 OFFCURVE",
"208 84 OFFCURVE",
"74 116 CURVE",
"26 216 LINE",
"62 195 OFFCURVE",
"107 182 OFFCURVE",
"154 182 CURVE SMOOTH",
"253 182 OFFCURVE",
"323 238 OFFCURVE",
"323 299 CURVE SMOOTH",
"323 344 OFFCURVE",
"284 375 OFFCURVE",
"230 375 CURVE SMOOTH",
"204 375 OFFCURVE",
"190 368 OFFCURVE",
"176 359 CURVE",
"205 390 LINE",
"210 377 OFFCURVE",
"211 364 OFFCURVE",
"211 356 CURVE SMOOTH",
"211 306 OFFCURVE",
"175 269 OFFCURVE",
"129 269 CURVE SMOOTH",
"90 269 OFFCURVE",
"65 296 OFFCURVE",
"65 331 CURVE SMOOTH",
"65 385 OFFCURVE",
"123 420 OFFCURVE",
"196 420 CURVE SMOOTH"
);
},
{
closed = 1;
nodes = (
"302 486 LINE",
"309 497 OFFCURVE",
"312 508 OFFCURVE",
"312 520 CURVE SMOOTH",
"312 548 OFFCURVE",
"296 564 OFFCURVE",
"253 564 CURVE SMOOTH",
"215 564 OFFCURVE",
"125 551 OFFCURVE",
"87 551 CURVE SMOOTH",
"22 551 OFFCURVE",
"-21 588 OFFCURVE",
"-21 637 CURVE SMOOTH",
"-21 667 OFFCURVE",
"-5 694 OFFCURVE",
"16 714 CURVE",
"34 698 LINE",
"19 683 OFFCURVE",
"9 664 OFFCURVE",
"9 645 CURVE SMOOTH",
"9 619 OFFCURVE",
"27 602 OFFCURVE",
"69 602 CURVE SMOOTH",
"109 602 OFFCURVE",
"180 617 OFFCURVE",
"222 617 CURVE SMOOTH",
"303 617 OFFCURVE",
"340 562 OFFCURVE",
"346 485 CURVE"
);
}
);
};
layerId = "4AE238AB-6A4C-459B-8E99-4D2856E6BBFA";
name = Regular;
paths = (
{
closed = 1;
nodes = (
"118 433 OFFCURVE",
"135 438 OFFCURVE",
"145 438 CURVE SMOOTH",
"165 438 OFFCURVE",
"177 423 OFFCURVE",
"177 406 CURVE SMOOTH",
"177 384 OFFCURVE",
"158 374 OFFCURVE",
"145 374 CURVE SMOOTH",
"132 374 OFFCURVE",
"111 383 OFFCURVE",
"111 406 CURVE SMOOTH",
"111 449 OFFCURVE",
"186 468 OFFCURVE",
"224 468 CURVE SMOOTH",
"284 468 OFFCURVE",
"352 421 OFFCURVE",
"352 341 CURVE SMOOTH",
"352 237 OFFCURVE",
"250 170 OFFCURVE",
"150 170 CURVE SMOOTH",
"121 170 OFFCURVE",
"107 192 OFFCURVE",
"137 192 CURVE SMOOTH",
"204 192 OFFCURVE",
"260 -29 OFFCURVE",
"415 -29 CURVE SMOOTH",
"442 -29 OFFCURVE",
"450 9 OFFCURVE",
"410 9 CURVE SMOOTH",
"288 9 OFFCURVE",
"231 227 OFFCURVE",
"135 227 CURVE SMOOTH",
"103 227 OFFCURVE",
"83 212 OFFCURVE",
"83 186 CURVE SMOOTH",
"83 154 OFFCURVE",
"115 135 OFFCURVE",
"165 135 CURVE SMOOTH",
"273 135 OFFCURVE",
"394 224 OFFCURVE",
"394 343 CURVE SMOOTH",
"394 440 OFFCURVE",
"315 499 OFFCURVE",
"221 499 CURVE SMOOTH",
"155 499 OFFCURVE",
"74 469 OFFCURVE",
"74 407 CURVE SMOOTH",
"74 373 OFFCURVE",
"98 338 OFFCURVE",
"141 338 CURVE SMOOTH",
"181 338 OFFCURVE",
"210 367 OFFCURVE",
"210 401 CURVE SMOOTH",
"210 432 OFFCURVE",
"187 458 OFFCURVE",
"155 458 CURVE SMOOTH",
"144 458 OFFCURVE",
"120 455 OFFCURVE",
"107 440 CURVE",
"113 418 LINE"
);
},
{
closed = 1;
nodes = (
"484 554 LINE SMOOTH",
"493 554 OFFCURVE",
"499 562 OFFCURVE",
"499 571 CURVE SMOOTH",
"499 582 OFFCURVE",
"491 587 OFFCURVE",
"484 587 CURVE SMOOTH",
"-26 587 LINE SMOOTH",
"-33 587 OFFCURVE",
"-41 582 OFFCURVE",
"-41 571 CURVE SMOOTH",
"-41 562 OFFCURVE",
"-35 554 OFFCURVE",
"-26 554 CURVE SMOOTH"
);
},
{
closed = 1;
nodes = (
"379 564 LINE",
"379 702 OFFCURVE",
"324 726 OFFCURVE",
"230 726 CURVE SMOOTH",
"186 726 OFFCURVE",
"127 714 OFFCURVE",
"85 714 CURVE SMOOTH",
"40 714 OFFCURVE",
"-15 730 OFFCURVE",
"-15 799 CURVE SMOOTH",
"-15 829 OFFCURVE",
"-45 827 OFFCURVE",
"-45 799 CURVE SMOOTH",
"-45 719 OFFCURVE",
"6 686 OFFCURVE",
"94 686 CURVE SMOOTH",
"139 686 OFFCURVE",
"186 697 OFFCURVE",
"240 697 CURVE SMOOTH",
"348 697 OFFCURVE",
"340 631 OFFCURVE",
"340 564 CURVE"
);
}
);
width = 474;
}
);
note = uni0987;
unicode = 0987;
},
{
color = 3;
glyphname = uni0988;
lastChange = "2015-10-07 09:59:10 +0000";
layers = (
{
background = {
paths = (
{
closed = 1;
nodes = (
"-40 500 LINE",
"307 500 LINE SMOOTH",
"320 500 OFFCURVE",
"330 512 OFFCURVE",
"330 528 CURVE SMOOTH",
"330 544 OFFCURVE",
"309 556 OFFCURVE",
"282 556 CURVE SMOOTH",
"263 556 OFFCURVE",
"234 553 OFFCURVE",
"195 548 CURVE SMOOTH",
"156 543 OFFCURVE",
"127 541 OFFCURVE",
"108 541 CURVE SMOOTH",
"52 541 OFFCURVE",
"7 584 OFFCURVE",
"7 637 CURVE SMOOTH",
"7 666 OFFCURVE",
"20 694 OFFCURVE",
"44 714 CURVE",
"62 696 LINE",
"49 685 OFFCURVE",
"41 669 OFFCURVE",
"41 652 CURVE SMOOTH",
"41 625 OFFCURVE",
"64 604 OFFCURVE",
"93 604 CURVE SMOOTH",
"112 604 OFFCURVE",
"139 607 OFFCURVE",
"175 612 CURVE SMOOTH",
"211 617 OFFCURVE",
"238 619 OFFCURVE",
"257 619 CURVE SMOOTH",
"313 619 OFFCURVE",
"358 579 OFFCURVE",
"358 528 CURVE SMOOTH",
"358 512 OFFCURVE",
"367 500 OFFCURVE",
"376 500 CURVE SMOOTH",
"425 500 LINE",
"455 456 LINE",
"113 456 LINE",
"124 447 OFFCURVE",
"130 434 OFFCURVE",
"130 421 CURVE",
"198 421 OFFCURVE",
"253 373 OFFCURVE",
"253 313 CURVE",
"290 358 OFFCURVE",
"335 390 OFFCURVE",
"386 411 CURVE",
"434 364 LINE",
"379 325 OFFCURVE",
"348 252 OFFCURVE",
"348 171 CURVE SMOOTH",
"348 94 OFFCURVE",
"360 30 OFFCURVE",
"385 -23 CURVE",
"344 1 LINE",
"318 72 OFFCURVE",
"305 129 OFFCURVE",
"305 171 CURVE SMOOTH",
"305 217 OFFCURVE",
"314 261 OFFCURVE",
"331 304 CURVE",
"286 239 OFFCURVE",
"248 192 OFFCURVE",
"217 161 CURVE SMOOTH",
"183 126 OFFCURVE",
"155 109 OFFCURVE",
"133 109 CURVE SMOOTH",
"85 109 OFFCURVE",
"47 162 OFFCURVE",
"47 227 CURVE",
"70 232 LINE",
"74 207 OFFCURVE",
"91 188 OFFCURVE",
"108 188 CURVE SMOOTH",
"156 188 OFFCURVE",
"216 251 OFFCURVE",
"216 300 CURVE SMOOTH",
"216 331 OFFCURVE",
"189 356 OFFCURVE",
"156 356 CURVE",
"158 351 OFFCURVE",
"159 345 OFFCURVE",
"159 340 CURVE SMOOTH",
"159 305 OFFCURVE",
"129 278 OFFCURVE",
"93 278 CURVE SMOOTH",
"57 278 OFFCURVE",
"27 308 OFFCURVE",
"27 344 CURVE SMOOTH",
"27 381 OFFCURVE",
"56 413 OFFCURVE",
"95 420 CURVE",
"95 426 OFFCURVE",
"82 437 OFFCURVE",
"55 452 CURVE SMOOTH",
"48 456 LINE",
"-10 456 LINE"
);
}
);
};
layerId = "4AE238AB-6A4C-459B-8E99-4D2856E6BBFA";
name = Regular;
paths = (
{
closed = 1;
nodes = (
"485 27 OFFCURVE",
"487 32 OFFCURVE",
"487 37 CURVE SMOOTH",
"487 70 OFFCURVE",
"415 151 OFFCURVE",
"415 270 CURVE SMOOTH",
"415 404 OFFCURVE",
"505 403 OFFCURVE",
"505 434 CURVE SMOOTH",
"505 442 OFFCURVE",
"498 451 OFFCURVE",
"487 451 CURVE SMOOTH",
"448 451 OFFCURVE",
"366 343 OFFCURVE",
"326 289 CURVE SMOOTH",
"280 227 OFFCURVE",
"236 168 OFFCURVE",
"172 168 CURVE SMOOTH",
"141 168 OFFCURVE",
"126 184 OFFCURVE",
"111 200 CURVE SMOOTH",
"95 217 OFFCURVE",
"71 197 OFFCURVE",
"86 177 CURVE SMOOTH",
"100 159 OFFCURVE",
"127 134 OFFCURVE",
"172 134 CURVE SMOOTH",
"280 134 OFFCURVE",
"358 271 OFFCURVE",
"392 323 CURVE",
"373 322 LINE",
"373 232 OFFCURVE",
"390 142 OFFCURVE",
"441 55 CURVE SMOOTH",
"452 35 OFFCURVE",
"466 18 OFFCURVE",
"480 25 CURVE SMOOTH"
);
},
{
closed = 1;
nodes = (
"113 349 OFFCURVE",
"92 358 OFFCURVE",
"92 381 CURVE SMOOTH",
"92 401 OFFCURVE",
"107 413 OFFCURVE",
"125 413 CURVE SMOOTH",
"146 413 OFFCURVE",
"158 398 OFFCURVE",
"158 381 CURVE SMOOTH",
"158 359 OFFCURVE",
"139 349 OFFCURVE",
"126 349 CURVE SMOOTH"
);
},
{
closed = 1;
nodes = (
"163 313 OFFCURVE",
"191 342 OFFCURVE",
"191 376 CURVE SMOOTH",
"191 420 OFFCURVE",
"143 454 OFFCURVE",
"107 427 CURVE",
"111 423 LINE",
"129 445 OFFCURVE",
"162 457 OFFCURVE",
"194 457 CURVE SMOOTH",
"314 457 OFFCURVE",
"332 292 OFFCURVE",
"292 244 CURVE",
"305 222 LINE",
"378 305 OFFCURVE",
"337 491 OFFCURVE",
"193 491 CURVE SMOOTH",
"120 491 OFFCURVE",
"55 443 OFFCURVE",
"55 384 CURVE SMOOTH",
"55 347 OFFCURVE",
"80 313 OFFCURVE",
"123 313 CURVE SMOOTH"
);
},
{
closed = 1;
nodes = (
"538 554 LINE SMOOTH",
"547 554 OFFCURVE",
"553 562 OFFCURVE",
"553 571 CURVE SMOOTH",
"553 582 OFFCURVE",
"545 587 OFFCURVE",
"538 587 CURVE SMOOTH",
"-12 587 LINE SMOOTH",
"-19 587 OFFCURVE",
"-27 582 OFFCURVE",
"-27 571 CURVE SMOOTH",
"-27 562 OFFCURVE",
"-21 554 OFFCURVE",
"-12 554 CURVE SMOOTH"
);
},
{
closed = 1;
nodes = (
"463 564 LINE",
"463 702 OFFCURVE",
"408 726 OFFCURVE",
"314 726 CURVE SMOOTH",
"270 726 OFFCURVE",
"211 714 OFFCURVE",
"169 714 CURVE SMOOTH",
"124 714 OFFCURVE",
"69 730 OFFCURVE",
"69 799 CURVE SMOOTH",
"69 829 OFFCURVE",
"39 827 OFFCURVE",
"39 799 CURVE SMOOTH",
"39 719 OFFCURVE",
"90 686 OFFCURVE",
"178 686 CURVE SMOOTH",
"223 686 OFFCURVE",
"270 697 OFFCURVE",
"324 697 CURVE SMOOTH",
"432 697 OFFCURVE",
"424 631 OFFCURVE",
"424 564 CURVE"
);
}
);
width = 538;
}
);
note = uni0988;
unicode = 0988;
},
{
color = 3;
glyphname = uni0989;
lastChange = "2015-10-07 09:59:41 +0000";
layers = (
{
background = {
paths = (
{
closed = 1;
nodes = (
"-40 500 LINE",
"347 500 LINE SMOOTH",
"360 500 OFFCURVE",
"370 510 OFFCURVE",
"370 523 CURVE SMOOTH",
"370 542 OFFCURVE",
"343 556 OFFCURVE",
"308 556 CURVE SMOOTH",
"288 556 OFFCURVE",
"258 554 OFFCURVE",
"219 551 CURVE SMOOTH",
"179 548 OFFCURVE",
"149 546 OFFCURVE",
"129 546 CURVE SMOOTH",
"73 546 OFFCURVE",
"28 591 OFFCURVE",
"28 647 CURVE SMOOTH",
"28 670 OFFCURVE",
"37 694 OFFCURVE",
"54 714 CURVE",
"78 701 LINE",
"67 689 OFFCURVE",
"62 673 OFFCURVE",
"62 657 CURVE SMOOTH",
"62 630 OFFCURVE",
"87 609 OFFCURVE",
"119 609 CURVE SMOOTH",
"138 609 OFFCURVE",
"166 611 OFFCURVE",
"204 614 CURVE SMOOTH",
"241 617 OFFCURVE",
"269 619 OFFCURVE",
"288 619 CURVE SMOOTH",
"349 619 OFFCURVE",
"399 579 OFFCURVE",
"399 528 CURVE SMOOTH",
"399 512 OFFCURVE",
"411 500 OFFCURVE",
"427 500 CURVE SMOOTH",
"465 500 LINE",
"495 456 LINE",
"242 456 LINE",
"242 290 LINE SMOOTH",
"242 281 OFFCURVE",
"246 272 OFFCURVE",
"253 272 CURVE SMOOTH",
"288 272 OFFCURVE",
"331 311 OFFCURVE",
"367 372 CURVE",
"418 343 OFFCURVE",
"449 280 OFFCURVE",
"449 205 CURVE SMOOTH",
"449 94 OFFCURVE",
"377 5 OFFCURVE",
"286 5 CURVE SMOOTH",
"158 5 OFFCURVE",
"45 182 OFFCURVE",
"25 411 CURVE",
"52 385 LINE",
"73 210 OFFCURVE",
"174 78 OFFCURVE",
"286 78 CURVE SMOOTH",
"361 78 OFFCURVE",
"420 141 OFFCURVE",
"420 220 CURVE SMOOTH",
"420 257 OFFCURVE",
"409 286 OFFCURVE",
"392 297 CURVE",
"359 238 OFFCURVE",
"311 203 OFFCURVE",
"268 203 CURVE SMOOTH",
"240 203 OFFCURVE",
"197 269 OFFCURVE",
"197 310 CURVE SMOOTH",
"197 456 LINE",
"-10 456 LINE"
);
}
);
};
layerId = "4AE238AB-6A4C-459B-8E99-4D2856E6BBFA";
name = Regular;
paths = (
{
closed = 1;
nodes = (
"485 30 OFFCURVE",
"559 113 OFFCURVE",
"559 233 CURVE SMOOTH",
"559 311 OFFCURVE",
"523 393 OFFCURVE",
"474 393 CURVE SMOOTH",
"456 393 OFFCURVE",
"458 365 OFFCURVE",
"449 335 CURVE SMOOTH",
"439 300 OFFCURVE",
"414 263 OFFCURVE",
"369 263 CURVE SMOOTH",
"322 263 OFFCURVE",
"292 317 OFFCURVE",
"292 397 CURVE SMOOTH",
"292 498 OFFCURVE",
"310 554 OFFCURVE",
"378 554 CURVE SMOOTH",
"598 554 LINE SMOOTH",
"607 554 OFFCURVE",
"613 561 OFFCURVE",
"613 572 CURVE SMOOTH",
"613 580 OFFCURVE",
"606 587 OFFCURVE",
"598 587 CURVE SMOOTH",
"367 587 LINE SMOOTH",
"348 587 OFFCURVE",
"318 584 OFFCURVE",
"294 557 CURVE SMOOTH",
"264 523 OFFCURVE",
"256 463 OFFCURVE",
"256 397 CURVE SMOOTH",
"256 296 OFFCURVE",
"296 229 OFFCURVE",
"375 229 CURVE SMOOTH",
"463 229 OFFCURVE",
"483 321 OFFCURVE",
"489 349 CURVE",
"506 329 OFFCURVE",
"523 280 OFFCURVE",
"523 232 CURVE SMOOTH",
"523 145 OFFCURVE",
"458 72 OFFCURVE",
"363 72 CURVE SMOOTH",
"218 72 OFFCURVE",
"95 263 OFFCURVE",
"80 427 CURVE SMOOTH",
"78 448 OFFCURVE",
"68 459 OFFCURVE",
"60 459 CURVE SMOOTH",
"51 459 OFFCURVE",
"43 448 OFFCURVE",
"45 426 CURVE SMOOTH",
"62 241 OFFCURVE",
"196 30 OFFCURVE",
"363 30 CURVE SMOOTH"
);
},
{
closed = 1;
nodes = (
"298 525 LINE",
"298 567 OFFCURVE",
"250 587 OFFCURVE",
"193 587 CURVE SMOOTH",
"-2 587 LINE SMOOTH",
"-9 587 OFFCURVE",
"-17 582 OFFCURVE",
"-17 571 CURVE SMOOTH",
"-17 562 OFFCURVE",
"-11 554 OFFCURVE",
"-2 554 CURVE SMOOTH",
"206 554 LINE SMOOTH",
"234 554 OFFCURVE",
"279 544 OFFCURVE",
"269 509 CURVE"
);
},
{
closed = 1;
nodes = (
"523 564 LINE",
"523 702 OFFCURVE",
"468 733 OFFCURVE",
"347 733 CURVE SMOOTH",
"264 733 OFFCURVE",
"183 710 OFFCURVE",
"123 710 CURVE SMOOTH",
"78 710 OFFCURVE",
"23 726 OFFCURVE",
"23 795 CURVE SMOOTH",
"23 825 OFFCURVE",
"-7 823 OFFCURVE",
"-7 795 CURVE SMOOTH",
"-7 715 OFFCURVE",
"44 682 OFFCURVE",
"132 682 CURVE SMOOTH",
"195 682 OFFCURVE",
"264 704 OFFCURVE",
"357 704 CURVE SMOOTH",
"492 704 OFFCURVE",
"484 631 OFFCURVE",
"484 564 CURVE"
);
}
);
width = 593;
}
);
note = uni0989;
unicode = 0989;
},
{
color = 3;
glyphname = uni098A;
lastChange = "2015-10-07 10:00:01 +0000";
layers = (
{
background = {
paths = (
{
closed = 1;
nodes = (
"-40 500 LINE",
"383 500 LINE SMOOTH",
"399 500 OFFCURVE",
"411 512 OFFCURVE",
"411 528 CURVE SMOOTH",
"411 551 OFFCURVE",
"385 570 OFFCURVE",
"353 570 CURVE SMOOTH",
"326 570 OFFCURVE",
"284 568 OFFCURVE",
"229 563 CURVE SMOOTH",
"174 558 OFFCURVE",
"132 556 OFFCURVE",
"105 556 CURVE SMOOTH",
"54 556 OFFCURVE",
"14 599 OFFCURVE",
"14 652 CURVE SMOOTH",
"14 677 OFFCURVE",
"25 705 OFFCURVE",
"45 729 CURVE",
"74 712 LINE",
"61 699 OFFCURVE",
"53 683 OFFCURVE",
"53 667 CURVE SMOOTH",
"53 643 OFFCURVE",
"75 624 OFFCURVE",
"100 624 CURVE SMOOTH",
"125 624 OFFCURVE",
"163 627 OFFCURVE",
"214 632 CURVE SMOOTH",
"265 637 OFFCURVE",
"304 639 OFFCURVE",
"329 639 CURVE SMOOTH",
"393 639 OFFCURVE",
"445 589 OFFCURVE",
"445 528 CURVE SMOOTH",
"445 512 OFFCURVE",
"460 500 OFFCURVE",
"477 500 CURVE SMOOTH",
"513 500 LINE",
"543 456 LINE",
"302 456 LINE",
"302 290 LINE SMOOTH",
"302 277 OFFCURVE",
"307 267 OFFCURVE",
"314 267 CURVE SMOOTH",
"341 267 OFFCURVE",
"381 307 OFFCURVE",
"418 372 CURVE",
"469 336 OFFCURVE",
"499 272 OFFCURVE",
"499 200 CURVE SMOOTH",
"499 92 OFFCURVE",
"410 5 OFFCURVE",
"299 5 CURVE SMOOTH",
"150 5 OFFCURVE",
"28 181 OFFCURVE",
"28 400 CURVE",
"53 375 LINE",
"53 231 OFFCURVE",
"133 107 OFFCURVE",
"253 63 CURVE",
"161 132 OFFCURVE",
"107 256 OFFCURVE",
"107 399 CURVE",
"132 375 LINE",
"147 210 OFFCURVE",
"234 83 OFFCURVE",
"334 83 CURVE SMOOTH",
"407 83 OFFCURVE",
"466 144 OFFCURVE",
"466 220 CURVE SMOOTH",
"466 249 OFFCURVE",
"458 275 OFFCURVE",
"443 292 CURVE",
"399 233 OFFCURVE",
"356 198 OFFCURVE",
"329 198 CURVE SMOOTH",
"301 198 OFFCURVE",
"257 261 OFFCURVE",
"257 300 CURVE SMOOTH",
"257 456 LINE",
"-10 456 LINE"
);
}
);
};
layerId = "4AE238AB-6A4C-459B-8E99-4D2856E6BBFA";
name = Regular;
paths = (
{
closed = 1;
nodes = (
"136 273 OFFCURVE",
"246 43 OFFCURVE",
"408 43 CURVE",
"408 75 LINE",
"248 75 OFFCURVE",
"169 300 OFFCURVE",
"185 465 CURVE SMOOTH",
"186 477 OFFCURVE",
"177 485 OFFCURVE",
"167 485 CURVE SMOOTH",
"157 485 OFFCURVE",
"153 476 OFFCURVE",
"152 464 CURVE SMOOTH"
);
},
{
closed = 1;
nodes = (
"334 506 LINE",
"336 513 OFFCURVE",
"342 528 OFFCURVE",
"332 548 CURVE SMOOTH",
"318 574 OFFCURVE",
"282 587 OFFCURVE",
"233 587 CURVE SMOOTH",
"-2 587 LINE SMOOTH",
"-9 587 OFFCURVE",
"-17 582 OFFCURVE",
"-17 571 CURVE SMOOTH",
"-17 562 OFFCURVE",
"-11 554 OFFCURVE",
"-2 554 CURVE SMOOTH",
"246 554 LINE SMOOTH",
"284 554 OFFCURVE",
"321 544 OFFCURVE",
"306 498 CURVE"
);
},
{
closed = 1;
nodes = (
"563 564 LINE",
"563 702 OFFCURVE",
"508 733 OFFCURVE",
"387 733 CURVE SMOOTH",
"304 733 OFFCURVE",
"223 710 OFFCURVE",
"163 710 CURVE SMOOTH",
"118 710 OFFCURVE",
"63 726 OFFCURVE",
"63 795 CURVE SMOOTH",
"63 825 OFFCURVE",
"33 823 OFFCURVE",
"33 795 CURVE SMOOTH",
"33 715 OFFCURVE",
"84 682 OFFCURVE",
"172 682 CURVE SMOOTH",
"235 682 OFFCURVE",
"304 704 OFFCURVE",
"397 704 CURVE SMOOTH",
"532 704 OFFCURVE",
"524 631 OFFCURVE",
"524 564 CURVE"
);
},
{
closed = 1;
nodes = (
"398 587 LINE",
"380 587 OFFCURVE",
"355 580 OFFCURVE",
"334 557 CURVE SMOOTH",
"304 523 OFFCURVE",
"296 463 OFFCURVE",
"296 397 CURVE SMOOTH",
"296 296 OFFCURVE",
"342 230 OFFCURVE",
"418 229 CURVE SMOOTH",
"508 228 OFFCURVE",
"529 322 OFFCURVE",
"535 350 CURVE",
"556 325 OFFCURVE",
"579 255 OFFCURVE",
"563 189 CURVE SMOOTH",
"543 105 OFFCURVE",
"473 75 OFFCURVE",
"394 75 CURVE SMOOTH",
"238 75 OFFCURVE",
"108 252 OFFCURVE",
"98 446 CURVE SMOOTH",
"97 458 OFFCURVE",
"90 466 OFFCURVE",
"80 466 CURVE SMOOTH",
"70 466 OFFCURVE",
"64 457 OFFCURVE",
"65 445 CURVE SMOOTH",
"84 216 OFFCURVE",
"229 30 OFFCURVE",
"401 30 CURVE SMOOTH",
"480 30 OFFCURVE",
"573 61 OFFCURVE",
"598 183 CURVE SMOOTH",
"618 281 OFFCURVE",
"578 394 OFFCURVE",
"520 394 CURVE SMOOTH",
"502 394 OFFCURVE",
"504 366 OFFCURVE",
"495 336 CURVE SMOOTH",
"485 301 OFFCURVE",
"462 263 OFFCURVE",
"412 263 CURVE SMOOTH",
"366 263 OFFCURVE",
"332 317 OFFCURVE",
"332 397 CURVE SMOOTH",
"332 498 OFFCURVE",
"350 554 OFFCURVE",
"418 554 CURVE SMOOTH",
"645 554 LINE SMOOTH",
"654 554 OFFCURVE",
"662 561 OFFCURVE",
"662 572 CURVE SMOOTH",
"662 580 OFFCURVE",
"653 587 OFFCURVE",
"645 587 CURVE SMOOTH"
);
}
);
width = 643;
}
);
note = uni098A;
unicode = 098A;
},
{
color = 3;
glyphname = uni098B;
lastChange = "2015-10-07 10:00:23 +0000";
layers = (
{
background = {
paths = (
{
closed = 1;
nodes = (
"368 509 LINE",
"368 281 LINE",
"409 257 OFFCURVE",
"435 235 OFFCURVE",
"442 216 CURVE",
"442 582 LINE",
"466 559 LINE",
"466 527 OFFCURVE",
"483 500 OFFCURVE",
"506 500 CURVE SMOOTH",
"533 500 LINE",
"563 456 LINE",
"487 456 LINE",
"487 27 LINE",
"462 51 LINE",
"462 111 OFFCURVE",
"428 174 OFFCURVE",
"368 225 CURVE",
"368 -23 LINE",
"342 1 LINE",
"342 97 OFFCURVE",
"242 184 OFFCURVE",
"105 208 CURVE",
"64 276 LINE",
"271 409 LINE",
"206 437 LINE",
"166 381 OFFCURVE",
"118 347 OFFCURVE",
"77 347 CURVE SMOOTH",
"42 347 OFFCURVE",
"15 374 OFFCURVE",
"15 409 CURVE SMOOTH",
"15 442 OFFCURVE",
"42 470 OFFCURVE",
"77 470 CURVE SMOOTH",
"105 470 OFFCURVE",
"128 453 OFFCURVE",
"132 432 CURVE",
"156 439 OFFCURVE",
"180 477 OFFCURVE",
"195 533 CURVE",
"227 470 OFFCURVE",
"276 431 OFFCURVE",
"323 431 CURVE",
"323 553 LINE"
);
},
{
closed = 1;
nodes = (
"236 236 OFFCURVE",
"291 185 OFFCURVE",
"323 117 CURVE",
"323 355 LINE",
"171 260 LINE"
);
}
);
};
layerId = "4AE238AB-6A4C-459B-8E99-4D2856E6BBFA";
name = Regular;
paths = (
{
closed = 1;
nodes = (
"393 270 LINE",
"393 179 OFFCURVE",
"507 132 OFFCURVE",
"507 74 CURVE SMOOTH",
"507 42 OFFCURVE",
"517 33 OFFCURVE",
"527 33 CURVE SMOOTH",
"537 33 OFFCURVE",
"546 44 OFFCURVE",
"546 61 CURVE SMOOTH",
"546 136 OFFCURVE",
"417 193 OFFCURVE",
"413 294 CURVE"
);
},
{
closed = 1;
nodes = (
"671 582 OFFCURVE",
"662 587 OFFCURVE",
"653 587 CURVE SMOOTH",
"641 587 OFFCURVE",
"616 587 OFFCURVE",
"595 587 CURVE SMOOTH",
"563 587 OFFCURVE",
"558 587 OFFCURVE",
"553 599 CURVE SMOOTH",
"550 606 OFFCURVE",
"540 602 OFFCURVE",
"540 592 CURVE SMOOTH",
"540 576 OFFCURVE",
"558 554 OFFCURVE",
"590 554 CURVE SMOOTH",
"653 554 LINE SMOOTH",
"662 554 OFFCURVE",
"671 558 OFFCURVE",
"671 571 CURVE SMOOTH"
);
},
{
closed = 1;
nodes = (
"399 543 OFFCURVE",
"296 604 OFFCURVE",
"252 587 CURVE SMOOTH",
"223 576 OFFCURVE",
"232 473 OFFCURVE",
"137 473 CURVE SMOOTH",
"93 473 OFFCURVE",
"59 497 OFFCURVE",
"59 525 CURVE SMOOTH",
"59 547 OFFCURVE",
"73 558 OFFCURVE",
"89 558 CURVE SMOOTH",
"108 558 OFFCURVE",
"121 544 OFFCURVE",
"121 525 CURVE SMOOTH",
"121 494 OFFCURVE",
"72 481 OFFCURVE",
"60 516 CURVE",
"58 483 LINE",
"103 456 OFFCURVE",
"150 486 OFFCURVE",
"150 529 CURVE SMOOTH",
"150 558 OFFCURVE",
"130 588 OFFCURVE",
"87 588 CURVE SMOOTH",
"51 588 OFFCURVE",
"26 560 OFFCURVE",
"26 522 CURVE SMOOTH",
"26 481 OFFCURVE",
"71 438 OFFCURVE",
"133 438 CURVE SMOOTH",
"248 438 OFFCURVE",
"253 544 OFFCURVE",
"272 557 CURVE SMOOTH",
"290 570 OFFCURVE",
"372 514 OFFCURVE",
"372 476 CURVE SMOOTH",
"372 450 OFFCURVE",
"332 441 OFFCURVE",
"273 416 CURVE SMOOTH",
"202 386 OFFCURVE",
"94 342 OFFCURVE",
"63 324 CURVE SMOOTH",
"33 307 OFFCURVE",
"43 264 OFFCURVE",
"80 260 CURVE SMOOTH",
"131 254 OFFCURVE",
"378 189 OFFCURVE",
"378 43 CURVE SMOOTH",
"378 20 OFFCURVE",
"380 -12 OFFCURVE",
"400 -12 CURVE SMOOTH",
"411 -12 OFFCURVE",
"420 -1 OFFCURVE",
"420 20 CURVE SMOOTH",
"420 151 OFFCURVE",
"292 251 OFFCURVE",
"78 298 CURVE",
"81 291 LINE",
"130 315 OFFCURVE",
"218 352 OFFCURVE",
"292 383 CURVE SMOOTH",
"347 406 OFFCURVE",
"399 417 OFFCURVE",
"399 471 CURVE SMOOTH"
);
},
{
closed = 1;
nodes = (
"420 -12 OFFCURVE",
"416 23 OFFCURVE",
"416 71 CURVE SMOOTH",
"416 402 OFFCURVE",
"418 497 OFFCURVE",
"426 583 CURVE SMOOTH",
"427 597 OFFCURVE",
"425 609 OFFCURVE",
"413 609 CURVE SMOOTH",
"377 609 OFFCURVE",
"378 373 OFFCURVE",
"378 71 CURVE SMOOTH",
"378 23 OFFCURVE",
"378 -12 OFFCURVE",
"399 -12 CURVE SMOOTH"
);
},
{
closed = 1;
nodes = (
"548 33 OFFCURVE",
"544 68 OFFCURVE",
"544 116 CURVE SMOOTH",
"544 446 OFFCURVE",
"546 496 OFFCURVE",
"554 583 CURVE SMOOTH",
"555 597 OFFCURVE",
"553 609 OFFCURVE",
"541 609 CURVE SMOOTH",
"506 609 OFFCURVE",
"506 404 OFFCURVE",
"506 116 CURVE SMOOTH",
"506 68 OFFCURVE",
"506 33 OFFCURVE",
"527 33 CURVE SMOOTH"
);
}
);
width = 645;
}
);
note = uni098B;
unicode = 098B;
},
{
color = 3;
glyphname = uni098C;
lastChange = "2015-10-07 10:00:49 +0000";
layers = (
{
background = {
paths = (
{
closed = 1;
nodes = (
"54 178 OFFCURVE",
"111 242 OFFCURVE",
"182 242 CURVE SMOOTH",
"267 242 OFFCURVE",
"336 170 OFFCURVE",
"336 79 CURVE",
"363 88 OFFCURVE",
"381 121 OFFCURVE",
"381 158 CURVE SMOOTH",
"381 213 OFFCURVE",
"312 273 OFFCURVE",
"211 306 CURVE SMOOTH",
"108 339 OFFCURVE",
"38 400 OFFCURVE",
"38 456 CURVE SMOOTH",
"38 488 OFFCURVE",
"66 514 OFFCURVE",
"99 514 CURVE SMOOTH",
"132 514 OFFCURVE",
"160 489 OFFCURVE",
"160 458 CURVE SMOOTH",
"160 437 OFFCURVE",
"152 419 OFFCURVE",
"140 415 CURVE",
"152 382 OFFCURVE",
"192 351 OFFCURVE",
"249 331 CURVE SMOOTH",
"350 296 OFFCURVE",
"418 227 OFFCURVE",
"418 158 CURVE SMOOTH",
"418 70 OFFCURVE",
"358 -2 OFFCURVE",
"283 -2 CURVE",
"283 113 OFFCURVE",
"233 205 OFFCURVE",
"170 205 CURVE SMOOTH",
"135 205 OFFCURVE",
"107 172 OFFCURVE",
"107 131 CURVE SMOOTH",
"107 114 OFFCURVE",
"112 96 OFFCURVE",
"122 79 CURVE",
"134 88 OFFCURVE",
"145 94 OFFCURVE",
"154 94 CURVE SMOOTH",
"183 94 OFFCURVE",
"206 70 OFFCURVE",
"206 39 CURVE SMOOTH",
"206 10 OFFCURVE",
"178 -13 OFFCURVE",
"142 -13 CURVE SMOOTH",
"94 -13 OFFCURVE",
"54 37 OFFCURVE",
"54 98 CURVE SMOOTH"
);
}
);
};
layerId = "4AE238AB-6A4C-459B-8E99-4D2856E6BBFA";
name = Regular;
paths = (
{
closed = 1;
nodes = (
"59 438 OFFCURVE",
"485 514 OFFCURVE",
"485 245 CURVE SMOOTH",
"485 140 OFFCURVE",
"416 20 OFFCURVE",
"317 20 CURVE",
"319 13 LINE",
"353 43 OFFCURVE",
"383 100 OFFCURVE",
"383 152 CURVE SMOOTH",
"383 252 OFFCURVE",
"311 318 OFFCURVE",
"218 318 CURVE SMOOTH",
"125 318 OFFCURVE",
"49 247 OFFCURVE",
"49 162 CURVE SMOOTH",
"49 79 OFFCURVE",
"111 9 OFFCURVE",
"183 9 CURVE SMOOTH",
"230 9 OFFCURVE",
"257 38 OFFCURVE",
"257 73 CURVE SMOOTH",
"257 108 OFFCURVE",
"230 133 OFFCURVE",
"194 133 CURVE SMOOTH",
"160 133 OFFCURVE",
"137 110 OFFCURVE",
"137 80 CURVE SMOOTH",
"137 50 OFFCURVE",
"160 28 OFFCURVE",
"189 24 CURVE",
"191 39 LINE",
"178 39 OFFCURVE",
"163 54 OFFCURVE",
"163 72 CURVE SMOOTH",
"163 92 OFFCURVE",
"179 103 OFFCURVE",
"194 103 CURVE SMOOTH",
"207 103 OFFCURVE",
"224 94 OFFCURVE",
"224 70 CURVE SMOOTH",
"224 53 OFFCURVE",
"215 39 OFFCURVE",
"189 39 CURVE SMOOTH",
"147 39 OFFCURVE",
"85 76 OFFCURVE",
"85 150 CURVE SMOOTH",
"85 226 OFFCURVE",
"149 276 OFFCURVE",
"224 276 CURVE SMOOTH",
"292 276 OFFCURVE",
"343 223 OFFCURVE",
"343 153 CURVE SMOOTH",
"343 64 OFFCURVE",
"285 35 OFFCURVE",
"285 15 CURVE SMOOTH",
"285 0 OFFCURVE",
"299 -12 OFFCURVE",
"327 -12 CURVE SMOOTH",
"434 -12 OFFCURVE",
"523 115 OFFCURVE",
"523 238 CURVE SMOOTH",
"523 540 OFFCURVE",
"94 500 OFFCURVE",
"94 662 CURVE SMOOTH",
"94 683 OFFCURVE",
"87 693 OFFCURVE",
"76 693 CURVE SMOOTH",
"67 693 OFFCURVE",
"59 687 OFFCURVE",
"59 671 CURVE SMOOTH"
);
}
);
width = 562;
}
);
note = uni098C;
unicode = 098C;
},
{
color = 3;
glyphname = uni098F;
lastChange = "2015-10-07 10:01:14 +0000";
layers = (
{
background = {
paths = (
{
closed = 1;
nodes = (
"30 293 OFFCURVE",
"42 332 OFFCURVE",
"67 367 CURVE",
"84 349 LINE",
"67 325 OFFCURVE",
"59 295 OFFCURVE",
"59 260 CURVE SMOOTH",
"59 196 OFFCURVE",
"112 143 OFFCURVE",
"176 143 CURVE SMOOTH",
"193 143 OFFCURVE",
"219 145 OFFCURVE",
"253 148 CURVE SMOOTH",
"287 151 OFFCURVE",
"313 153 OFFCURVE",
"330 153 CURVE SMOOTH",
"358 153 OFFCURVE",
"387 135 OFFCURVE",
"407 106 CURVE",
"407 419 LINE SMOOTH",
"407 434 OFFCURVE",
"398 446 OFFCURVE",
"389 446 CURVE SMOOTH",
"344 446 OFFCURVE",
"252 367 OFFCURVE",
"252 328 CURVE SMOOTH",
"252 320 OFFCURVE",
"253 316 OFFCURVE",
"254 313 CURVE",
"257 318 OFFCURVE",
"267 321 OFFCURVE",
"280 321 CURVE SMOOTH",
"312 321 OFFCURVE",
"338 294 OFFCURVE",
"338 262 CURVE SMOOTH",
"338 230 OFFCURVE",
"307 203 OFFCURVE",
"270 203 CURVE SMOOTH",
"219 203 OFFCURVE",
"179 247 OFFCURVE",
"179 300 CURVE SMOOTH",
"179 388 OFFCURVE",
"285 500 OFFCURVE",
"369 500 CURVE SMOOTH",
"401 500 OFFCURVE",
"452 457 OFFCURVE",
"452 429 CURVE SMOOTH",
"452 -23 LINE",
"427 1 LINE",
"427 46 OFFCURVE",
"396 84 OFFCURVE",
"359 84 CURVE SMOOTH",
"342 84 OFFCURVE",
"316 82 OFFCURVE",
"283 79 CURVE SMOOTH",
"249 76 OFFCURVE",
"223 74 OFFCURVE",
"206 74 CURVE SMOOTH",
"109 74 OFFCURVE",
"30 153 OFFCURVE",
"30 250 CURVE SMOOTH"
);
}
);
};
layerId = "4AE238AB-6A4C-459B-8E99-4D2856E6BBFA";
name = Regular;
paths = (
{
closed = 1;
nodes = (
"519 -11 OFFCURVE",
"522 2 OFFCURVE",
"522 42 CURVE SMOOTH",
"522 176 OFFCURVE",
"522 397 OFFCURVE",
"522 468 CURVE SMOOTH",
"522 539 OFFCURVE",
"507 595 OFFCURVE",
"449 595 CURVE SMOOTH",
"354 595 OFFCURVE",
"192 443 OFFCURVE",
"192 325 CURVE SMOOTH",
"192 274 OFFCURVE",
"222 240 OFFCURVE",
"271 240 CURVE SMOOTH",
"305 240 OFFCURVE",
"340 263 OFFCURVE",
"340 307 CURVE SMOOTH",
"340 346 OFFCURVE",
"312 377 OFFCURVE",
"273 377 CURVE SMOOTH",
"232 377 OFFCURVE",
"208 342 OFFCURVE",
"208 308 CURVE",
"232 300 LINE",
"225 328 OFFCURVE",
"247 349 OFFCURVE",
"269 349 CURVE SMOOTH",
"295 349 OFFCURVE",
"306 328 OFFCURVE",
"306 308 CURVE SMOOTH",
"306 286 OFFCURVE",
"289 272 OFFCURVE",
"270 272 CURVE SMOOTH",
"249 272 OFFCURVE",
"229 284 OFFCURVE",
"229 323 CURVE SMOOTH",
"229 430 OFFCURVE",
"381 566 OFFCURVE",
"447 566 CURVE SMOOTH",
"481 566 OFFCURVE",
"482 531 OFFCURVE",
"483 468 CURVE SMOOTH",
"484 398 OFFCURVE",
"487 71 OFFCURVE",
"488 42 CURVE SMOOTH",
"489 -3 OFFCURVE",
"498 -11 OFFCURVE",
"507 -11 CURVE SMOOTH"
);
},
{
closed = 1;
nodes = (
"521 -12 OFFCURVE",
"525 1 OFFCURVE",
"525 16 CURVE SMOOTH",
"525 73 OFFCURVE",
"466 137 OFFCURVE",
"379 137 CURVE SMOOTH",
"320 137 OFFCURVE",
"278 107 OFFCURVE",
"216 107 CURVE SMOOTH",
"141 107 OFFCURVE",
"72 152 OFFCURVE",
"72 241 CURVE SMOOTH",
"72 305 OFFCURVE",
"107 341 OFFCURVE",
"107 364 CURVE SMOOTH",
"107 375 OFFCURVE",
"100 380 OFFCURVE",
"92 380 CURVE SMOOTH",
"62 380 OFFCURVE",
"37 300 OFFCURVE",
"37 243 CURVE SMOOTH",
"37 139 OFFCURVE",
"118 65 OFFCURVE",
"216 65 CURVE SMOOTH",
"283 65 OFFCURVE",
"319 99 OFFCURVE",
"387 99 CURVE SMOOTH",
"432 99 OFFCURVE",
"477 84 OFFCURVE",
"487 27 CURVE SMOOTH",
"490 9 OFFCURVE",
"491 -12 OFFCURVE",
"508 -12 CURVE SMOOTH"
);
}
);
width = 598;
}
);
note = uni098F;
unicode = 098F;
},
{
color = 3;
glyphname = uni0990;
lastChange = "2015-10-07 10:01:48 +0000";
layers = (
{
background = {
paths = (
{
closed = 1;
nodes = (
"30 292 OFFCURVE",
"41 329 OFFCURVE",
"64 362 CURVE",
"83 350 LINE",
"68 323 OFFCURVE",
"60 293 OFFCURVE",
"60 259 CURVE SMOOTH",
"60 195 OFFCURVE",
"112 143 OFFCURVE",
"176 143 CURVE SMOOTH",
"193 143 OFFCURVE",
"219 145 OFFCURVE",
"253 148 CURVE SMOOTH",
"287 151 OFFCURVE",
"313 153 OFFCURVE",
"330 153 CURVE SMOOTH",
"357 153 OFFCURVE",
"385 135 OFFCURVE",
"405 106 CURVE",
"405 419 LINE SMOOTH",
"405 434 OFFCURVE",
"396 446 OFFCURVE",
"387 446 CURVE SMOOTH",
"342 446 OFFCURVE",
"250 363 OFFCURVE",
"250 323 CURVE SMOOTH",
"250 318 OFFCURVE",
"251 315 OFFCURVE",
"252 313 CURVE",
"255 318 OFFCURVE",
"265 321 OFFCURVE",
"278 321 CURVE SMOOTH",
"311 321 OFFCURVE",
"339 294 OFFCURVE",
"339 262 CURVE SMOOTH",
"339 230 OFFCURVE",
"307 203 OFFCURVE",
"268 203 CURVE SMOOTH",
"219 203 OFFCURVE",
"179 247 OFFCURVE",
"179 300 CURVE SMOOTH",
"179 383 OFFCURVE",
"290 500 OFFCURVE",
"367 500 CURVE SMOOTH",
"399 500 OFFCURVE",
"450 457 OFFCURVE",
"450 429 CURVE SMOOTH",
"450 391 LINE",
"477 391 OFFCURVE",
"499 413 OFFCURVE",
"499 438 CURVE SMOOTH",
"499 485 OFFCURVE",
"433 536 OFFCURVE",
"337 561 CURVE SMOOTH",
"237 588 OFFCURVE",
"167 636 OFFCURVE",
"167 677 CURVE SMOOTH",
"167 705 OFFCURVE",
"178 732 OFFCURVE",
"198 748 CURVE",
"244 737 LINE",
"215 726 OFFCURVE",
"196 708 OFFCURVE",
"196 691 CURVE SMOOTH",
"196 676 OFFCURVE",
"213 661 OFFCURVE",
"247 648 CURVE",
"378 609 LINE SMOOTH",
"466 585 OFFCURVE",
"528 519 OFFCURVE",
"528 448 CURVE SMOOTH",
"528 407 OFFCURVE",
"512 372 OFFCURVE",
"487 357 CURVE SMOOTH",
"464 344 OFFCURVE",
"450 326 OFFCURVE",
"450 310 CURVE SMOOTH",
"450 -23 LINE",
"425 1 LINE",
"425 46 OFFCURVE",
"394 84 OFFCURVE",
"357 84 CURVE SMOOTH",
"340 84 OFFCURVE",
"314 82 OFFCURVE",
"281 79 CURVE SMOOTH",
"247 76 OFFCURVE",
"221 74 OFFCURVE",
"204 74 CURVE SMOOTH",
"108 74 OFFCURVE",
"30 153 OFFCURVE",
"30 250 CURVE SMOOTH"
);
}
);
};
layerId = "4AE238AB-6A4C-459B-8E99-4D2856E6BBFA";
name = Regular;
paths = (
{
closed = 1;
nodes = (
"519 -11 OFFCURVE",
"522 2 OFFCURVE",
"522 42 CURVE SMOOTH",
"522 176 OFFCURVE",
"522 397 OFFCURVE",
"522 468 CURVE SMOOTH",
"522 539 OFFCURVE",
"507 595 OFFCURVE",
"449 595 CURVE SMOOTH",
"354 595 OFFCURVE",
"192 443 OFFCURVE",
"192 325 CURVE SMOOTH",
"192 274 OFFCURVE",
"222 240 OFFCURVE",
"271 240 CURVE SMOOTH",
"305 240 OFFCURVE",
"340 263 OFFCURVE",
"340 307 CURVE SMOOTH",
"340 346 OFFCURVE",
"312 377 OFFCURVE",
"273 377 CURVE SMOOTH",
"232 377 OFFCURVE",
"208 342 OFFCURVE",
"208 308 CURVE",
"232 300 LINE",
"225 328 OFFCURVE",
"247 349 OFFCURVE",
"269 349 CURVE SMOOTH",
"295 349 OFFCURVE",
"306 328 OFFCURVE",
"306 308 CURVE SMOOTH",
"306 286 OFFCURVE",
"289 272 OFFCURVE",
"270 272 CURVE SMOOTH",
"249 272 OFFCURVE",
"229 284 OFFCURVE",
"229 323 CURVE SMOOTH",
"229 430 OFFCURVE",
"381 566 OFFCURVE",
"447 566 CURVE SMOOTH",
"481 566 OFFCURVE",
"482 531 OFFCURVE",
"483 468 CURVE SMOOTH",
"484 398 OFFCURVE",
"487 71 OFFCURVE",
"488 42 CURVE SMOOTH",
"489 -3 OFFCURVE",
"498 -11 OFFCURVE",
"507 -11 CURVE SMOOTH"
);
},
{
closed = 1;
nodes = (
"521 -12 OFFCURVE",
"525 1 OFFCURVE",
"525 16 CURVE SMOOTH",
"525 73 OFFCURVE",
"466 137 OFFCURVE",
"379 137 CURVE SMOOTH",
"320 137 OFFCURVE",
"278 107 OFFCURVE",
"216 107 CURVE SMOOTH",
"141 107 OFFCURVE",
"72 152 OFFCURVE",
"72 241 CURVE SMOOTH",
"72 305 OFFCURVE",
"107 341 OFFCURVE",
"107 364 CURVE SMOOTH",
"107 375 OFFCURVE",
"100 380 OFFCURVE",
"92 380 CURVE SMOOTH",
"62 380 OFFCURVE",
"37 300 OFFCURVE",
"37 243 CURVE SMOOTH",
"37 139 OFFCURVE",
"118 65 OFFCURVE",
"216 65 CURVE SMOOTH",
"283 65 OFFCURVE",
"319 99 OFFCURVE",
"387 99 CURVE SMOOTH",
"432 99 OFFCURVE",
"477 84 OFFCURVE",
"487 27 CURVE SMOOTH",
"490 9 OFFCURVE",
"491 -12 OFFCURVE",
"508 -12 CURVE SMOOTH"
);
},
{
closed = 1;
nodes = (
"599 317 OFFCURVE",
"666 395 OFFCURVE",
"666 501 CURVE SMOOTH",
"666 636 OFFCURVE",
"559 680 OFFCURVE",
"408 739 CURVE SMOOTH",
"343 765 OFFCURVE",
"299 797 OFFCURVE",
"297 870 CURVE SMOOTH",
"297 881 OFFCURVE",
"296 893 OFFCURVE",
"282 893 CURVE SMOOTH",
"264 893 OFFCURVE",
"261 876 OFFCURVE",
"261 858 CURVE SMOOTH",
"261 786 OFFCURVE",
"308 748 OFFCURVE",
"406 705 CURVE SMOOTH",
"519 655 OFFCURVE",
"635 624 OFFCURVE",
"635 503 CURVE SMOOTH",
"635 425 OFFCURVE",
"587 363 OFFCURVE",
"495 330 CURVE",
"508 291 LINE"
);
}
);
width = 700;
}
);
note = uni0990;
unicode = 0990;
},
{
color = 3;
glyphname = uni0993;
lastChange = "2015-10-07 10:02:07 +0000";
layers = (
{
background = {
paths = (
{
closed = 1;
nodes = (
"53 409 LINE",
"101 229 OFFCURVE",
"218 103 OFFCURVE",
"338 103 CURVE SMOOTH",
"398 103 OFFCURVE",
"446 142 OFFCURVE",
"446 190 CURVE SMOOTH",
"446 214 OFFCURVE",
"435 237 OFFCURVE",
"418 252 CURVE",
"407 237 OFFCURVE",
"389 228 OFFCURVE",
"368 228 CURVE SMOOTH",
"332 228 OFFCURVE",
"302 258 OFFCURVE",
"302 295 CURVE SMOOTH",
"302 331 OFFCURVE",
"332 361 OFFCURVE",
"368 361 CURVE SMOOTH",
"383 361 OFFCURVE",
"395 356 OFFCURVE",
"403 347 CURVE",
"418 364 OFFCURVE",
"426 386 OFFCURVE",
"426 409 CURVE SMOOTH",
"426 434 OFFCURVE",
"400 456 OFFCURVE",
"368 456 CURVE SMOOTH",
"313 456 OFFCURVE",
"261 426 OFFCURVE",
"232 375 CURVE",
"255 368 OFFCURVE",
"271 346 OFFCURVE",
"271 319 CURVE SMOOTH",
"271 291 OFFCURVE",
"248 268 OFFCURVE",
"219 268 CURVE SMOOTH",
"183 268 OFFCURVE",
"153 300 OFFCURVE",
"153 339 CURVE SMOOTH",
"153 428 OFFCURVE",
"240 500 OFFCURVE",
"348 500 CURVE SMOOTH",
"415 500 OFFCURVE",
"469 460 OFFCURVE",
"469 409 CURVE SMOOTH",
"469 366 OFFCURVE",
"449 327 OFFCURVE",
"416 300 CURVE",
"461 277 OFFCURVE",
"489 227 OFFCURVE",
"489 171 CURVE SMOOTH",
"489 94 OFFCURVE",
"422 30 OFFCURVE",
"338 30 CURVE SMOOTH",
"205 30 OFFCURVE",
"72 199 OFFCURVE",
"17 438 CURVE"
);
}
);
};
layerId = "4AE238AB-6A4C-459B-8E99-4D2856E6BBFA";
name = Regular;
paths = (
{
closed = 1;
nodes = (
"31 305 OFFCURVE",
"166 52 OFFCURVE",
"351 52 CURVE SMOOTH",
"427 52 OFFCURVE",
"529 94 OFFCURVE",
"529 215 CURVE SMOOTH",
"529 338 OFFCURVE",
"422 382 OFFCURVE",
"372 382 CURVE SMOOTH",
"332 382 OFFCURVE",
"306 353 OFFCURVE",
"306 321 CURVE SMOOTH",
"306 287 OFFCURVE",
"336 263 OFFCURVE",
"370 263 CURVE SMOOTH",
"439 263 OFFCURVE",
"496 361 OFFCURVE",
"496 444 CURVE SMOOTH",
"496 535 OFFCURVE",
"429 597 OFFCURVE",
"340 597 CURVE SMOOTH",
"233 597 OFFCURVE",
"142 506 OFFCURVE",
"142 422 CURVE SMOOTH",
"142 374 OFFCURVE",
"172 343 OFFCURVE",
"214 343 CURVE SMOOTH",
"255 343 OFFCURVE",
"287 372 OFFCURVE",
"287 415 CURVE SMOOTH",
"287 465 OFFCURVE",
"245 482 OFFCURVE",
"219 482 CURVE SMOOTH",
"190 482 OFFCURVE",
"157 460 OFFCURVE",
"157 421 CURVE",
"180 409 LINE",
"180 451 OFFCURVE",
"205 455 OFFCURVE",
"216 455 CURVE SMOOTH",
"237 455 OFFCURVE",
"251 440 OFFCURVE",
"251 417 CURVE SMOOTH",
"251 393 OFFCURVE",
"235 379 OFFCURVE",
"214 379 CURVE SMOOTH",
"195 379 OFFCURVE",
"180 392 OFFCURVE",
"180 421 CURVE SMOOTH",
"180 489 OFFCURVE",
"261 564 OFFCURVE",
"350 564 CURVE SMOOTH",
"415 564 OFFCURVE",
"455 525 OFFCURVE",
"455 450 CURVE SMOOTH",
"455 374 OFFCURVE",
"415 301 OFFCURVE",
"371 301 CURVE SMOOTH",
"336 301 OFFCURVE",
"338 349 OFFCURVE",
"377 349 CURVE SMOOTH",
"405 349 OFFCURVE",
"491 325 OFFCURVE",
"491 226 CURVE SMOOTH",
"491 138 OFFCURVE",
"422 96 OFFCURVE",
"345 96 CURVE SMOOTH",
"178 96 OFFCURVE",
"68 325 OFFCURVE",
"53 456 CURVE SMOOTH",
"51 475 OFFCURVE",
"44 490 OFFCURVE",
"33 489 CURVE SMOOTH",
"23 488 OFFCURVE",
"19 478 OFFCURVE",
"21 453 CURVE SMOOTH"
);
}
);
width = 577;
}
);
note = uni0993;
unicode = 0993;
},
{
color = 3;
glyphname = uni0994;
lastChange = "2015-10-07 10:02:27 +0000";
layers = (
{
background = {
paths = (
{
closed = 1;
nodes = (
"54 409 LINE",
"102 229 OFFCURVE",
"219 103 OFFCURVE",
"339 103 CURVE SMOOTH",
"399 103 OFFCURVE",
"447 142 OFFCURVE",
"447 190 CURVE SMOOTH",
"447 214 OFFCURVE",
"436 237 OFFCURVE",
"419 252 CURVE",
"408 237 OFFCURVE",
"390 228 OFFCURVE",
"369 228 CURVE SMOOTH",
"333 228 OFFCURVE",
"303 258 OFFCURVE",
"303 295 CURVE SMOOTH",
"303 331 OFFCURVE",
"333 361 OFFCURVE",
"369 361 CURVE SMOOTH",
"384 361 OFFCURVE",
"396 356 OFFCURVE",
"404 347 CURVE",
"419 364 OFFCURVE",
"427 386 OFFCURVE",
"427 409 CURVE SMOOTH",
"427 434 OFFCURVE",
"401 456 OFFCURVE",
"369 456 CURVE SMOOTH",
"314 456 OFFCURVE",
"262 426 OFFCURVE",
"233 375 CURVE",
"256 368 OFFCURVE",
"272 346 OFFCURVE",
"272 319 CURVE SMOOTH",
"272 291 OFFCURVE",
"249 268 OFFCURVE",
"220 268 CURVE SMOOTH",
"184 268 OFFCURVE",
"154 300 OFFCURVE",
"154 339 CURVE SMOOTH",
"154 428 OFFCURVE",
"241 500 OFFCURVE",
"349 500 CURVE SMOOTH",
"414 500 OFFCURVE",
"468 458 OFFCURVE",
"468 406 CURVE SMOOTH",
"468 397 OFFCURVE",
"463 380 OFFCURVE",
"454 355 CURVE",
"477 371 OFFCURVE",
"491 404 OFFCURVE",
"491 443 CURVE SMOOTH",
"491 494 OFFCURVE",
"429 546 OFFCURVE",
"338 570 CURVE",
"223 590 OFFCURVE",
"139 639 OFFCURVE",
"139 687 CURVE SMOOTH",
"139 714 OFFCURVE",
"151 736 OFFCURVE",
"171 748 CURVE",
"225 726 LINE",
"193 723 OFFCURVE",
"168 711 OFFCURVE",
"168 696 CURVE SMOOTH",
"168 675 OFFCURVE",
"220 651 OFFCURVE",
"324 624 CURVE SMOOTH",
"380 609 LINE SMOOTH",
"463 586 OFFCURVE",
"520 529 OFFCURVE",
"520 468 CURVE SMOOTH",
"520 396 OFFCURVE",
"484 330 OFFCURVE",
"427 295 CURVE",
"467 264 OFFCURVE",
"490 218 OFFCURVE",
"490 171 CURVE SMOOTH",
"490 94 OFFCURVE",
"423 30 OFFCURVE",
"340 30 CURVE SMOOTH",
"207 30 OFFCURVE",
"72 199 OFFCURVE",
"17 438 CURVE"
);
}
);
};
layerId = "4AE238AB-6A4C-459B-8E99-4D2856E6BBFA";
name = Regular;
paths = (
{
closed = 1;
nodes = (
"31 305 OFFCURVE",
"166 52 OFFCURVE",
"351 52 CURVE SMOOTH",
"427 52 OFFCURVE",
"529 94 OFFCURVE",
"529 215 CURVE SMOOTH",
"529 338 OFFCURVE",
"422 382 OFFCURVE",
"372 382 CURVE SMOOTH",
"332 382 OFFCURVE",
"306 353 OFFCURVE",
"306 321 CURVE SMOOTH",
"306 287 OFFCURVE",
"336 263 OFFCURVE",
"370 263 CURVE SMOOTH",
"439 263 OFFCURVE",
"496 361 OFFCURVE",
"496 444 CURVE SMOOTH",
"496 535 OFFCURVE",
"429 597 OFFCURVE",
"340 597 CURVE SMOOTH",
"233 597 OFFCURVE",
"142 506 OFFCURVE",
"142 422 CURVE SMOOTH",
"142 374 OFFCURVE",
"172 343 OFFCURVE",
"214 343 CURVE SMOOTH",
"255 343 OFFCURVE",
"287 372 OFFCURVE",
"287 415 CURVE SMOOTH",
"287 465 OFFCURVE",
"245 482 OFFCURVE",
"219 482 CURVE SMOOTH",
"190 482 OFFCURVE",
"157 460 OFFCURVE",
"157 421 CURVE",
"180 409 LINE",
"180 451 OFFCURVE",
"205 455 OFFCURVE",
"216 455 CURVE SMOOTH",
"237 455 OFFCURVE",
"251 440 OFFCURVE",
"251 417 CURVE SMOOTH",
"251 393 OFFCURVE",
"235 379 OFFCURVE",
"214 379 CURVE SMOOTH",
"195 379 OFFCURVE",
"180 392 OFFCURVE",
"180 421 CURVE SMOOTH",
"180 489 OFFCURVE",
"261 564 OFFCURVE",
"350 564 CURVE SMOOTH",
"415 564 OFFCURVE",
"455 525 OFFCURVE",
"455 450 CURVE SMOOTH",
"455 374 OFFCURVE",
"415 301 OFFCURVE",
"371 301 CURVE SMOOTH",
"336 301 OFFCURVE",
"338 349 OFFCURVE",
"377 349 CURVE SMOOTH",
"405 349 OFFCURVE",
"491 325 OFFCURVE",
"491 226 CURVE SMOOTH",
"491 138 OFFCURVE",
"422 96 OFFCURVE",
"345 96 CURVE SMOOTH",
"178 96 OFFCURVE",
"68 325 OFFCURVE",
"53 456 CURVE SMOOTH",
"51 475 OFFCURVE",
"44 490 OFFCURVE",
"33 489 CURVE SMOOTH",
"23 488 OFFCURVE",
"19 478 OFFCURVE",
"21 453 CURVE SMOOTH"
);
},
{
closed = 1;
nodes = (
"547 311 OFFCURVE",
"629 377 OFFCURVE",
"629 505 CURVE SMOOTH",
"629 634 OFFCURVE",
"516 682 OFFCURVE",
"368 739 CURVE SMOOTH",
"300 765 OFFCURVE",
"260 799 OFFCURVE",
"257 870 CURVE SMOOTH",
"257 881 OFFCURVE",
"256 893 OFFCURVE",
"242 893 CURVE SMOOTH",
"224 893 OFFCURVE",
"221 876 OFFCURVE",
"221 858 CURVE SMOOTH",
"221 784 OFFCURVE",
"272 746 OFFCURVE",
"366 705 CURVE SMOOTH",
"484 653 OFFCURVE",
"598 623 OFFCURVE",
"598 502 CURVE SMOOTH",
"598 424 OFFCURVE",
"544 347 OFFCURVE",
"466 347 CURVE",
"466 311 LINE"
);
}
);
width = 683;
}
);
note = uni0994;
unicode = 0994;
},
{
color = 3;
glyphname = uni0995;
lastChange = "2015-10-07 10:43:42 +0000";
layers = (
{
background = {
paths = (
{
closed = 1;
nodes = (
"240 370 OFFCURVE",
"151 324 OFFCURVE",
"76 250 CURVE",
"61 278 LINE",
"172 252 OFFCURVE",
"269 162 OFFCURVE",
"308 63 CURVE",
"291 67 LINE",
"291 468 LINE",
"331 468 LINE",
"331 0 LINE",
"306 0 LINE",
"285 109 OFFCURVE",
"190 195 OFFCURVE",
"68 217 CURVE",
"23 279 LINE",
"109 364 OFFCURVE",
"226 422 OFFCURVE",
"316 422 CURVE SMOOTH",
"425 422 OFFCURVE",
"499 337 OFFCURVE",
"499 250 CURVE SMOOTH",
"499 193 OFFCURVE",
"468 153 OFFCURVE",
"430 153 CURVE SMOOTH",
"402 153 OFFCURVE",
"377 175 OFFCURVE",
"377 203 CURVE SMOOTH",
"377 229 OFFCURVE",
"398 250 OFFCURVE",
"426 250 CURVE SMOOTH",
"456 250 OFFCURVE",
"476 226 OFFCURVE",
"477 196 CURVE",
"445 195 LINE",
"460 208 OFFCURVE",
"472 230 OFFCURVE",
"472 258 CURVE SMOOTH",
"472 316 OFFCURVE",
"420 370 OFFCURVE",
"327 370 CURVE SMOOTH"
);
},
{
closed = 1;
nodes = (
"-10 456 LINE",
"-10 491 LINE",
"546 491 LINE",
"546 456 LINE"
);
}
);
};
layerId = "4AE238AB-6A4C-459B-8E99-4D2856E6BBFA";
name = Regular;
paths = (
{
closed = 1;
nodes = (
"349 -12 OFFCURVE",
"358 -2 OFFCURVE",
"358 28 CURVE SMOOTH",
"358 42 OFFCURVE",
"356 56 OFFCURVE",
"353 69 CURVE",
"353 268 OFFCURVE",
"354 374 OFFCURVE",
"357 449 CURVE",
"369 434 LINE SMOOTH",
"404 393 OFFCURVE",
"495 397 OFFCURVE",
"547 360 CURVE SMOOTH",
"578 338 OFFCURVE",
"595 302 OFFCURVE",
"595 270 CURVE SMOOTH",
"595 259 OFFCURVE",
"593 248 OFFCURVE",
"589 239 CURVE",
"588 266 OFFCURVE",
"564 292 OFFCURVE",
"527 292 CURVE SMOOTH",
"491 292 OFFCURVE",
"466 268 OFFCURVE",
"466 234 CURVE SMOOTH",
"466 199 OFFCURVE",
"493 172 OFFCURVE",
"534 172 CURVE SMOOTH",
"590 172 OFFCURVE",
"624 223 OFFCURVE",
"624 279 CURVE SMOOTH",
"624 320 OFFCURVE",
"606 363 OFFCURVE",
"565 390 CURVE SMOOTH",
"508 428 OFFCURVE",
"431 418 OFFCURVE",
"389 454 CURVE SMOOTH",
"365 475 OFFCURVE",
"363 498 OFFCURVE",
"363 533 CURVE SMOOTH",
"363 542 OFFCURVE",
"363 552 OFFCURVE",
"363 563 CURVE",
"373 557 OFFCURVE",
"388 554 OFFCURVE",
"403 554 CURVE SMOOTH",
"665 554 LINE SMOOTH",
"672 554 OFFCURVE",
"680 559 OFFCURVE",
"680 570 CURVE SMOOTH",
"680 579 OFFCURVE",
"674 587 OFFCURVE",
"665 587 CURVE SMOOTH",
"389 587 LINE SMOOTH",
"356 587 OFFCURVE",
"368 609 OFFCURVE",
"354 609 CURVE SMOOTH",
"341 609 OFFCURVE",
"334 591 OFFCURVE",
"328 542 CURVE",
"313 571 OFFCURVE",
"281 587 OFFCURVE",
"234 587 CURVE SMOOTH",
"-25 587 LINE SMOOTH",
"-32 587 OFFCURVE",
"-40 582 OFFCURVE",
"-40 571 CURVE SMOOTH",
"-40 562 OFFCURVE",
"-34 554 OFFCURVE",
"-25 554 CURVE SMOOTH",
"240 554 LINE SMOOTH",
"286 554 OFFCURVE",
"311 533 OFFCURVE",
"311 511 CURVE SMOOTH",
"311 482 OFFCURVE",
"266 468 OFFCURVE",
"208 438 CURVE SMOOTH",
"140 403 OFFCURVE",
"34 349 OFFCURVE",
"13 330 CURVE SMOOTH",
"6 324 OFFCURVE",
"2 316 OFFCURVE",
"2 307 CURVE SMOOTH",
"2 294 OFFCURVE",
"12 280 OFFCURVE",
"30 273 CURVE SMOOTH",
"49 266 OFFCURVE",
"135 242 OFFCURVE",
"208 196 CURVE SMOOTH",
"266 160 OFFCURVE",
"316 109 OFFCURVE",
"317 42 CURVE SMOOTH",
"317 20 OFFCURVE",
"319 -12 OFFCURVE",
"338 -12 CURVE SMOOTH"
);
},
{
closed = 1;
nodes = (
"291 176 OFFCURVE",
"254 207 OFFCURVE",
"210 234 CURVE SMOOTH",
"160 265 OFFCURVE",
"100 290 OFFCURVE",
"36 308 CURVE",
"150 376 OFFCURVE",
"146 370 OFFCURVE",
"245 421 CURVE SMOOTH",
"288 443 OFFCURVE",
"309 455 OFFCURVE",
"322 468 CURVE",
"318 386 OFFCURVE",
"317 273 OFFCURVE",
"317 141 CURVE"
);
},
{
closed = 1;
nodes = (
"512 198 OFFCURVE",
"500 216 OFFCURVE",
"500 232 CURVE SMOOTH",
"500 249 OFFCURVE",
"512 263 OFFCURVE",
"531 263 CURVE SMOOTH",
"550 263 OFFCURVE",
"564 250 OFFCURVE",
"564 230 CURVE SMOOTH",
"564 207 OFFCURVE",
"546 198 OFFCURVE",
"532 198 CURVE SMOOTH"
);
}
);
width = 660;
}
);
note = uni0995;
unicode = 0995;
},
{
color = 3;
glyphname = uni0996;
lastChange = "2015-10-07 10:03:25 +0000";
layers = (
{
background = {
paths = (
{
closed = 1;
nodes = (
"271 357 OFFCURVE",
"184 310 OFFCURVE",
"115 253 CURVE",
"112 273 LINE",
"200 247 OFFCURVE",
"305 173 OFFCURVE",
"344 79 CURVE",
"335 72 LINE",
"335 466 LINE",
"375 466 LINE",
"375 0 LINE",
"350 0 LINE",
"330 118 OFFCURVE",
"215 197 OFFCURVE",
"108 214 CURVE",
"56 283 LINE",
"144 355 OFFCURVE",
"266 416 OFFCURVE",
"353 436 CURVE",
"359 384 LINE"
);
},
{
closed = 1;
nodes = (
"21 456 LINE",
"21 491 LINE",
"455 491 LINE",
"455 456 LINE"
);
}
);
};
layerId = "4AE238AB-6A4C-459B-8E99-4D2856E6BBFA";
name = Regular;
paths = (
{
closed = 0;
nodes = (
"414 22 LINE"
);
},
{
closed = 1;
nodes = (
"80 423 LINE",
"122 418 OFFCURVE",
"154 445 OFFCURVE",
"154 485 CURVE SMOOTH",
"154 526 OFFCURVE",
"119 545 OFFCURVE",
"89 545 CURVE SMOOTH",
"56 545 OFFCURVE",
"26 522 OFFCURVE",
"26 483 CURVE SMOOTH",
"26 403 OFFCURVE",
"149 387 OFFCURVE",
"210 421 CURVE SMOOTH",
"239 437 OFFCURVE",
"274 477 OFFCURVE",
"264 535 CURVE",
"283 518 OFFCURVE",
"306 491 OFFCURVE",
"305 443 CURVE SMOOTH",
"304 328 OFFCURVE",
"182 317 OFFCURVE",
"116 312 CURVE SMOOTH",
"76 309 OFFCURVE",
"80 272 OFFCURVE",
"118 267 CURVE SMOOTH",
"208 254 OFFCURVE",
"403 132 OFFCURVE",
"403 42 CURVE SMOOTH",
"403 19 OFFCURVE",
"405 -12 OFFCURVE",
"424 -12 CURVE SMOOTH",
"435 -12 OFFCURVE",
"443 -1 OFFCURVE",
"443 22 CURVE SMOOTH",
"443 180 OFFCURVE",
"198 292 OFFCURVE",
"153 292 CURVE",
"145 282 LINE",
"262 282 OFFCURVE",
"340 352 OFFCURVE",
"340 448 CURVE SMOOTH",
"339 562 OFFCURVE",
"223 611 OFFCURVE",
"228 567 CURVE SMOOTH",
"231 535 OFFCURVE",
"239 477 OFFCURVE",
"197 449 CURVE SMOOTH",
"151 418 OFFCURVE",
"54 434 OFFCURVE",
"54 482 CURVE SMOOTH",
"54 499 OFFCURVE",
"67 514 OFFCURVE",
"88 514 CURVE SMOOTH",
"108 514 OFFCURVE",
"122 499 OFFCURVE",
"122 481 CURVE SMOOTH",
"122 454 OFFCURVE",
"93 436 OFFCURVE",
"68 453 CURVE"
);
},
{
closed = 1;
nodes = (
"445 -12 OFFCURVE",
"439 23 OFFCURVE",
"439 71 CURVE SMOOTH",
"439 409 OFFCURVE",
"443 492 OFFCURVE",
"451 583 CURVE SMOOTH",
"452 597 OFFCURVE",
"450 609 OFFCURVE",
"438 609 CURVE SMOOTH",
"403 609 OFFCURVE",
"403 380 OFFCURVE",
"403 71 CURVE SMOOTH",
"403 23 OFFCURVE",
"403 -12 OFFCURVE",
"424 -12 CURVE SMOOTH"
);
},
{
closed = 1;
nodes = (
"568 582 OFFCURVE",
"559 587 OFFCURVE",
"550 587 CURVE SMOOTH",
"538 587 OFFCURVE",
"513 587 OFFCURVE",
"492 587 CURVE SMOOTH",
"460 587 OFFCURVE",
"455 587 OFFCURVE",
"450 599 CURVE SMOOTH",
"447 606 OFFCURVE",
"437 602 OFFCURVE",
"437 592 CURVE SMOOTH",
"437 576 OFFCURVE",
"455 554 OFFCURVE",
"487 554 CURVE SMOOTH",
"550 554 LINE SMOOTH",
"559 554 OFFCURVE",
"568 558 OFFCURVE",
"568 571 CURVE SMOOTH"
);
}
);
width = 540;
}
);
note = uni0996;
unicode = 0996;
},
{
color = 3;
glyphname = uni0997;
lastChange = "2015-10-07 10:03:48 +0000";
layers = (
{
background = {
paths = (
{
closed = 1;
nodes = (
"373 559 LINE",
"373 527 OFFCURVE",
"390 500 OFFCURVE",
"411 500 CURVE SMOOTH",
"444 500 LINE",
"474 456 LINE",
"394 456 LINE",
"394 -3 LINE",
"349 41 LINE",
"349 300 LINE SMOOTH",
"349 376 OFFCURVE",
"280 437 OFFCURVE",
"193 437 CURVE SMOOTH",
"134 437 OFFCURVE",
"87 396 OFFCURVE",
"95 352 CURVE",
"117 365 OFFCURVE",
"140 371 OFFCURVE",
"163 371 CURVE SMOOTH",
"216 371 OFFCURVE",
"259 317 OFFCURVE",
"259 250 CURVE SMOOTH",
"259 205 OFFCURVE",
"230 150 OFFCURVE",
"178 98 CURVE",
"120 151 LINE",
"179 210 OFFCURVE",
"211 263 OFFCURVE",
"211 300 CURVE SMOOTH",
"211 315 OFFCURVE",
"194 327 OFFCURVE",
"173 327 CURVE SMOOTH",
"159 327 OFFCURVE",
"141 319 OFFCURVE",
"118 302 CURVE SMOOTH",
"96 286 OFFCURVE",
"78 278 OFFCURVE",
"64 278 CURVE SMOOTH",
"41 278 OFFCURVE",
"22 306 OFFCURVE",
"22 339 CURVE SMOOTH",
"22 428 OFFCURVE",
"98 500 OFFCURVE",
"193 500 CURVE SMOOTH",
"254 500 OFFCURVE",
"314 452 OFFCURVE",
"349 379 CURVE",
"349 582 LINE"
);
}
);
};
layerId = "4AE238AB-6A4C-459B-8E99-4D2856E6BBFA";
name = Regular;
paths = (
{
closed = 1;
nodes = (
"188 131 OFFCURVE",
"299 206 OFFCURVE",
"299 302 CURVE SMOOTH",
"299 344 OFFCURVE",
"277 398 OFFCURVE",
"218 398 CURVE SMOOTH",
"178 398 OFFCURVE",
"146 373 OFFCURVE",
"112 373 CURVE SMOOTH",
"78 373 OFFCURVE",
"57 399 OFFCURVE",
"57 438 CURVE SMOOTH",
"57 504 OFFCURVE",
"119 554 OFFCURVE",
"202 554 CURVE SMOOTH",
"327 554 OFFCURVE",
"410 431 OFFCURVE",
"410 280 CURVE",
"434 304 LINE",
"434 476 OFFCURVE",
"329 588 OFFCURVE",
"198 588 CURVE SMOOTH",
"95 588 OFFCURVE",
"19 519 OFFCURVE",
"19 439 CURVE SMOOTH",
"19 382 OFFCURVE",
"56 338 OFFCURVE",
"114 338 CURVE SMOOTH",
"158 338 OFFCURVE",
"191 365 OFFCURVE",
"220 365 CURVE SMOOTH",
"250 365 OFFCURVE",
"265 336 OFFCURVE",
"265 308 CURVE SMOOTH",
"265 226 OFFCURVE",
"163 174 OFFCURVE",
"132 158 CURVE SMOOTH",
"115 149 OFFCURVE",
"104 142 OFFCURVE",
"106 128 CURVE SMOOTH",
"108 114 OFFCURVE",
"121 110 OFFCURVE",
"143 117 CURVE SMOOTH"
);
},
{
closed = 1;
nodes = (
"451 -12 OFFCURVE",
"445 23 OFFCURVE",
"445 71 CURVE SMOOTH",
"445 409 OFFCURVE",
"449 492 OFFCURVE",
"457 583 CURVE SMOOTH",
"458 597 OFFCURVE",
"456 609 OFFCURVE",
"444 609 CURVE SMOOTH",
"409 609 OFFCURVE",
"409 380 OFFCURVE",
"409 71 CURVE SMOOTH",
"409 23 OFFCURVE",
"409 -12 OFFCURVE",
"430 -12 CURVE SMOOTH"
);
},
{
closed = 1;
nodes = (
"574 582 OFFCURVE",
"565 587 OFFCURVE",
"556 587 CURVE SMOOTH",
"544 587 OFFCURVE",
"519 587 OFFCURVE",
"498 587 CURVE SMOOTH",
"466 587 OFFCURVE",
"461 587 OFFCURVE",
"456 599 CURVE SMOOTH",
"453 606 OFFCURVE",
"443 602 OFFCURVE",
"443 592 CURVE SMOOTH",
"443 576 OFFCURVE",
"461 554 OFFCURVE",
"493 554 CURVE SMOOTH",
"556 554 LINE SMOOTH",
"565 554 OFFCURVE",
"574 558 OFFCURVE",
"574 571 CURVE SMOOTH"
);
}
);
width = 549;
}
);
note = uni0997;
unicode = 0997;
},
{
color = 3;
glyphname = uni0998;
lastChange = "2015-10-07 10:04:06 +0000";
layers = (
{
background = {
paths = (
{
closed = 1;
nodes = (
"101 456 LINE",
"100 482 LINE",
"155 441 OFFCURVE",
"206 394 OFFCURVE",
"252 341 CURVE",
"102 227 LINE",
"95 254 LINE",
"207 221 OFFCURVE",
"291 150 OFFCURVE",
"327 75 CURVE",
"317 72 LINE",
"317 467 LINE",
"357 467 LINE",
"357 0 LINE",
"332 0 LINE",
"310 107 OFFCURVE",
"219 175 OFFCURVE",
"97 198 CURVE",
"50 260 LINE",
"206 375 LINE",
"209 347 LINE",
"173 390 OFFCURVE",
"149 407 OFFCURVE",
"109 418 CURVE SMOOTH",
"64 430 OFFCURVE",
"41 444 OFFCURVE",
"40 477 CURVE",
"91 456 LINE",
"13 456 LINE",
"13 491 LINE",
"437 491 LINE",
"437 456 LINE"
);
}
);
};
layerId = "4AE238AB-6A4C-459B-8E99-4D2856E6BBFA";
name = Regular;
paths = (
{
closed = 1;
nodes = (
"417 -12 OFFCURVE",
"426 -3 OFFCURVE",
"426 25 CURVE SMOOTH",
"426 132 OFFCURVE",
"257 235 OFFCURVE",
"116 278 CURVE",
"120 268 LINE",
"163 299 OFFCURVE",
"278 378 OFFCURVE",
"286 384 CURVE SMOOTH",
"307 400 OFFCURVE",
"282 427 OFFCURVE",
"263 413 CURVE SMOOTH",
"236 393 OFFCURVE",
"141 374 OFFCURVE",
"103 441 CURVE SMOOTH",
"82 478 OFFCURVE",
"114 554 OFFCURVE",
"182 554 CURVE",
"130 577 LINE",
"38 540 OFFCURVE",
"48 446 OFFCURVE",
"71 414 CURVE SMOOTH",
"108 361 OFFCURVE",
"178 363 OFFCURVE",
"200 368 CURVE",
"147 332 OFFCURVE",
"113 310 OFFCURVE",
"85 292 CURVE SMOOTH",
"61 277 OFFCURVE",
"69 251 OFFCURVE",
"93 245 CURVE SMOOTH",
"193 219 OFFCURVE",
"385 119 OFFCURVE",
"385 50 CURVE SMOOTH",
"385 27 OFFCURVE",
"385 -12 OFFCURVE",
"406 -12 CURVE SMOOTH"
);
},
{
closed = 1;
nodes = (
"409 434 OFFCURVE",
"409 451 OFFCURVE",
"409 460 CURVE SMOOTH",
"409 540 OFFCURVE",
"374 587 OFFCURVE",
"290 587 CURVE SMOOTH",
"-25 587 LINE SMOOTH",
"-32 587 OFFCURVE",
"-40 582 OFFCURVE",
"-40 571 CURVE SMOOTH",
"-40 562 OFFCURVE",
"-34 554 OFFCURVE",
"-25 554 CURVE SMOOTH",
"307 554 LINE SMOOTH",
"358 554 OFFCURVE",
"387 521 OFFCURVE",
"390 455 CURVE SMOOTH",
"390 444 OFFCURVE",
"391 434 OFFCURVE",
"399 434 CURVE SMOOTH"
);
},
{
closed = 1;
nodes = (
"427 -12 OFFCURVE",
"421 23 OFFCURVE",
"421 71 CURVE SMOOTH",
"421 409 OFFCURVE",
"425 492 OFFCURVE",
"433 583 CURVE SMOOTH",
"434 597 OFFCURVE",
"432 609 OFFCURVE",
"420 609 CURVE SMOOTH",
"387 609 OFFCURVE",
"385 380 OFFCURVE",
"385 71 CURVE SMOOTH",
"385 23 OFFCURVE",
"385 -12 OFFCURVE",
"406 -12 CURVE SMOOTH"
);
},
{
closed = 1;
nodes = (
"532 554 LINE SMOOTH",
"541 554 OFFCURVE",
"550 558 OFFCURVE",
"550 571 CURVE SMOOTH",
"550 582 OFFCURVE",
"541 587 OFFCURVE",
"532 587 CURVE SMOOTH",
"520 587 OFFCURVE",
"495 587 OFFCURVE",
"474 587 CURVE SMOOTH",
"442 587 OFFCURVE",
"437 587 OFFCURVE",
"432 599 CURVE SMOOTH",
"429 606 OFFCURVE",
"419 602 OFFCURVE",
"419 592 CURVE SMOOTH",
"419 576 OFFCURVE",
"437 554 OFFCURVE",
"469 554 CURVE SMOOTH"
);
}
);
width = 518;
}
);
note = uni0998;
unicode = 0998;
},
{
color = 3;
glyphname = uni0999;
lastChange = "2015-10-07 10:04:29 +0000";
layers = (
{
background = {
paths = (
{
closed = 1;
nodes = (
"102 501 LINE",
"113 461 OFFCURVE",
"145 426 OFFCURVE",
"190 405 CURVE",
"218 466 OFFCURVE",
"264 505 OFFCURVE",
"305 505 CURVE SMOOTH",
"346 505 OFFCURVE",
"381 470 OFFCURVE",
"381 429 CURVE SMOOTH",
"381 378 OFFCURVE",
"327 337 OFFCURVE",
"260 337 CURVE SMOOTH",
"238 337 OFFCURVE",
"218 340 OFFCURVE",
"200 347 CURVE",
"199 350 OFFCURVE",
"199 347 OFFCURVE",
"198 336 CURVE",
"198 300 LINE SMOOTH",
"198 257 OFFCURVE",
"217 222 OFFCURVE",
"240 222 CURVE SMOOTH",
"275 222 OFFCURVE",
"313 262 OFFCURVE",
"334 322 CURVE",
"399 291 OFFCURVE",
"441 231 OFFCURVE",
"441 166 CURVE SMOOTH",
"441 71 OFFCURVE",
"375 10 OFFCURVE",
"275 10 CURVE SMOOTH",
"150 10 OFFCURVE",
"41 197 OFFCURVE",
"29 436 CURVE",
"54 410 LINE",
"67 223 OFFCURVE",
"163 78 OFFCURVE",
"272 78 CURVE SMOOTH",
"349 78 OFFCURVE",
"412 126 OFFCURVE",
"412 186 CURVE SMOOTH",
"412 217 OFFCURVE",
"395 243 OFFCURVE",
"370 252 CURVE",
"345 199 OFFCURVE",
"303 164 OFFCURVE",
"260 164 CURVE SMOOTH",
"207 164 OFFCURVE",
"164 225 OFFCURVE",
"164 300 CURVE SMOOTH",
"164 318 OFFCURVE",
"167 339 OFFCURVE",
"174 364 CURVE",
"121 389 OFFCURVE",
"79 427 OFFCURVE",
"49 479 CURVE"
);
},
{
closed = 1;
nodes = (
"231 384 OFFCURVE",
"246 381 OFFCURVE",
"260 381 CURVE SMOOTH",
"303 381 OFFCURVE",
"338 402 OFFCURVE",
"338 429 CURVE SMOOTH",
"338 444 OFFCURVE",
"321 456 OFFCURVE",
"300 456 CURVE SMOOTH",
"263 456 OFFCURVE",
"229 430 OFFCURVE",
"214 390 CURVE"
);
}
);
};
layerId = "4AE238AB-6A4C-459B-8E99-4D2856E6BBFA";
name = Regular;
paths = (
{
closed = 1;
nodes = (
"416 374 OFFCURVE",
"417 347 OFFCURVE",
"405 316 CURVE SMOOTH",
"390 277 OFFCURVE",
"360 238 OFFCURVE",
"325 238 CURVE SMOOTH",
"269 238 OFFCURVE",
"255 307 OFFCURVE",
"255 375 CURVE SMOOTH",
"255 402 OFFCURVE",
"261 430 OFFCURVE",
"270 453 CURVE",
"253 445 LINE",
"282 437 OFFCURVE",
"310 433 OFFCURVE",
"337 433 CURVE SMOOTH",
"402 433 OFFCURVE",
"456 476 OFFCURVE",
"456 528 CURVE SMOOTH",
"456 547 OFFCURVE",
"443 597 OFFCURVE",
"374 597 CURVE SMOOTH",
"314 597 OFFCURVE",
"254 526 OFFCURVE",
"238 470 CURVE",
"255 477 LINE",
"198 494 OFFCURVE",
"172 525 OFFCURVE",
"122 561 CURVE SMOOTH",
"96 579 OFFCURVE",
"60 587 OFFCURVE",
"28 587 CURVE",
"18 587 LINE",
"-6 587 OFFCURVE",
"-6 554 OFFCURVE",
"18 554 CURVE SMOOTH",
"60 554 OFFCURVE",
"84 549 OFFCURVE",
"114 528 CURVE SMOOTH",
"155 500 OFFCURVE",
"189 464 OFFCURVE",
"246 449 CURVE",
"236 465 LINE",
"226 436 OFFCURVE",
"219 406 OFFCURVE",
"219 375 CURVE SMOOTH",
"219 286 OFFCURVE",
"253 204 OFFCURVE",
"332 204 CURVE SMOOTH",
"410 204 OFFCURVE",
"439 297 OFFCURVE",
"445 325 CURVE",
"463 304 OFFCURVE",
"488 265 OFFCURVE",
"488 217 CURVE SMOOTH",
"488 135 OFFCURVE",
"424 69 OFFCURVE",
"334 69 CURVE SMOOTH",
"189 69 OFFCURVE",
"78 252 OFFCURVE",
"68 446 CURVE SMOOTH",
"67 458 OFFCURVE",
"60 466 OFFCURVE",
"50 466 CURVE SMOOTH",
"41 466 OFFCURVE",
"35 458 OFFCURVE",
"35 448 CURVE SMOOTH",
"35 257 OFFCURVE",
"159 28 OFFCURVE",
"334 28 CURVE SMOOTH",
"447 28 OFFCURVE",
"528 107 OFFCURVE",
"528 216 CURVE SMOOTH",
"528 296 OFFCURVE",
"469 374 OFFCURVE",
"434 374 CURVE SMOOTH"
);
},
{
closed = 1;
nodes = (
"410 562 OFFCURVE",
"423 551 OFFCURVE",
"423 532 CURVE SMOOTH",
"423 497 OFFCURVE",
"383 463 OFFCURVE",
"337 463 CURVE SMOOTH",
"314 463 OFFCURVE",
"288 467 OFFCURVE",
"265 474 CURVE",
"272 459 LINE",
"292 510 OFFCURVE",
"331 562 OFFCURVE",
"382 562 CURVE SMOOTH"
);
}
);
width = 555;
}
);
note = uni0999;
unicode = 0999;
},
{
color = 3;
glyphname = uni099A;
lastChange = "2015-10-07 10:04:54 +0000";
layers = (
{
background = {
paths = (
{
closed = 1;
nodes = (
"107 108 OFFCURVE",
"126 73 OFFCURVE",
"138 73 CURVE SMOOTH",
"185 73 OFFCURVE",
"280 208 OFFCURVE",
"280 273 CURVE",
"204 284 OFFCURVE",
"139 331 OFFCURVE",
"107 398 CURVE",
"107 131 LINE SMOOTH"
);
},
{
closed = 1;
nodes = (
"-40 500 LINE",
"338 500 LINE",
"368 456 LINE",
"107 456 LINE",
"111 409 OFFCURVE",
"154 367 OFFCURVE",
"214 351 CURVE SMOOTH",
"285 332 OFFCURVE",
"334 292 OFFCURVE",
"334 255 CURVE SMOOTH",
"334 172 OFFCURVE",
"213 5 OFFCURVE",
"153 5 CURVE SMOOTH",
"118 5 OFFCURVE",
"62 83 OFFCURVE",
"62 131 CURVE SMOOTH",
"62 456 LINE",
"-10 456 LINE"
);
}
);
};
layerId = "4AE238AB-6A4C-459B-8E99-4D2856E6BBFA";
name = Regular;
paths = (
{
closed = 1;
nodes = (
"488 554 LINE SMOOTH",
"497 554 OFFCURVE",
"503 561 OFFCURVE",
"503 572 CURVE SMOOTH",
"503 580 OFFCURVE",
"496 587 OFFCURVE",
"488 587 CURVE SMOOTH",
"168 587 LINE SMOOTH",
"161 587 OFFCURVE",
"153 582 OFFCURVE",
"153 571 CURVE SMOOTH",
"153 562 OFFCURVE",
"157 554 OFFCURVE",
"168 554 CURVE SMOOTH"
);
},
{
closed = 1;
nodes = (
"142 351 OFFCURVE",
"300 341 OFFCURVE",
"357 328 CURVE SMOOTH",
"421 313 OFFCURVE",
"390 214 OFFCURVE",
"319 129 CURVE SMOOTH",
"260 58 OFFCURVE",
"218 26 OFFCURVE",
"185 26 CURVE SMOOTH",
"155 26 OFFCURVE",
"137 42 OFFCURVE",
"139 115 CURVE SMOOTH",
"143 275 OFFCURVE",
"137 378 OFFCURVE",
"137 519 CURVE SMOOTH",
"137 556 OFFCURVE",
"155 554 OFFCURVE",
"179 554 CURVE",
"179 587 LINE",
"129 587 OFFCURVE",
"95 583 OFFCURVE",
"97 527 CURVE SMOOTH",
"104 379 OFFCURVE",
"104 274 OFFCURVE",
"100 115 CURVE SMOOTH",
"98 28 OFFCURVE",
"134 -7 OFFCURVE",
"195 -7 CURVE SMOOTH",
"257 -7 OFFCURVE",
"326 75 OFFCURVE",
"367 131 CURVE SMOOTH",
"438 227 OFFCURVE",
"472 351 OFFCURVE",
"357 370 CURVE SMOOTH",
"287 382 OFFCURVE",
"137 404 OFFCURVE",
"137 505 CURVE",
"115 474 LINE"
);
},
{
closed = 1;
nodes = (
"-16 587 OFFCURVE",
"-34 585 OFFCURVE",
"-34 570 CURVE SMOOTH",
"-34 561 OFFCURVE",
"-28 554 OFFCURVE",
"-16 554 CURVE SMOOTH",
"32 554 LINE SMOOTH",
"95 554 OFFCURVE",
"100 494 OFFCURVE",
"101 454 CURVE",
"117 453 LINE",
"117 550 OFFCURVE",
"92 587 OFFCURVE",
"4 587 CURVE SMOOTH"
);
}
);
width = 488;
}
);
note = uni099A;
unicode = 099A;
},
{
color = 3;
glyphname = uni099B;
lastChange = "2015-10-07 10:05:11 +0000";
layers = (
{
background = {
paths = (
{
closed = 1;
nodes = (
"-40 500 LINE",
"397 500 LINE",
"427 456 LINE",
"89 456 LINE",
"96 419 OFFCURVE",
"140 391 OFFCURVE",
"195 391 CURVE SMOOTH",
"234 391 LINE SMOOTH",
"309 391 OFFCURVE",
"370 341 OFFCURVE",
"370 280 CURVE SMOOTH",
"370 213 OFFCURVE",
"291 120 OFFCURVE",
"230 115 CURVE",
"315 88 OFFCURVE",
"401 18 OFFCURVE",
"476 -89 CURVE",
"452 -89 LINE",
"357 24 OFFCURVE",
"227 89 OFFCURVE",
"95 89 CURVE",
"51 176 LINE",
"73 161 OFFCURVE",
"101 153 OFFCURVE",
"135 153 CURVE SMOOTH",
"218 153 OFFCURVE",
"322 230 OFFCURVE",
"322 290 CURVE SMOOTH",
"322 321 OFFCURVE",
"293 346 OFFCURVE",
"257 346 CURVE",
"257 289 OFFCURVE",
"170 198 OFFCURVE",
"115 198 CURVE SMOOTH",
"87 198 OFFCURVE",
"44 248 OFFCURVE",
"44 280 CURVE SMOOTH",
"44 456 LINE",
"-10 456 LINE"
);
},
{
closed = 1;
nodes = (
"89 263 OFFCURVE",
"98 252 OFFCURVE",
"105 252 CURVE",
"140 259 OFFCURVE",
"194 314 OFFCURVE",
"194 342 CURVE",
"146 342 OFFCURVE",
"105 370 OFFCURVE",
"89 413 CURVE",
"89 270 LINE SMOOTH"
);
}
);
};
layerId = "4AE238AB-6A4C-459B-8E99-4D2856E6BBFA";
name = Regular;
paths = (
{
closed = 1;
nodes = (
"528 554 LINE SMOOTH",
"537 554 OFFCURVE",
"543 561 OFFCURVE",
"543 572 CURVE SMOOTH",
"543 580 OFFCURVE",
"536 587 OFFCURVE",
"528 587 CURVE SMOOTH",
"178 587 LINE SMOOTH",
"171 587 OFFCURVE",
"163 582 OFFCURVE",
"163 571 CURVE SMOOTH",
"163 562 OFFCURVE",
"169 554 OFFCURVE",
"178 554 CURVE SMOOTH"
);
},
{
closed = 1;
nodes = (
"136 405 OFFCURVE",
"207 391 OFFCURVE",
"257 391 CURVE SMOOTH",
"328 391 OFFCURVE",
"342 356 OFFCURVE",
"275 275 CURVE SMOOTH",
"245 239 OFFCURVE",
"201 213 OFFCURVE",
"176 213 CURVE SMOOTH",
"143 213 OFFCURVE",
"134 249 OFFCURVE",
"137 329 CURVE SMOOTH",
"139 373 OFFCURVE",
"135 443 OFFCURVE",
"136 523 CURVE SMOOTH",
"137 555 OFFCURVE",
"157 554 OFFCURVE",
"190 554 CURVE",
"186 587 LINE",
"127 587 OFFCURVE",
"102 578 OFFCURVE",
"102 528 CURVE SMOOTH",
"103 449 OFFCURVE",
"100 370 OFFCURVE",
"100 299 CURVE SMOOTH",
"100 203 OFFCURVE",
"138 184 OFFCURVE",
"185 184 CURVE SMOOTH",
"245 184 OFFCURVE",
"308 255 OFFCURVE",
"326 279 CURVE SMOOTH",
"391 366 OFFCURVE",
"347 425 OFFCURVE",
"280 425 CURVE SMOOTH",
"210 425 OFFCURVE",
"136 446 OFFCURVE",
"136 510 CURVE",
"122 481 LINE"
);
},
{
closed = 1;
nodes = (
"295 391 LINE",
"373 391 OFFCURVE",
"441 314 OFFCURVE",
"412 236 CURVE SMOOTH",
"373 130 OFFCURVE",
"254 88 OFFCURVE",
"199 88 CURVE SMOOTH",
"167 88 OFFCURVE",
"160 110 OFFCURVE",
"183 110 CURVE SMOOTH",
"217 110 OFFCURVE",
"307 35 OFFCURVE",
"353 -3 CURVE SMOOTH",
"396 -39 OFFCURVE",
"456 -83 OFFCURVE",
"495 -83 CURVE SMOOTH",
"522 -83 OFFCURVE",
"526 -49 OFFCURVE",
"499 -49 CURVE SMOOTH",
"460 -49 OFFCURVE",
"425 -14 OFFCURVE",
"372 28 CURVE SMOOTH",
"302 84 OFFCURVE",
"239 142 OFFCURVE",
"183 142 CURVE SMOOTH",
"147 142 OFFCURVE",
"121 122 OFFCURVE",
"127 92 CURVE SMOOTH",
"133 63 OFFCURVE",
"162 53 OFFCURVE",
"200 53 CURVE SMOOTH",
"293 53 OFFCURVE",
"409 124 OFFCURVE",
"443 216 CURVE SMOOTH",
"488 339 OFFCURVE",
"375 424 OFFCURVE",
"295 424 CURVE"
);
},
{
closed = 1;
nodes = (
"0 587 OFFCURVE",
"-18 585 OFFCURVE",
"-18 570 CURVE SMOOTH",
"-18 561 OFFCURVE",
"-12 554 OFFCURVE",
"0 554 CURVE SMOOTH",
"35 554 LINE SMOOTH",
"98 554 OFFCURVE",
"103 494 OFFCURVE",
"104 454 CURVE",
"121 453 LINE",
"121 550 OFFCURVE",
"98 587 OFFCURVE",
"20 587 CURVE SMOOTH"
);
}
);
width = 528;
}
);
note = uni099B;
unicode = 099B;
},
{
color = 3;
glyphname = uni099C;
lastChange = "2015-10-07 10:05:29 +0000";
layers = (
{
background = {
paths = (
{
closed = 1;
nodes = (
"-40 500 LINE",
"552 500 LINE",
"582 456 LINE",
"268 456 LINE",
"295 399 OFFCURVE",
"338 361 OFFCURVE",
"379 361 CURVE SMOOTH",
"414 361 OFFCURVE",
"445 371 OFFCURVE",
"474 391 CURVE",
"546 329 LINE",
"491 264 OFFCURVE",
"461 187 OFFCURVE",
"461 111 CURVE SMOOTH",
"461 73 OFFCURVE",
"473 28 OFFCURVE",
"497 -23 CURVE",
"462 1 LINE",
"439 42 OFFCURVE",
"427 92 OFFCURVE",
"427 151 CURVE SMOOTH",
"427 224 OFFCURVE",
"440 282 OFFCURVE",
"465 326 CURVE",
"448 320 OFFCURVE",
"431 317 OFFCURVE",
"414 317 CURVE SMOOTH",
"349 317 OFFCURVE",
"288 356 OFFCURVE",
"260 416 CURVE",
"234 394 OFFCURVE",
"214 374 OFFCURVE",
"200 357 CURVE SMOOTH",
"185 339 OFFCURVE",
"178 325 OFFCURVE",
"178 314 CURVE SMOOTH",
"178 297 OFFCURVE",
"197 282 OFFCURVE",
"221 282 CURVE SMOOTH",
"242 282 OFFCURVE",
"274 296 OFFCURVE",
"310 321 CURVE",
"357 294 OFFCURVE",
"386 249 OFFCURVE",
"386 205 CURVE SMOOTH",
"386 128 OFFCURVE",
"327 64 OFFCURVE",
"255 64 CURVE SMOOTH",
"143 64 OFFCURVE",
"43 224 OFFCURVE",
"24 433 CURVE",
"49 415 LINE",
"62 258 OFFCURVE",
"152 138 OFFCURVE",
"255 138 CURVE SMOOTH",
"310 138 OFFCURVE",
"353 170 OFFCURVE",
"353 210 CURVE SMOOTH",
"353 230 OFFCURVE",
"346 245 OFFCURVE",
"335 252 CURVE",
"308 231 OFFCURVE",
"276 218 OFFCURVE",
"241 218 CURVE SMOOTH",
"200 218 OFFCURVE",
"134 298 OFFCURVE",
"134 349 CURVE SMOOTH",
"134 378 OFFCURVE",
"161 417 OFFCURVE",
"206 456 CURVE",
"-10 456 LINE"
);
}
);
};
layerId = "4AE238AB-6A4C-459B-8E99-4D2856E6BBFA";
name = Regular;
paths = (
{
closed = 1;
nodes = (
"633 448 OFFCURVE",
"597 482 OFFCURVE",
"573 460 CURVE SMOOTH",
"565 452 OFFCURVE",
"531 418 OFFCURVE",
"457 418 CURVE SMOOTH",
"385 418 OFFCURVE",
"342 496 OFFCURVE",
"342 569 CURVE",
"310 556 LINE",
"310 475 OFFCURVE",
"364 379 OFFCURVE",
"464 379 CURVE SMOOTH",
"516 379 OFFCURVE",
"546 399 OFFCURVE",
"561 407 CURVE",
"557 409 LINE",
"547 388 OFFCURVE",
"523 328 OFFCURVE",
"523 242 CURVE SMOOTH",
"523 143 OFFCURVE",
"553 30 OFFCURVE",
"572 30 CURVE SMOOTH",
"583 30 OFFCURVE",
"588 40 OFFCURVE",
"582 61 CURVE SMOOTH",
"574 89 OFFCURVE",
"559 156 OFFCURVE",
"559 227 CURVE SMOOTH",
"559 322 OFFCURVE",
"586 392 OFFCURVE",
"611 422 CURVE SMOOTH"
);
},
{
closed = 1;
nodes = (
"338 587 LINE SMOOTH",
"271 587 OFFCURVE",
"176 477 OFFCURVE",
"176 371 CURVE SMOOTH",
"176 307 OFFCURVE",
"214 228 OFFCURVE",
"296 228 CURVE SMOOTH",
"349 228 OFFCURVE",
"386 262 OFFCURVE",
"410 296 CURVE",
"425 278 OFFCURVE",
"437 254 OFFCURVE",
"437 211 CURVE SMOOTH",
"437 143 OFFCURVE",
"386 101 OFFCURVE",
"313 101 CURVE SMOOTH",
"197 101 OFFCURVE",
"70 252 OFFCURVE",
"60 446 CURVE SMOOTH",
"59 458 OFFCURVE",
"52 466 OFFCURVE",
"42 466 CURVE SMOOTH",
"33 466 OFFCURVE",
"27 458 OFFCURVE",
"27 448 CURVE SMOOTH",
"27 270 OFFCURVE",
"155 57 OFFCURVE",
"327 57 CURVE SMOOTH",
"420 57 OFFCURVE",
"477 128 OFFCURVE",
"477 196 CURVE SMOOTH",
"477 290 OFFCURVE",
"411 346 OFFCURVE",
"393 346 CURVE SMOOTH",
"378 346 OFFCURVE",
"368 268 OFFCURVE",
"287 268 CURVE SMOOTH",
"243 268 OFFCURVE",
"212 300 OFFCURVE",
"212 376 CURVE SMOOTH",
"212 461 OFFCURVE",
"302 554 OFFCURVE",
"349 554 CURVE SMOOTH",
"650 554 LINE SMOOTH",
"659 554 OFFCURVE",
"665 561 OFFCURVE",
"665 572 CURVE SMOOTH",
"665 580 OFFCURVE",
"658 587 OFFCURVE",
"650 587 CURVE SMOOTH"
);
},
{
closed = 1;
nodes = (
"245 506 LINE",
"247 513 OFFCURVE",
"253 528 OFFCURVE",
"243 548 CURVE SMOOTH",
"229 574 OFFCURVE",
"193 587 OFFCURVE",
"144 587 CURVE SMOOTH",
"-11 587 LINE SMOOTH",
"-18 587 OFFCURVE",
"-26 582 OFFCURVE",
"-26 571 CURVE SMOOTH",
"-26 562 OFFCURVE",
"-20 554 OFFCURVE",
"-11 554 CURVE SMOOTH",
"157 554 LINE SMOOTH",
"190 554 OFFCURVE",
"235 542 OFFCURVE",
"217 498 CURVE"
);
}
);
width = 645;
}
);
note = uni099C;
unicode = 099C;
},
{
color = 3;
glyphname = uni099D;
lastChange = "2015-10-07 10:05:49 +0000";
layers = (
{
background = {
paths = (
{
closed = 1;
nodes = (
"359 357 OFFCURVE",
"272 310 OFFCURVE",
"203 253 CURVE",
"200 273 LINE",
"288 247 OFFCURVE",
"393 173 OFFCURVE",
"432 79 CURVE",
"423 72 LINE",
"423 466 LINE",
"463 466 LINE",
"463 0 LINE",
"438 0 LINE",
"418 118 OFFCURVE",
"303 197 OFFCURVE",
"196 214 CURVE",
"144 283 LINE",
"232 355 OFFCURVE",
"354 416 OFFCURVE",
"441 436 CURVE",
"447 384 LINE"
);
},
{
closed = 1;
nodes = (
"109 456 LINE",
"109 491 LINE",
"543 491 LINE",
"543 456 LINE"
);
}
);
};
layerId = "4AE238AB-6A4C-459B-8E99-4D2856E6BBFA";
name = Regular;
paths = (
{
closed = 1;
nodes = (
"421 -12 OFFCURVE",
"429 -1 OFFCURVE",
"429 24 CURVE SMOOTH",
"429 135 OFFCURVE",
"294 265 OFFCURVE",
"80 312 CURVE",
"83 305 LINE",
"140 338 OFFCURVE",
"270 402 OFFCURVE",
"342 440 CURVE SMOOTH",
"393 467 OFFCURVE",
"408 487 OFFCURVE",
"408 520 CURVE SMOOTH",
"408 564 OFFCURVE",
"370 587 OFFCURVE",
"306 587 CURVE SMOOTH",
"-3 587 LINE SMOOTH",
"-10 587 OFFCURVE",
"-18 582 OFFCURVE",
"-18 571 CURVE SMOOTH",
"-18 562 OFFCURVE",
"-12 554 OFFCURVE",
"-3 554 CURVE SMOOTH",
"312 554 LINE SMOOTH",
"358 554 OFFCURVE",
"383 539 OFFCURVE",
"383 520 CURVE SMOOTH",
"383 496 OFFCURVE",
"356 485 OFFCURVE",
"316 465 CURVE SMOOTH",
"254 434 OFFCURVE",
"105 361 OFFCURVE",
"65 336 CURVE SMOOTH",
"42 321 OFFCURVE",
"45 282 OFFCURVE",
"82 274 CURVE SMOOTH",
"145 260 OFFCURVE",
"388 174 OFFCURVE",
"388 37 CURVE SMOOTH",
"388 22 OFFCURVE",
"390 -12 OFFCURVE",
"410 -12 CURVE SMOOTH"
);
},
{
closed = 1;
nodes = (
"430 -12 OFFCURVE",
"424 23 OFFCURVE",
"424 71 CURVE SMOOTH",
"424 409 OFFCURVE",
"428 492 OFFCURVE",
"436 583 CURVE SMOOTH",
"437 597 OFFCURVE",
"435 609 OFFCURVE",
"423 609 CURVE SMOOTH",
"388 609 OFFCURVE",
"388 380 OFFCURVE",
"388 71 CURVE SMOOTH",
"388 23 OFFCURVE",
"388 -12 OFFCURVE",
"409 -12 CURVE SMOOTH"
);
},
{
closed = 1;
nodes = (
"404 270 LINE",
"404 179 OFFCURVE",
"518 132 OFFCURVE",
"518 74 CURVE SMOOTH",
"518 42 OFFCURVE",
"528 33 OFFCURVE",
"538 33 CURVE SMOOTH",
"548 33 OFFCURVE",
"557 44 OFFCURVE",
"557 61 CURVE SMOOTH",
"557 136 OFFCURVE",
"428 193 OFFCURVE",
"424 294 CURVE"
);
},
{
closed = 1;
nodes = (
"682 582 OFFCURVE",
"673 587 OFFCURVE",
"664 587 CURVE SMOOTH",
"652 587 OFFCURVE",
"627 587 OFFCURVE",
"606 587 CURVE SMOOTH",
"574 587 OFFCURVE",
"569 587 OFFCURVE",
"564 599 CURVE SMOOTH",
"561 606 OFFCURVE",
"551 602 OFFCURVE",
"551 592 CURVE SMOOTH",
"551 576 OFFCURVE",
"569 554 OFFCURVE",
"601 554 CURVE SMOOTH",
"664 554 LINE SMOOTH",
"673 554 OFFCURVE",
"682 558 OFFCURVE",
"682 571 CURVE SMOOTH"
);
},
{
closed = 1;
nodes = (
"559 33 OFFCURVE",
"555 68 OFFCURVE",
"555 116 CURVE SMOOTH",
"555 446 OFFCURVE",
"557 496 OFFCURVE",
"565 583 CURVE SMOOTH",
"566 597 OFFCURVE",
"564 609 OFFCURVE",
"552 609 CURVE SMOOTH",
"516 609 OFFCURVE",
"517 404 OFFCURVE",
"517 116 CURVE SMOOTH",
"517 68 OFFCURVE",
"517 33 OFFCURVE",
"538 33 CURVE SMOOTH"
);
}
);
width = 655;
}
);
note = uni099D;
unicode = 099D;
},
{
color = 3;
glyphname = uni099E;
lastChange = "2015-10-07 10:06:09 +0000";
layers = (
{
background = {
paths = (
{
closed = 1;
nodes = (
"451 -23 LINE",
"426 1 LINE",
"426 53 OFFCURVE",
"387 94 OFFCURVE",
"339 94 CURVE SMOOTH",
"324 94 OFFCURVE",
"303 91 OFFCURVE",
"275 86 CURVE SMOOTH",
"246 81 OFFCURVE",
"225 79 OFFCURVE",
"210 79 CURVE SMOOTH",
"110 79 OFFCURVE",
"29 155 OFFCURVE",
"29 250 CURVE SMOOTH",
"29 289 OFFCURVE",
"41 327 OFFCURVE",
"66 362 CURVE",
"84 349 LINE",
"71 333 OFFCURVE",
"63 308 OFFCURVE",
"63 280 CURVE SMOOTH",
"63 209 OFFCURVE",
"111 153 OFFCURVE",
"170 153 CURVE",
"299 163 LINE",
"342 163 OFFCURVE",
"381 142 OFFCURVE",
"406 106 CURVE",
"406 419 LINE SMOOTH",
"406 436 OFFCURVE",
"397 451 OFFCURVE",
"388 451 CURVE SMOOTH",
"343 451 OFFCURVE",
"251 369 OFFCURVE",
"251 329 CURVE SMOOTH",
"251 319 LINE",
"252 316 OFFCURVE",
"252 314 OFFCURVE",
"253 313 CURVE",
"256 318 OFFCURVE",
"266 321 OFFCURVE",
"279 321 CURVE SMOOTH",
"308 321 OFFCURVE",
"331 298 OFFCURVE",
"331 270 CURVE SMOOTH",
"331 233 OFFCURVE",
"304 203 OFFCURVE",
"269 203 CURVE SMOOTH",
"218 203 OFFCURVE",
"178 242 OFFCURVE",
"178 290 CURVE SMOOTH",
"178 382 OFFCURVE",
"296 500 OFFCURVE",
"388 500 CURVE SMOOTH",
"412 500 OFFCURVE",
"451 457 OFFCURVE",
"451 429 CURVE SMOOTH",
"451 360 LINE",
"498 440 OFFCURVE",
"553 490 OFFCURVE",
"596 490 CURVE SMOOTH",
"644 490 OFFCURVE",
"683 445 OFFCURVE",
"683 389 CURVE SMOOTH",
"683 353 OFFCURVE",
"667 319 OFFCURVE",
"639 300 CURVE",
"667 281 OFFCURVE",
"683 247 OFFCURVE",
"683 210 CURVE SMOOTH",
"683 154 OFFCURVE",
"644 109 OFFCURVE",
"596 109 CURVE SMOOTH",
"555 109 OFFCURVE",
"499 160 OFFCURVE",
"451 244 CURVE"
);
},
{
closed = 1;
nodes = (
"478 224 OFFCURVE",
"536 173 OFFCURVE",
"596 173 CURVE SMOOTH",
"625 173 OFFCURVE",
"649 195 OFFCURVE",
"649 220 CURVE SMOOTH",
"649 233 OFFCURVE",
"641 247 OFFCURVE",
"626 258 CURVE",
"607 245 OFFCURVE",
"590 238 OFFCURVE",
"577 238 CURVE SMOOTH",
"542 238 OFFCURVE",
"515 265 OFFCURVE",
"515 300 CURVE SMOOTH",
"515 333 OFFCURVE",
"542 361 OFFCURVE",
"577 361 CURVE SMOOTH",
"590 361 OFFCURVE",
"607 354 OFFCURVE",
"626 341 CURVE",
"641 352 OFFCURVE",
"649 366 OFFCURVE",
"649 379 CURVE SMOOTH",
"649 406 OFFCURVE",
"625 427 OFFCURVE",
"596 427 CURVE SMOOTH",
"536 427 OFFCURVE",
"478 376 OFFCURVE",
"450 300 CURVE"
);
}
);
};
layerId = "4AE238AB-6A4C-459B-8E99-4D2856E6BBFA";
name = Regular;
paths = (
{
closed = 1;
nodes = (
"519 -11 OFFCURVE",
"522 2 OFFCURVE",
"522 42 CURVE SMOOTH",
"522 176 OFFCURVE",
"522 397 OFFCURVE",
"522 468 CURVE SMOOTH",
"522 539 OFFCURVE",
"507 595 OFFCURVE",
"449 595 CURVE SMOOTH",
"354 595 OFFCURVE",
"192 443 OFFCURVE",
"192 325 CURVE SMOOTH",
"192 274 OFFCURVE",
"222 240 OFFCURVE",
"271 240 CURVE SMOOTH",
"305 240 OFFCURVE",
"340 263 OFFCURVE",
"340 307 CURVE SMOOTH",
"340 346 OFFCURVE",
"312 377 OFFCURVE",
"273 377 CURVE SMOOTH",
"232 377 OFFCURVE",
"208 342 OFFCURVE",
"208 308 CURVE",
"232 300 LINE",
"225 328 OFFCURVE",
"247 349 OFFCURVE",
"269 349 CURVE SMOOTH",
"295 349 OFFCURVE",
"306 328 OFFCURVE",
"306 308 CURVE SMOOTH",
"306 286 OFFCURVE",
"289 272 OFFCURVE",
"270 272 CURVE SMOOTH",
"249 272 OFFCURVE",
"229 284 OFFCURVE",
"229 323 CURVE SMOOTH",
"229 430 OFFCURVE",
"381 566 OFFCURVE",
"447 566 CURVE SMOOTH",
"481 566 OFFCURVE",
"482 531 OFFCURVE",
"483 468 CURVE SMOOTH",
"484 398 OFFCURVE",
"487 71 OFFCURVE",
"488 42 CURVE SMOOTH",
"489 -3 OFFCURVE",
"498 -11 OFFCURVE",
"507 -11 CURVE SMOOTH"
);
},
{
closed = 1;
nodes = (
"521 -12 OFFCURVE",
"525 1 OFFCURVE",
"525 16 CURVE SMOOTH",
"525 73 OFFCURVE",
"466 137 OFFCURVE",
"379 137 CURVE SMOOTH",
"320 137 OFFCURVE",
"278 107 OFFCURVE",
"216 107 CURVE SMOOTH",
"141 107 OFFCURVE",
"72 152 OFFCURVE",
"72 241 CURVE SMOOTH",
"72 305 OFFCURVE",
"107 341 OFFCURVE",
"107 364 CURVE SMOOTH",
"107 375 OFFCURVE",
"100 380 OFFCURVE",
"92 380 CURVE SMOOTH",
"62 380 OFFCURVE",
"37 300 OFFCURVE",
"37 243 CURVE SMOOTH",
"37 139 OFFCURVE",
"118 65 OFFCURVE",
"216 65 CURVE SMOOTH",
"283 65 OFFCURVE",
"319 99 OFFCURVE",
"387 99 CURVE SMOOTH",
"432 99 OFFCURVE",
"477 84 OFFCURVE",
"487 27 CURVE SMOOTH",
"490 9 OFFCURVE",
"491 -12 OFFCURVE",
"508 -12 CURVE SMOOTH"
);
},
{
closed = 1;
nodes = (
"499 194 OFFCURVE",
"591 116 OFFCURVE",
"677 116 CURVE SMOOTH",
"738 116 OFFCURVE",
"794 159 OFFCURVE",
"794 226 CURVE SMOOTH",
"794 300 OFFCURVE",
"731 354 OFFCURVE",
"677 346 CURVE SMOOTH",
"620 338 OFFCURVE",
"620 270 OFFCURVE",
"681 270 CURVE SMOOTH",
"745 270 OFFCURVE",
"789 348 OFFCURVE",
"789 401 CURVE SMOOTH",
"789 456 OFFCURVE",
"740 508 OFFCURVE",
"675 508 CURVE SMOOTH",
"570 508 OFFCURVE",
"498 382 OFFCURVE",
"498 335 CURVE",
"522 312 LINE",
"522 377 OFFCURVE",
"593 478 OFFCURVE",
"674 478 CURVE SMOOTH",
"719 478 OFFCURVE",
"753 445 OFFCURVE",
"753 394 CURVE SMOOTH",
"753 341 OFFCURVE",
"715 300 OFFCURVE",
"687 296 CURVE SMOOTH",
"662 292 OFFCURVE",
"656 318 OFFCURVE",
"680 322 CURVE SMOOTH",
"703 326 OFFCURVE",
"758 294 OFFCURVE",
"758 236 CURVE SMOOTH",
"758 177 OFFCURVE",
"707 148 OFFCURVE",
"668 148 CURVE SMOOTH",
"610 148 OFFCURVE",
"522 210 OFFCURVE",
"522 300 CURVE",
"499 284 LINE"
);
}
);
width = 806;
}
);
note = uni099E;
unicode = 099E;
},
{
color = 3;
glyphname = uni099F;
lastChange = "2015-10-07 10:06:28 +0000";
layers = (
{
background = {
paths = (
{
closed = 1;
nodes = (
"-40 500 LINE",
"232 500 LINE SMOOTH",
"245 500 OFFCURVE",
"255 512 OFFCURVE",
"255 528 CURVE SMOOTH",
"255 548 OFFCURVE",
"231 565 OFFCURVE",
"202 565 CURVE SMOOTH",
"187 565 OFFCURVE",
"166 564 OFFCURVE",
"137 562 CURVE SMOOTH",
"109 561 OFFCURVE",
"88 560 OFFCURVE",
"73 560 CURVE SMOOTH",
"20 560 OFFCURVE",
"-23 601 OFFCURVE",
"-23 652 CURVE SMOOTH",
"-23 681 OFFCURVE",
"-10 708 OFFCURVE",
"13 724 CURVE",
"32 706 LINE",
"16 701 OFFCURVE",
"6 685 OFFCURVE",
"6 666 CURVE SMOOTH",
"6 641 OFFCURVE",
"25 619 OFFCURVE",
"48 619 CURVE SMOOTH",
"61 619 OFFCURVE",
"81 620 OFFCURVE",
"108 622 CURVE",
"134 623 OFFCURVE",
"154 624 OFFCURVE",
"167 624 CURVE SMOOTH",
"234 624 OFFCURVE",
"288 581 OFFCURVE",
"288 528 CURVE SMOOTH",
"288 512 OFFCURVE",
"298 500 OFFCURVE",
"311 500 CURVE SMOOTH",
"352 500 LINE",
"382 456 LINE",
"107 456 LINE",
"107 121 LINE SMOOTH",
"107 94 OFFCURVE",
"126 73 OFFCURVE",
"149 73 CURVE SMOOTH",
"200 73 OFFCURVE",
"271 170 OFFCURVE",
"271 238 CURVE",
"232 238 OFFCURVE",
"201 263 OFFCURVE",
"201 295 CURVE SMOOTH",
"201 326 OFFCURVE",
"228 351 OFFCURVE",
"263 351 CURVE SMOOTH",
"308 351 OFFCURVE",
"344 306 OFFCURVE",
"344 250 CURVE SMOOTH",
"344 158 OFFCURVE",
"226 10 OFFCURVE",
"153 10 CURVE SMOOTH",
"122 10 OFFCURVE",
"62 85 OFFCURVE",
"62 121 CURVE SMOOTH",
"62 456 LINE",
"-10 456 LINE"
);
}
);
};
layerId = "4AE238AB-6A4C-459B-8E99-4D2856E6BBFA";
name = Regular;
paths = (
{
closed = 1;
nodes = (
"483 554 LINE SMOOTH",
"492 554 OFFCURVE",
"498 561 OFFCURVE",
"498 572 CURVE SMOOTH",
"498 580 OFFCURVE",
"491 587 OFFCURVE",
"483 587 CURVE SMOOTH",
"168 587 LINE SMOOTH",
"161 587 OFFCURVE",
"153 582 OFFCURVE",
"153 571 CURVE SMOOTH",
"153 562 OFFCURVE",
"159 554 OFFCURVE",
"168 554 CURVE SMOOTH"
);
},
{
closed = 1;
nodes = (
"395 344 OFFCURVE",
"377 302 OFFCURVE",
"346 302 CURVE SMOOTH",
"324 302 OFFCURVE",
"307 317.512 OFFCURVE",
"307 338 CURVE SMOOTH",
"307 360.007 OFFCURVE",
"322 376 OFFCURVE",
"343 376 CURVE SMOOTH",
"406 376 OFFCURVE",
"411 282 OFFCURVE",
"353 178 CURVE SMOOTH",
"309 99 OFFCURVE",
"248 26 OFFCURVE",
"185 26 CURVE SMOOTH",
"155 26 OFFCURVE",
"137 42 OFFCURVE",
"139 115 CURVE SMOOTH",
"143 274 OFFCURVE",
"142 377 OFFCURVE",
"140 516 CURVE SMOOTH",
"139 553 OFFCURVE",
"155 554 OFFCURVE",
"181 554 CURVE",
"177 587 LINE",
"118 587 OFFCURVE",
"96 584 OFFCURVE",
"97 521 CURVE SMOOTH",
"100 380 OFFCURVE",
"104 275 OFFCURVE",
"100 115 CURVE SMOOTH",
"98 28 OFFCURVE",
"134 -7 OFFCURVE",
"195 -7 CURVE SMOOTH",
"287 -7 OFFCURVE",
"371 120 OFFCURVE",
"401 180 CURVE SMOOTH",
"459 295 OFFCURVE",
"447.56 406 OFFCURVE",
"343 406 CURVE SMOOTH",
"301.566 406 OFFCURVE",
"271 376.645 OFFCURVE",
"271 338 CURVE SMOOTH",
"271 300.88 OFFCURVE",
"301.775 272 OFFCURVE",
"341 272 CURVE SMOOTH",
"403 272 OFFCURVE",
"415 339 OFFCURVE",
"398 370 CURVE",
"372 367 LINE"
);
},
{
closed = 1;
nodes = (
"-8 587 OFFCURVE",
"-26 585 OFFCURVE",
"-26 570 CURVE SMOOTH",
"-26 561 OFFCURVE",
"-20 554 OFFCURVE",
"-8 554 CURVE SMOOTH",
"30 554 LINE SMOOTH",
"93 554 OFFCURVE",
"98 494 OFFCURVE",
"99 454 CURVE SMOOTH",
"99 442 OFFCURVE",
"100 433 OFFCURVE",
"107 433 CURVE SMOOTH",
"118 433 OFFCURVE",
"118 451 OFFCURVE",
"118 453 CURVE SMOOTH",
"118 550 OFFCURVE",
"100 587 OFFCURVE",
"12 587 CURVE SMOOTH"
);
},
{
closed = 1;
nodes = (
"431 581 LINE",
"431 639 OFFCURVE",
"415 687 OFFCURVE",
"365 714 CURVE SMOOTH",
"293 753 OFFCURVE",
"225 705 OFFCURVE",
"132 705 CURVE SMOOTH",
"107 705 OFFCURVE",
"74 713 OFFCURVE",
"53 730 CURVE SMOOTH",
"30 749 OFFCURVE",
"18 793 OFFCURVE",
"15 801 CURVE SMOOTH",
"11 811 OFFCURVE",
"8 818 OFFCURVE",
"-1 818 CURVE SMOOTH",
"-10 818 OFFCURVE",
"-20 811 OFFCURVE",
"-18 797 CURVE SMOOTH",
"-15 774 OFFCURVE",
"10 731 OFFCURVE",
"31 712 CURVE SMOOTH",
"62 683 OFFCURVE",
"108 675 OFFCURVE",
"142 675 CURVE SMOOTH",
"227 675 OFFCURVE",
"305 715 OFFCURVE",
"357 681 CURVE SMOOTH",
"389 660 OFFCURVE",
"392 625 OFFCURVE",
"392 581 CURVE"
);
}
);
width = 488;
}
);
note = uni099F;
unicode = 099F;
},
{
color = 3;
glyphname = uni09A0;
lastChange = "2015-10-07 10:06:45 +0000";
layers = (
{
background = {
paths = (
{
closed = 1;
nodes = (
"-40 500 LINE",
"148 500 LINE",
"85 569 OFFCURVE",
"51 631 OFFCURVE",
"51 672 CURVE SMOOTH",
"51 701 OFFCURVE",
"67 731 OFFCURVE",
"92 748 CURVE",
"157 716 LINE",
"116 701 OFFCURVE",
"89 677 OFFCURVE",
"89 657 CURVE SMOOTH",
"89 617 OFFCURVE",
"123 560 OFFCURVE",
"183 500 CURVE",
"345 500 LINE",
"375 456 LINE",
"215 456 LINE",
"288 369 OFFCURVE",
"328 270 OFFCURVE",
"328 175 CURVE SMOOTH",
"328 90 OFFCURVE",
"252 20 OFFCURVE",
"157 20 CURVE SMOOTH",
"82 20 OFFCURVE",
"21 106 OFFCURVE",
"21 211 CURVE",
"134 252 OFFCURVE",
"200 363 OFFCURVE",
"165 456 CURVE",
"-10 456 LINE"
);
},
{
closed = 1;
nodes = (
"75 102 OFFCURVE",
"112 54 OFFCURVE",
"157 54 CURVE SMOOTH",
"230 54 OFFCURVE",
"289 115 OFFCURVE",
"289 190 CURVE SMOOTH",
"289 273 OFFCURVE",
"262 351 OFFCURVE",
"214 408 CURVE",
"216 397 OFFCURVE",
"217 385 OFFCURVE",
"217 373 CURVE SMOOTH",
"217 269 OFFCURVE",
"159 182 OFFCURVE",
"75 159 CURVE"
);
}
);
};
layerId = "4AE238AB-6A4C-459B-8E99-4D2856E6BBFA";
name = Regular;
paths = (
{
closed = 1;
nodes = (
"195 513 OFFCURVE",
"215 425 OFFCURVE",
"163 342 CURVE SMOOTH",
"119 272 OFFCURVE",
"48 246 OFFCURVE",
"48 162 CURVE SMOOTH",
"48 70 OFFCURVE",
"124 7 OFFCURVE",
"218 7 CURVE SMOOTH",
"335 7 OFFCURVE",
"391 112 OFFCURVE",
"391 217 CURVE SMOOTH",
"391 443 OFFCURVE",
"129 568 OFFCURVE",
"129 708 CURVE SMOOTH",
"129 816 OFFCURVE",
"239 830 OFFCURVE",
"222 856 CURVE SMOOTH",
"208 878 OFFCURVE",
"94 812 OFFCURVE",
"94 713 CURVE SMOOTH",
"94 562 OFFCURVE",
"351 426 OFFCURVE",
"351 212 CURVE SMOOTH",
"351 123 OFFCURVE",
"306 49 OFFCURVE",
"218 49 CURVE SMOOTH",
"144 49 OFFCURVE",
"88 100 OFFCURVE",
"88 155 CURVE SMOOTH",
"88 229 OFFCURVE",
"153 253 OFFCURVE",
"193 317 CURVE SMOOTH",
"254 415 OFFCURVE",
"222 514 OFFCURVE",
"194 558 CURVE",
"162 562 LINE"
);
},
{
closed = 1;
nodes = (
"-15 587 OFFCURVE",
"-33 585 OFFCURVE",
"-33 570 CURVE SMOOTH",
"-33 561 OFFCURVE",
"-27 554 OFFCURVE",
"-15 554 CURVE SMOOTH",
"101 554 LINE SMOOTH",
"185 554 OFFCURVE",
"194 494 OFFCURVE",
"195 454 CURVE SMOOTH",
"195 442 OFFCURVE",
"196 433 OFFCURVE",
"203 433 CURVE SMOOTH",
"214 433 OFFCURVE",
"214 451 OFFCURVE",
"214 453 CURVE SMOOTH",
"214 545 OFFCURVE",
"163 587 OFFCURVE",
"92 587 CURVE SMOOTH",
"53 587 OFFCURVE",
"10 587 OFFCURVE",
"5 587 CURVE SMOOTH"
);
},
{
closed = 1;
nodes = (
"454 584 OFFCURVE",
"442 587 OFFCURVE",
"419 587 CURVE SMOOTH",
"388 587 OFFCURVE",
"257 587 OFFCURVE",
"233 587 CURVE SMOOTH",
"194 587 OFFCURVE",
"180 586 OFFCURVE",
"163 614 CURVE",
"150 603 LINE",
"184 562 OFFCURVE",
"214 554 OFFCURVE",
"238 554 CURVE SMOOTH",
"426 554 LINE SMOOTH",
"446 554 OFFCURVE",
"454 558 OFFCURVE",
"454 571 CURVE SMOOTH"
);
}
);
width = 420;
}
);
note = uni09A0;
unicode = 09A0;
},
{
color = 3;
glyphname = uni09A1;
lastChange = "2015-10-07 10:07:04 +0000";
layers = (
{
background = {
paths = (
{
closed = 1;
nodes = (
"-40 500 LINE",
"467 500 LINE",
"497 456 LINE",
"245 456 LINE",
"245 290 LINE SMOOTH",
"245 281 OFFCURVE",
"249 272 OFFCURVE",
"256 272 CURVE SMOOTH",
"291 272 OFFCURVE",
"334 311 OFFCURVE",
"370 372 CURVE",
"421 343 OFFCURVE",
"452 281 OFFCURVE",
"452 210 CURVE SMOOTH",
"452 99 OFFCURVE",
"376 10 OFFCURVE",
"281 10 CURVE SMOOTH",
"157 10 OFFCURVE",
"45 187 OFFCURVE",
"25 419 CURVE",
"55 395 LINE",
"76 216 OFFCURVE",
"174 83 OFFCURVE",
"281 83 CURVE SMOOTH",
"360 83 OFFCURVE",
"423 146 OFFCURVE",
"423 225 CURVE SMOOTH",
"423 256 OFFCURVE",
"412 282 OFFCURVE",
"395 297 CURVE",
"362 238 OFFCURVE",
"314 203 OFFCURVE",
"271 203 CURVE SMOOTH",
"243 203 OFFCURVE",
"200 269 OFFCURVE",
"200 310 CURVE SMOOTH",
"200 456 LINE",
"-10 456 LINE"
);
}
);
};
layerId = "4AE238AB-6A4C-459B-8E99-4D2856E6BBFA";
name = Regular;
paths = (
{
closed = 1;
nodes = (
"485 30 OFFCURVE",
"559 113 OFFCURVE",
"559 233 CURVE SMOOTH",
"559 311 OFFCURVE",
"523 393 OFFCURVE",
"474 393 CURVE SMOOTH",
"456 393 OFFCURVE",
"458 365 OFFCURVE",
"449 335 CURVE SMOOTH",
"439 300 OFFCURVE",
"414 263 OFFCURVE",
"369 263 CURVE SMOOTH",
"322 263 OFFCURVE",
"292 317 OFFCURVE",
"292 397 CURVE SMOOTH",
"292 498 OFFCURVE",
"310 554 OFFCURVE",
"378 554 CURVE SMOOTH",
"598 554 LINE SMOOTH",
"607 554 OFFCURVE",
"613 561 OFFCURVE",
"613 572 CURVE SMOOTH",
"613 580 OFFCURVE",
"606 587 OFFCURVE",
"598 587 CURVE SMOOTH",
"367 587 LINE SMOOTH",
"348 587 OFFCURVE",
"318 584 OFFCURVE",
"294 557 CURVE SMOOTH",
"264 523 OFFCURVE",
"256 463 OFFCURVE",
"256 397 CURVE SMOOTH",
"256 296 OFFCURVE",
"296 229 OFFCURVE",
"375 229 CURVE SMOOTH",
"463 229 OFFCURVE",
"483 321 OFFCURVE",
"489 349 CURVE",
"506 329 OFFCURVE",
"523 280 OFFCURVE",
"523 232 CURVE SMOOTH",
"523 145 OFFCURVE",
"458 72 OFFCURVE",
"363 72 CURVE SMOOTH",
"218 72 OFFCURVE",
"95 263 OFFCURVE",
"80 427 CURVE SMOOTH",
"78 448 OFFCURVE",
"68 459 OFFCURVE",
"60 459 CURVE SMOOTH",
"51 459 OFFCURVE",
"43 448 OFFCURVE",
"45 426 CURVE SMOOTH",
"62 241 OFFCURVE",
"196 30 OFFCURVE",
"363 30 CURVE SMOOTH"
);
},
{
closed = 1;
nodes = (
"298 525 LINE",
"298 567 OFFCURVE",
"250 587 OFFCURVE",
"193 587 CURVE SMOOTH",
"-2 587 LINE SMOOTH",
"-9 587 OFFCURVE",
"-17 582 OFFCURVE",
"-17 571 CURVE SMOOTH",
"-17 562 OFFCURVE",
"-11 554 OFFCURVE",
"-2 554 CURVE SMOOTH",
"206 554 LINE SMOOTH",
"234 554 OFFCURVE",
"279 544 OFFCURVE",
"269 509 CURVE"
);
}
);
width = 593;
}
);
note = uni09A1;
unicode = 09A1;
},
{
color = 3;
glyphname = uni09A2;
lastChange = "2015-10-07 10:07:25 +0000";
layers = (
{
background = {
paths = (
{
closed = 1;
nodes = (
"-40 500 LINE",
"344 500 LINE",
"374 456 LINE",
"104 456 LINE",
"104 146 LINE SMOOTH",
"104 123 OFFCURVE",
"135 78 OFFCURVE",
"150 78 CURVE SMOOTH",
"213 78 OFFCURVE",
"283 159 OFFCURVE",
"283 231 CURVE",
"279 223 OFFCURVE",
"265 218 OFFCURVE",
"249 218 CURVE SMOOTH",
"221 218 OFFCURVE",
"198 243 OFFCURVE",
"198 275 CURVE SMOOTH",
"198 308 OFFCURVE",
"226 336 OFFCURVE",
"259 336 CURVE SMOOTH",
"302 336 OFFCURVE",
"336 289 OFFCURVE",
"336 230 CURVE SMOOTH",
"336 135 OFFCURVE",
"235 15 OFFCURVE",
"155 15 CURVE SMOOTH",
"123 15 OFFCURVE",
"59 103 OFFCURVE",
"59 146 CURVE SMOOTH",
"59 456 LINE",
"-10 456 LINE"
);
}
);
};
layerId = "4AE238AB-6A4C-459B-8E99-4D2856E6BBFA";
name = Regular;
paths = (
{
closed = 1;
nodes = (
"483 554 LINE SMOOTH",
"492 554 OFFCURVE",
"498 561 OFFCURVE",
"498 572 CURVE SMOOTH",
"498 580 OFFCURVE",
"491 587 OFFCURVE",
"483 587 CURVE SMOOTH",
"168 587 LINE SMOOTH",
"161 587 OFFCURVE",
"153 582 OFFCURVE",
"153 571 CURVE SMOOTH",
"153 562 OFFCURVE",
"159 554 OFFCURVE",
"168 554 CURVE SMOOTH"
);
},
{
closed = 1;
nodes = (
"395 344 OFFCURVE",
"377 302 OFFCURVE",
"346 302 CURVE SMOOTH",
"324 302 OFFCURVE",
"307 317.512 OFFCURVE",
"307 338 CURVE SMOOTH",
"307 360.007 OFFCURVE",
"322 376 OFFCURVE",
"343 376 CURVE SMOOTH",
"406 376 OFFCURVE",
"411 282 OFFCURVE",
"353 178 CURVE SMOOTH",
"309 99 OFFCURVE",
"248 26 OFFCURVE",
"185 26 CURVE SMOOTH",
"155 26 OFFCURVE",
"137 42 OFFCURVE",
"139 115 CURVE SMOOTH",
"143 274 OFFCURVE",
"142 377 OFFCURVE",
"140 516 CURVE SMOOTH",
"139 553 OFFCURVE",
"155 554 OFFCURVE",
"181 554 CURVE",
"177 587 LINE",
"118 587 OFFCURVE",
"96 584 OFFCURVE",
"97 521 CURVE SMOOTH",
"100 380 OFFCURVE",
"104 275 OFFCURVE",
"100 115 CURVE SMOOTH",
"98 28 OFFCURVE",
"134 -7 OFFCURVE",
"195 -7 CURVE SMOOTH",
"287 -7 OFFCURVE",
"371 120 OFFCURVE",
"401 180 CURVE SMOOTH",
"459 295 OFFCURVE",
"447.56 406 OFFCURVE",
"343 406 CURVE SMOOTH",
"301.566 406 OFFCURVE",
"271 376.645 OFFCURVE",
"271 338 CURVE SMOOTH",
"271 300.88 OFFCURVE",
"301.775 272 OFFCURVE",
"341 272 CURVE SMOOTH",
"403 272 OFFCURVE",
"415 339 OFFCURVE",
"398 370 CURVE",
"372 367 LINE"
);
},
{
closed = 1;
nodes = (
"-8 587 OFFCURVE",
"-26 585 OFFCURVE",
"-26 570 CURVE SMOOTH",
"-26 561 OFFCURVE",
"-20 554 OFFCURVE",
"-8 554 CURVE SMOOTH",
"30 554 LINE SMOOTH",
"93 554 OFFCURVE",
"98 494 OFFCURVE",
"99 454 CURVE SMOOTH",
"99 442 OFFCURVE",
"100 433 OFFCURVE",
"107 433 CURVE SMOOTH",
"118 433 OFFCURVE",
"118 451 OFFCURVE",
"118 453 CURVE SMOOTH",
"118 550 OFFCURVE",
"100 587 OFFCURVE",
"12 587 CURVE SMOOTH"
);
}
);
width = 488;
}
);
note = uni09A2;
unicode = 09A2;
},
{
color = 3;
glyphname = uni09A3;
lastChange = "2015-10-07 10:07:53 +0000";
layers = (
{
background = {
paths = (
{
closed = 1;
nodes = (
"300 491 LINE",
"420 491 LINE",
"420 456 LINE",
"340 456 LINE",
"340 0 LINE",
"300 0 LINE"
);
},
{
closed = 1;
nodes = (
"304 271 LINE",
"292 367 OFFCURVE",
"246 447 OFFCURVE",
"169 447 CURVE SMOOTH",
"111 447 OFFCURVE",
"73 402 OFFCURVE",
"73 351 CURVE SMOOTH",
"73 306 OFFCURVE",
"102 279 OFFCURVE",
"133 279 CURVE SMOOTH",
"141 279 OFFCURVE",
"153 281 OFFCURVE",
"164 286 CURVE",
"134 245 LINE",
"122 261 OFFCURVE",
"114 278 OFFCURVE",
"114 296 CURVE SMOOTH",
"114 325 OFFCURVE",
"135 348 OFFCURVE",
"165 348 CURVE SMOOTH",
"194 348 OFFCURVE",
"219 325 OFFCURVE",
"219 294 CURVE SMOOTH",
"219 262 OFFCURVE",
"194 237 OFFCURVE",
"153 237 CURVE SMOOTH",
"90 237 OFFCURVE",
"23 298 OFFCURVE",
"23 375 CURVE SMOOTH",
"23 443 OFFCURVE",
"74 500 OFFCURVE",
"149 500 CURVE SMOOTH",
"225 500 OFFCURVE",
"302 441 OFFCURVE",
"329 277 CURVE"
);
}
);
};
layerId = "4AE238AB-6A4C-459B-8E99-4D2856E6BBFA";
name = Regular;
paths = (
{
closed = 1;
nodes = (
"409 423 OFFCURVE",
"328 590 OFFCURVE",
"183 590 CURVE SMOOTH",
"133 590 OFFCURVE",
"20 556 OFFCURVE",
"20 434 CURVE SMOOTH",
"20 330 OFFCURVE",
"117 283 OFFCURVE",
"172 283 CURVE SMOOTH",
"218 283 OFFCURVE",
"247 315 OFFCURVE",
"247 350 CURVE SMOOTH",
"247 387 OFFCURVE",
"220 413 OFFCURVE",
"183 413 CURVE SMOOTH",
"145 413 OFFCURVE",
"117 387 OFFCURVE",
"117 354 CURVE SMOOTH",
"117 315 OFFCURVE",
"158 296 OFFCURVE",
"183 296 CURVE",
"179 313 LINE",
"164 313 OFFCURVE",
"146 330 OFFCURVE",
"146 347 CURVE SMOOTH",
"146 369 OFFCURVE",
"165 383 OFFCURVE",
"183 383 CURVE SMOOTH",
"200 383 OFFCURVE",
"217 370 OFFCURVE",
"217 350 CURVE SMOOTH",
"217 332 OFFCURVE",
"206 313 OFFCURVE",
"183 313 CURVE SMOOTH",
"135 313 OFFCURVE",
"61 344 OFFCURVE",
"61 434 CURVE SMOOTH",
"61 518 OFFCURVE",
"135 553 OFFCURVE",
"186 553 CURVE SMOOTH",
"294 553 OFFCURVE",
"383 405 OFFCURVE",
"384 284 CURVE",
"409 301 LINE"
);
},
{
closed = 1;
nodes = (
"425 -12 OFFCURVE",
"419 23 OFFCURVE",
"419 71 CURVE SMOOTH",
"419 409 OFFCURVE",
"423 492 OFFCURVE",
"431 583 CURVE SMOOTH",
"432 597 OFFCURVE",
"430 609 OFFCURVE",
"418 609 CURVE SMOOTH",
"383 609 OFFCURVE",
"383 380 OFFCURVE",
"383 71 CURVE SMOOTH",
"383 23 OFFCURVE",
"383 -12 OFFCURVE",
"404 -12 CURVE SMOOTH"
);
},
{
closed = 1;
nodes = (
"548 582 OFFCURVE",
"539 587 OFFCURVE",
"530 587 CURVE SMOOTH",
"518 587 OFFCURVE",
"493 587 OFFCURVE",
"472 587 CURVE SMOOTH",
"440 587 OFFCURVE",
"435 587 OFFCURVE",
"430 599 CURVE SMOOTH",
"427 606 OFFCURVE",
"417 602 OFFCURVE",
"417 592 CURVE SMOOTH",
"417 576 OFFCURVE",
"435 554 OFFCURVE",
"467 554 CURVE SMOOTH",
"530 554 LINE SMOOTH",
"539 554 OFFCURVE",
"548 558 OFFCURVE",
"548 571 CURVE SMOOTH"
);
}
);
width = 521;
}
);
note = uni09A3;
unicode = 09A3;
},
{
color = 3;
glyphname = uni09A4;
lastChange = "2015-10-07 10:08:17 +0000";
layers = (
{
background = {
paths = (
{
closed = 1;
nodes = (
"-50 500 LINE",
"500 500 LINE",
"530 456 LINE",
"-20 456 LINE"
);
},
{
closed = 1;
nodes = (
"201 369 OFFCURVE",
"255 416 OFFCURVE",
"322 416 CURVE SMOOTH",
"413 416 OFFCURVE",
"487 328 OFFCURVE",
"487 220 CURVE SMOOTH",
"487 120 OFFCURVE",
"408 40 OFFCURVE",
"312 40 CURVE SMOOTH",
"179 40 OFFCURVE",
"51 213 OFFCURVE",
"10 449 CURVE",
"46 420 LINE",
"85 241 OFFCURVE",
"192 113 OFFCURVE",
"307 113 CURVE SMOOTH",
"380 113 OFFCURVE",
"439 176 OFFCURVE",
"439 255 CURVE SMOOTH",
"439 311 OFFCURVE",
"399 357 OFFCURVE",
"351 357 CURVE SMOOTH",
"343 357 OFFCURVE",
"338 355 OFFCURVE",
"335 354 CURVE",
"347 345 OFFCURVE",
"353 329 OFFCURVE",
"353 310 CURVE SMOOTH",
"353 265 OFFCURVE",
"318 228 OFFCURVE",
"277 228 CURVE SMOOTH",
"236 228 OFFCURVE",
"201 265 OFFCURVE",
"201 310 CURVE SMOOTH"
);
}
);
};
layerId = "4AE238AB-6A4C-459B-8E99-4D2856E6BBFA";
name = Regular;
paths = (
{
closed = 1;
nodes = (
"565 554 LINE SMOOTH",
"574 554 OFFCURVE",
"580 561 OFFCURVE",
"580 572 CURVE SMOOTH",
"580 580 OFFCURVE",
"573 587 OFFCURVE",
"565 587 CURVE SMOOTH",
"-25 587 LINE SMOOTH",
"-32 587 OFFCURVE",
"-40 582 OFFCURVE",
"-40 571 CURVE SMOOTH",
"-40 562 OFFCURVE",
"-34 554 OFFCURVE",
"-25 554 CURVE SMOOTH"
);
},
{
closed = 1;
nodes = (
"436 457 OFFCURVE",
"513 359 OFFCURVE",
"513 253 CURVE SMOOTH",
"513 149 OFFCURVE",
"447 57 OFFCURVE",
"331 57 CURVE SMOOTH",
"183 57 OFFCURVE",
"89 182 OFFCURVE",
"28 414 CURVE SMOOTH",
"25 425 OFFCURVE",
"30 436 OFFCURVE",
"39 438 CURVE SMOOTH",
"48 440 OFFCURVE",
"58 434 OFFCURVE",
"61 422 CURVE SMOOTH",
"114 227 OFFCURVE",
"190 98 OFFCURVE",
"322 98 CURVE SMOOTH",
"407 98 OFFCURVE",
"478 163 OFFCURVE",
"478 265 CURVE SMOOTH",
"478 368 OFFCURVE",
"396 424 OFFCURVE",
"335 424 CURVE SMOOTH",
"286 424 OFFCURVE",
"251 403 OFFCURVE",
"251 369 CURVE SMOOTH",
"251 343 OFFCURVE",
"271 326 OFFCURVE",
"293 326 CURVE SMOOTH",
"319 326 OFFCURVE",
"340 343 OFFCURVE",
"340 371 CURVE SMOOTH",
"340 402 OFFCURVE",
"310 431 OFFCURVE",
"271 407 CURVE",
"275 435 LINE",
"325 460 OFFCURVE",
"373 414 OFFCURVE",
"373 363 CURVE SMOOTH",
"373 322 OFFCURVE",
"341 291 OFFCURVE",
"299 291 CURVE SMOOTH",
"251 291 OFFCURVE",
"216 325 OFFCURVE",
"216 371 CURVE SMOOTH",
"216 421 OFFCURVE",
"262 457 OFFCURVE",
"328 457 CURVE SMOOTH"
);
}
);
width = 567;
}
);
note = uni09A4;
unicode = 09A4;
},
{
color = 3;
glyphname = uni09A5;
lastChange = "2015-10-07 10:08:34 +0000";
layers = (
{
background = {
paths = (
{
closed = 1;
nodes = (
"295 307 OFFCURVE",
"245 246 OFFCURVE",
"143 229 CURVE",
"146 249 LINE",
"241 221 OFFCURVE",
"309 158 OFFCURVE",
"349 76 CURVE",
"335 72 LINE",
"335 491 LINE",
"455 491 LINE",
"455 456 LINE",
"375 456 LINE",
"375 0 LINE",
"350 0 LINE",
"323 121 OFFCURVE",
"235 186 OFFCURVE",
"98 208 CURVE",
"51 272 LINE",
"187 272 OFFCURVE",
"254 335 OFFCURVE",
"254 399 CURVE SMOOTH",
"254 439 OFFCURVE",
"227 456 OFFCURVE",
"192 456 CURVE SMOOTH",
"145 456 OFFCURVE",
"107 426 OFFCURVE",
"93 395 CURVE",
"81 411 LINE",
"87 415 OFFCURVE",
"93 416 OFFCURVE",
"98 416 CURVE SMOOTH",
"122 416 OFFCURVE",
"139 396 OFFCURVE",
"139 371 CURVE SMOOTH",
"139 343 OFFCURVE",
"118 323 OFFCURVE",
"89 323 CURVE SMOOTH",
"58 323 OFFCURVE",
"34 348 OFFCURVE",
"34 386 CURVE SMOOTH",
"34 448 OFFCURVE",
"99 500 OFFCURVE",
"170 500 CURVE SMOOTH",
"247 500 OFFCURVE",
"295 439 OFFCURVE",
"295 374 CURVE SMOOTH"
);
}
);
};
layerId = "4AE238AB-6A4C-459B-8E99-4D2856E6BBFA";
name = Regular;
paths = (
{
closed = 1;
nodes = (
"127 459 OFFCURVE",
"111 446 OFFCURVE",
"96 446 CURVE SMOOTH",
"78 446 OFFCURVE",
"65 461 OFFCURVE",
"65 478 CURVE SMOOTH",
"65 495 OFFCURVE",
"79 509 OFFCURVE",
"96 509 CURVE SMOOTH",
"111 509 OFFCURVE",
"127 500 OFFCURVE",
"127 480 CURVE SMOOTH"
);
},
{
closed = 1;
nodes = (
"234 248 OFFCURVE",
"175 272 OFFCURVE",
"136 288 CURVE",
"140 278 LINE",
"237 290 OFFCURVE",
"318 343 OFFCURVE",
"318 440 CURVE SMOOTH",
"318 539 OFFCURVE",
"254 590 OFFCURVE",
"168 590 CURVE SMOOTH",
"108 590 OFFCURVE",
"30 546 OFFCURVE",
"30 479 CURVE SMOOTH",
"30 446 OFFCURVE",
"56 415 OFFCURVE",
"96 415 CURVE SMOOTH",
"135 415 OFFCURVE",
"160 445 OFFCURVE",
"160 476 CURVE SMOOTH",
"160 511 OFFCURVE",
"127 539 OFFCURVE",
"95 531 CURVE",
"115 549 OFFCURVE",
"148 558 OFFCURVE",
"177 558 CURVE SMOOTH",
"249 558 OFFCURVE",
"288 511 OFFCURVE",
"288 447 CURVE SMOOTH",
"288 406 OFFCURVE",
"265 368 OFFCURVE",
"226 343 CURVE SMOOTH",
"201 327 OFFCURVE",
"159 307 OFFCURVE",
"95 307 CURVE SMOOTH",
"56 307 OFFCURVE",
"70 266 OFFCURVE",
"93 259 CURVE SMOOTH",
"129 248 OFFCURVE",
"178 237 OFFCURVE",
"264 183 CURVE SMOOTH",
"332 140 OFFCURVE",
"382 84 OFFCURVE",
"382 37 CURVE SMOOTH",
"382 7 OFFCURVE",
"387 -11 OFFCURVE",
"402 -11 CURVE SMOOTH",
"413 -11 OFFCURVE",
"423 -4 OFFCURVE",
"423 15 CURVE SMOOTH",
"423 98 OFFCURVE",
"344 170 OFFCURVE",
"270 222 CURVE SMOOTH"
);
},
{
closed = 1;
nodes = (
"425 -12 OFFCURVE",
"419 23 OFFCURVE",
"419 71 CURVE SMOOTH",
"419 409 OFFCURVE",
"423 492 OFFCURVE",
"431 583 CURVE SMOOTH",
"432 597 OFFCURVE",
"430 609 OFFCURVE",
"418 609 CURVE SMOOTH",
"383 609 OFFCURVE",
"383 380 OFFCURVE",
"383 71 CURVE SMOOTH",
"383 23 OFFCURVE",
"383 -12 OFFCURVE",
"404 -12 CURVE SMOOTH"
);
},
{
closed = 1;
nodes = (
"548 582 OFFCURVE",
"539 587 OFFCURVE",
"530 587 CURVE SMOOTH",
"518 587 OFFCURVE",
"493 587 OFFCURVE",
"472 587 CURVE SMOOTH",
"440 587 OFFCURVE",
"435 587 OFFCURVE",
"430 599 CURVE SMOOTH",
"427 606 OFFCURVE",
"417 602 OFFCURVE",
"417 592 CURVE SMOOTH",
"417 576 OFFCURVE",
"435 554 OFFCURVE",
"467 554 CURVE SMOOTH",
"530 554 LINE SMOOTH",
"539 554 OFFCURVE",
"548 558 OFFCURVE",
"548 571 CURVE SMOOTH"
);
}
);
width = 518;
}
);
note = uni09A5;
unicode = 09A5;
},
{
color = 3;
glyphname = uni09A6;
lastChange = "2015-10-07 10:08:53 +0000";
layers = (
{
background = {
paths = (
{
closed = 1;
nodes = (
"-40 500 LINE",
"347 500 LINE",
"377 456 LINE",
"89 456 LINE",
"89 265 LINE",
"135 328 OFFCURVE",
"200 375 OFFCURVE",
"285 406 CURVE",
"342 344 LINE",
"286 277 OFFCURVE",
"256 206 OFFCURVE",
"256 141 CURVE SMOOTH",
"256 83 OFFCURVE",
"265 30 OFFCURVE",
"282 -17 CURVE",
"252 1 LINE",
"226 57 OFFCURVE",
"213 110 OFFCURVE",
"213 161 CURVE SMOOTH",
"213 226 OFFCURVE",
"223 277 OFFCURVE",
"244 313 CURVE",
"186 280 OFFCURVE",
"135 225 OFFCURVE",
"91 148 CURVE",
"44 209 LINE",
"44 456 LINE",
"-10 456 LINE"
);
}
);
};
layerId = "4AE238AB-6A4C-459B-8E99-4D2856E6BBFA";
name = Regular;
paths = (
{
closed = 1;
nodes = (
"-11 587 OFFCURVE",
"-26 585 OFFCURVE",
"-26 570 CURVE SMOOTH",
"-26 561 OFFCURVE",
"-20 554 OFFCURVE",
"-8 554 CURVE SMOOTH",
"23 554 LINE SMOOTH",
"86 554 OFFCURVE",
"91 494 OFFCURVE",
"92 454 CURVE",
"111 453 LINE",
"111 550 OFFCURVE",
"90 587 OFFCURVE",
"2 587 CURVE SMOOTH"
);
},
{
closed = 1;
nodes = (
"158 587 LINE SMOOTH",
"120 587 OFFCURVE",
"91 564 OFFCURVE",
"91 516 CURVE SMOOTH",
"91 489 OFFCURVE",
"92 460 OFFCURVE",
"92 361 CURVE SMOOTH",
"92 259 OFFCURVE",
"86 160 OFFCURVE",
"86 144 CURVE SMOOTH",
"86 122 OFFCURVE",
"111 116 OFFCURVE",
"122 130 CURVE SMOOTH",
"153 169 OFFCURVE",
"275 330 OFFCURVE",
"411 386 CURVE",
"403 394 LINE",
"355 255 OFFCURVE",
"369 135 OFFCURVE",
"391 42 CURVE SMOOTH",
"403 -9 OFFCURVE",
"407 -25 OFFCURVE",
"427 -25 CURVE SMOOTH",
"444 -25 OFFCURVE",
"440 8 OFFCURVE",
"432 43 CURVE SMOOTH",
"404 164 OFFCURVE",
"399 243 OFFCURVE",
"440 391 CURVE SMOOTH",
"446 413 OFFCURVE",
"446 437 OFFCURVE",
"427 437 CURVE SMOOTH",
"380 437 OFFCURVE",
"215 320 OFFCURVE",
"118 190 CURVE",
"127 192 LINE",
"131 234 OFFCURVE",
"131 449 OFFCURVE",
"127 508 CURVE SMOOTH",
"125 550 OFFCURVE",
"154 554 OFFCURVE",
"176 554 CURVE SMOOTH",
"528 554 LINE SMOOTH",
"537 554 OFFCURVE",
"543 561 OFFCURVE",
"543 572 CURVE SMOOTH",
"543 580 OFFCURVE",
"536 587 OFFCURVE",
"528 587 CURVE SMOOTH"
);
}
);
width = 528;
}
);
note = uni09A6;
unicode = 09A6;
},
{
color = 3;
glyphname = uni09A7;
lastChange = "2015-10-07 10:09:12 +0000";
layers = (
{
background = {
paths = (
{
closed = 1;
nodes = (
"371 500 LINE",
"401 456 LINE",
"321 456 LINE",
"321 -23 LINE",
"296 1 LINE",
"296 86 OFFCURVE",
"202 165 OFFCURVE",
"74 188 CURVE",
"17 260 LINE",
"134 348 LINE",
"86 348 OFFCURVE",
"48 386 OFFCURVE",
"48 434 CURVE SMOOTH",
"48 475 OFFCURVE",
"88 510 OFFCURVE",
"139 510 CURVE SMOOTH",
"174 510 OFFCURVE",
"201 487 OFFCURVE",
"201 458 CURVE SMOOTH",
"201 435 OFFCURVE",
"179 417 OFFCURVE",
"154 417 CURVE SMOOTH",
"125 417 OFFCURVE",
"101 439 OFFCURVE",
"112 456 CURVE",
"97 456 OFFCURVE",
"86 446 OFFCURVE",
"86 434 CURVE SMOOTH",
"86 403 OFFCURVE",
"127 378 OFFCURVE",
"178 378 CURVE",
"276 444 LINE",
"276 500 LINE"
);
},
{
closed = 1;
nodes = (
"165 233 OFFCURVE",
"233 182 OFFCURVE",
"276 107 CURVE",
"276 380 LINE",
"89 246 LINE"
);
}
);
};
layerId = "4AE238AB-6A4C-459B-8E99-4D2856E6BBFA";
name = Regular;
paths = (
{
closed = 1;
nodes = (
"410 148 OFFCURVE",
"210 270 OFFCURVE",
"61 294 CURVE",
"62 290 LINE",
"104 316 OFFCURVE",
"141 342 OFFCURVE",
"216 376 CURVE SMOOTH",
"293 411 OFFCURVE",
"356 430 OFFCURVE",
"396 435 CURVE",
"387 472 LINE",
"345 466 OFFCURVE",
"274 445 OFFCURVE",
"205 413 CURVE SMOOTH",
"159 392 OFFCURVE",
"93 355 OFFCURVE",
"55 326 CURVE SMOOTH",
"46 319 OFFCURVE",
"36 311 OFFCURVE",
"36 298 CURVE SMOOTH",
"36 287 OFFCURVE",
"43 261 OFFCURVE",
"67 257 CURVE SMOOTH",
"176 239 OFFCURVE",
"369 124 OFFCURVE",
"369 45 CURVE SMOOTH",
"369 12 OFFCURVE",
"372 -12 OFFCURVE",
"391 -12 CURVE SMOOTH",
"402 -12 OFFCURVE",
"410 -3 OFFCURVE",
"410 12 CURVE SMOOTH"
);
},
{
closed = 1;
nodes = (
"240 428 LINE",
"199 417 OFFCURVE",
"131 435 OFFCURVE",
"131 500 CURVE SMOOTH",
"131 544 OFFCURVE",
"168 572 OFFCURVE",
"193 572 CURVE SMOOTH",
"209 572 OFFCURVE",
"226 560 OFFCURVE",
"226 541 CURVE SMOOTH",
"227 524 OFFCURVE",
"215 510 OFFCURVE",
"195 510 CURVE SMOOTH",
"160 510 OFFCURVE",
"147 553 OFFCURVE",
"177 569 CURVE",
"146 579 LINE",
"109 521 OFFCURVE",
"150 481 OFFCURVE",
"197 481 CURVE SMOOTH",
"230 481 OFFCURVE",
"259 505 OFFCURVE",
"257 548 CURVE SMOOTH",
"254 583 OFFCURVE",
"225 607 OFFCURVE",
"188 605 CURVE SMOOTH",
"146 603 OFFCURVE",
"94 565 OFFCURVE",
"94 498 CURVE SMOOTH",
"94 417 OFFCURVE",
"190 379 OFFCURVE",
"240 399 CURVE"
);
},
{
closed = 1;
nodes = (
"411 -12 OFFCURVE",
"405 23 OFFCURVE",
"405 71 CURVE SMOOTH",
"405 409 OFFCURVE",
"409 492 OFFCURVE",
"417 583 CURVE SMOOTH",
"418 597 OFFCURVE",
"416 609 OFFCURVE",
"404 609 CURVE SMOOTH",
"369 609 OFFCURVE",
"369 380 OFFCURVE",
"369 71 CURVE SMOOTH",
"369 23 OFFCURVE",
"369 -12 OFFCURVE",
"390 -12 CURVE SMOOTH"
);
},
{
closed = 1;
nodes = (
"534 582 OFFCURVE",
"525 587 OFFCURVE",
"516 587 CURVE SMOOTH",
"504 587 OFFCURVE",
"479 587 OFFCURVE",
"458 587 CURVE SMOOTH",
"426 587 OFFCURVE",
"421 587 OFFCURVE",
"416 599 CURVE SMOOTH",
"413 606 OFFCURVE",
"403 602 OFFCURVE",
"403 592 CURVE SMOOTH",
"403 576 OFFCURVE",
"421 554 OFFCURVE",
"453 554 CURVE SMOOTH",
"516 554 LINE SMOOTH",
"525 554 OFFCURVE",
"534 558 OFFCURVE",
"534 571 CURVE SMOOTH"
);
}
);
width = 503;
}
);
note = uni09A7;
unicode = 09A7;
},
{
color = 3;
glyphname = uni09A8;
lastChange = "2015-10-07 10:09:37 +0000";
layers = (
{
background = {
paths = (
{
closed = 1;
nodes = (
"-55 500 LINE",
"399 500 LINE",
"429 456 LINE",
"349 456 LINE",
"349 -23 LINE",
"323 1 LINE",
"308 164 OFFCURVE",
"225 288 OFFCURVE",
"132 288 CURVE",
"151 281 OFFCURVE",
"164 258 OFFCURVE",
"164 230 CURVE SMOOTH",
"164 185 OFFCURVE",
"129 149 OFFCURVE",
"85 149 CURVE SMOOTH",
"41 149 OFFCURVE",
"6 185 OFFCURVE",
"6 230 CURVE SMOOTH",
"6 291 OFFCURVE",
"58 341 OFFCURVE",
"122 341 CURVE SMOOTH",
"197 341 OFFCURVE",
"268 284 OFFCURVE",
"304 196 CURVE",
"304 456 LINE",
"-25 456 LINE"
);
}
);
};
layerId = "4AE238AB-6A4C-459B-8E99-4D2856E6BBFA";
name = Regular;
paths = (
{
closed = 1;
nodes = (
"-14 562 OFFCURVE",
"-8 554 OFFCURVE",
"1 554 CURVE SMOOTH",
"293 554 LINE SMOOTH",
"341 554 OFFCURVE",
"370 522 OFFCURVE",
"372 454 CURVE SMOOTH",
"372 443 OFFCURVE",
"373 433 OFFCURVE",
"381 433 CURVE SMOOTH",
"391 433 OFFCURVE",
"391 450 OFFCURVE",
"391 459 CURVE SMOOTH",
"391 539 OFFCURVE",
"360 587 OFFCURVE",
"276 587 CURVE SMOOTH",
"1 587 LINE SMOOTH",
"-6 587 OFFCURVE",
"-14 582 OFFCURVE",
"-14 571 CURVE SMOOTH"
);
},
{
closed = 1;
nodes = (
"401 -12 OFFCURVE",
"408 0 OFFCURVE",
"408 17 CURVE SMOOTH",
"408 178 OFFCURVE",
"312 396 OFFCURVE",
"149 396 CURVE SMOOTH",
"96 396 OFFCURVE",
"42 361 OFFCURVE",
"42 301 CURVE SMOOTH",
"42 254 OFFCURVE",
"76 218 OFFCURVE",
"121 218 CURVE SMOOTH",
"166 218 OFFCURVE",
"200 251 OFFCURVE",
"200 294 CURVE SMOOTH",
"200 351 OFFCURVE",
"140 390 OFFCURVE",
"83 358 CURVE",
"89 333 LINE",
"124 361 OFFCURVE",
"165 333 OFFCURVE",
"165 299 CURVE SMOOTH",
"165 276 OFFCURVE",
"146 254 OFFCURVE",
"122 254 CURVE SMOOTH",
"99 254 OFFCURVE",
"76 272 OFFCURVE",
"76 299 CURVE SMOOTH",
"76 328 OFFCURVE",
"106 357 OFFCURVE",
"154 357 CURVE SMOOTH",
"276 357 OFFCURVE",
"367 189 OFFCURVE",
"367 48 CURVE SMOOTH",
"367 8 OFFCURVE",
"372 -12 OFFCURVE",
"388 -12 CURVE SMOOTH"
);
},
{
closed = 1;
nodes = (
"409 -12 OFFCURVE",
"403 23 OFFCURVE",
"403 71 CURVE SMOOTH",
"403 409 OFFCURVE",
"407 492 OFFCURVE",
"415 583 CURVE SMOOTH",
"416 597 OFFCURVE",
"414 609 OFFCURVE",
"402 609 CURVE SMOOTH",
"367 609 OFFCURVE",
"367 380 OFFCURVE",
"367 71 CURVE SMOOTH",
"367 23 OFFCURVE",
"367 -12 OFFCURVE",
"388 -12 CURVE SMOOTH"
);
},
{
closed = 1;
nodes = (
"532 582 OFFCURVE",
"523 587 OFFCURVE",
"514 587 CURVE SMOOTH",
"502 587 OFFCURVE",
"477 587 OFFCURVE",
"456 587 CURVE SMOOTH",
"424 587 OFFCURVE",
"419 587 OFFCURVE",
"414 599 CURVE SMOOTH",
"411 606 OFFCURVE",
"401 602 OFFCURVE",
"401 592 CURVE SMOOTH",
"401 576 OFFCURVE",
"419 554 OFFCURVE",
"451 554 CURVE SMOOTH",
"514 554 LINE SMOOTH",
"523 554 OFFCURVE",
"532 558 OFFCURVE",
"532 571 CURVE SMOOTH"
);
}
);
width = 502;
}
);
note = uni09A8;
unicode = 09A8;
},
{
color = 3;
glyphname = uni09AA;
lastChange = "2015-10-07 10:10:01 +0000";
layers = (
{
background = {
paths = (
{
closed = 1;
nodes = (
"396 559 LINE",
"396 527 OFFCURVE",
"410 500 OFFCURVE",
"429 500 CURVE SMOOTH",
"467 500 LINE",
"497 456 LINE",
"417 456 LINE",
"417 -3 LINE",
"372 41 LINE",
"372 260 LINE SMOOTH",
"372 293 OFFCURVE",
"351 334 OFFCURVE",
"315 370 CURVE",
"146 205 LINE",
"83 247 LINE",
"115 271 LINE",
"127 283 OFFCURVE",
"134 298 OFFCURVE",
"134 314 CURVE SMOOTH",
"134 335 OFFCURVE",
"120 352 OFFCURVE",
"101 352 CURVE SMOOTH",
"94 352 OFFCURVE",
"85 348 OFFCURVE",
"74 340 CURVE",
"63 331 OFFCURVE",
"54 327 OFFCURVE",
"47 327 CURVE SMOOTH",
"30 327 OFFCURVE",
"15 346 OFFCURVE",
"15 369 CURVE SMOOTH",
"15 417 OFFCURVE",
"125 505 OFFCURVE",
"186 505 CURVE SMOOTH",
"243 505 OFFCURVE",
"315 444 OFFCURVE",
"372 345 CURVE",
"372 582 LINE"
);
},
{
closed = 1;
nodes = (
"148 391 OFFCURVE",
"172 360 OFFCURVE",
"172 323 CURVE",
"272 414 LINE",
"259 437 OFFCURVE",
"239 451 OFFCURVE",
"220 451 CURVE SMOOTH",
"187 451 OFFCURVE",
"149 430 OFFCURVE",
"117 391 CURVE"
);
}
);
};
layerId = "4AE238AB-6A4C-459B-8E99-4D2856E6BBFA";
name = Regular;
paths = (
{
closed = 1;
nodes = (
"272 355 LINE",
"249 336 OFFCURVE",
"212 326 OFFCURVE",
"164 326 CURVE SMOOTH",
"115 326 OFFCURVE",
"71 364 OFFCURVE",
"75 415 CURVE SMOOTH",
"81 488 OFFCURVE",
"155 530 OFFCURVE",
"238 530 CURVE SMOOTH",
"343 530 OFFCURVE",
"442 434 OFFCURVE",
"442 278 CURVE",
"465 294 LINE",
"465 470 OFFCURVE",
"367 564 OFFCURVE",
"230 564 CURVE SMOOTH",
"133 564 OFFCURVE",
"38 503 OFFCURVE",
"33 416 CURVE SMOOTH",
"29 347 OFFCURVE",
"94 295 OFFCURVE",
"161 295 CURVE SMOOTH",
"216 295 OFFCURVE",
"251 318 OFFCURVE",
"266 324 CURVE"
);
},
{
closed = 1;
nodes = (
"366 418 OFFCURVE",
"316 391 OFFCURVE",
"261 346 CURVE SMOOTH",
"208 302 OFFCURVE",
"164 240 OFFCURVE",
"164 221 CURVE SMOOTH",
"164 216 OFFCURVE",
"168 208 OFFCURVE",
"178 208 CURVE SMOOTH",
"197 208 OFFCURVE",
"219 272 OFFCURVE",
"290 327 CURVE SMOOTH",
"347 371 OFFCURVE",
"390 392 OFFCURVE",
"428 406 CURVE",
"411 433 LINE"
);
},
{
closed = 1;
nodes = (
"483 -12 OFFCURVE",
"477 23 OFFCURVE",
"477 71 CURVE SMOOTH",
"477 409 OFFCURVE",
"481 492 OFFCURVE",
"489 583 CURVE SMOOTH",
"490 597 OFFCURVE",
"488 609 OFFCURVE",
"476 609 CURVE SMOOTH",
"441 609 OFFCURVE",
"441 380 OFFCURVE",
"441 71 CURVE SMOOTH",
"441 23 OFFCURVE",
"441 -12 OFFCURVE",
"462 -12 CURVE SMOOTH"
);
},
{
closed = 1;
nodes = (
"606 582 OFFCURVE",
"597 587 OFFCURVE",
"588 587 CURVE SMOOTH",
"576 587 OFFCURVE",
"551 587 OFFCURVE",
"530 587 CURVE SMOOTH",
"498 587 OFFCURVE",
"493 587 OFFCURVE",
"488 599 CURVE SMOOTH",
"485 606 OFFCURVE",
"475 602 OFFCURVE",
"475 592 CURVE SMOOTH",
"475 576 OFFCURVE",
"493 554 OFFCURVE",
"525 554 CURVE SMOOTH",
"588 554 LINE SMOOTH",
"597 554 OFFCURVE",
"606 558 OFFCURVE",
"606 571 CURVE SMOOTH"
);
}
);
width = 580;
}
);
note = uni09AA;
unicode = 09AA;
},
{
color = 3;
glyphname = uni09AB;
lastChange = "2015-10-07 10:10:24 +0000";
layers = (
{
background = {
paths = (
{
closed = 1;
nodes = (
"371 421 LINE",
"440 421 OFFCURVE",
"497 362 OFFCURVE",
"497 290 CURVE SMOOTH",
"497 239 OFFCURVE",
"465 198 OFFCURVE",
"426 198 CURVE SMOOTH",
"394 198 OFFCURVE",
"369 221 OFFCURVE",
"369 250 CURVE SMOOTH",
"369 279 OFFCURVE",
"392 302 OFFCURVE",
"421 302 CURVE SMOOTH",
"437 302 OFFCURVE",
"451 295 OFFCURVE",
"456 283 CURVE",
"463 287 OFFCURVE",
"468 294 OFFCURVE",
"468 305 CURVE SMOOTH",
"468 340 OFFCURVE",
"434 367 OFFCURVE",
"391 367 CURVE SMOOTH",
"334 367 LINE",
"334 0 LINE",
"309 0 LINE",
"287 107 OFFCURVE",
"196 175 OFFCURVE",
"74 198 CURVE",
"27 260 LINE",
"183 375 LINE",
"186 347 LINE",
"150 390 OFFCURVE",
"126 405 OFFCURVE",
"86 418 CURVE SMOOTH",
"41 432 OFFCURVE",
"18 444 OFFCURVE",
"17 477 CURVE",
"68 456 LINE",
"-10 456 LINE",
"-10 491 LINE",
"531 491 LINE",
"531 456 LINE",
"78 456 LINE",
"77 482 LINE",
"132 441 OFFCURVE",
"183 394 OFFCURVE",
"229 341 CURVE",
"79 227 LINE",
"72 254 LINE",
"184 221 OFFCURVE",
"268 150 OFFCURVE",
"304 75 CURVE",
"294 72 LINE",
"294 421 LINE"
);
}
);
};
layerId = "4AE238AB-6A4C-459B-8E99-4D2856E6BBFA";
name = Regular;
paths = (
{
closed = 1;
nodes = (
"703 554 LINE SMOOTH",
"712 554 OFFCURVE",
"718 562 OFFCURVE",
"718 571 CURVE SMOOTH",
"718 582 OFFCURVE",
"710 587 OFFCURVE",
"703 587 CURVE SMOOTH",
"-7 587 LINE SMOOTH",
"-14 587 OFFCURVE",
"-22 582 OFFCURVE",
"-22 571 CURVE SMOOTH",
"-22 562 OFFCURVE",
"-16 554 OFFCURVE",
"-7 554 CURVE SMOOTH"
);
},
{
closed = 1;
nodes = (
"533 428 OFFCURVE",
"476 432 OFFCURVE",
"455 438 CURVE SMOOTH",
"425 447 OFFCURVE",
"421 475 OFFCURVE",
"421 502 CURVE SMOOTH",
"421 511 OFFCURVE",
"419 523 OFFCURVE",
"407 523 CURVE SMOOTH",
"377 523 OFFCURVE",
"381 350 OFFCURVE",
"381 254 CURVE SMOOTH",
"381 142 OFFCURVE",
"384 56 OFFCURVE",
"387 24 CURVE SMOOTH",
"390 -8 OFFCURVE",
"417 -24 OFFCURVE",
"417 8 CURVE SMOOTH",
"417 425 LINE",
"449 387 OFFCURVE",
"510 404 OFFCURVE",
"565 380 CURVE SMOOTH",
"605 362 OFFCURVE",
"634 326 OFFCURVE",
"625 282 CURVE",
"616 303 OFFCURVE",
"594 318 OFFCURVE",
"566 318 CURVE SMOOTH",
"530 318 OFFCURVE",
"498 293 OFFCURVE",
"498 255 CURVE SMOOTH",
"498 221 OFFCURVE",
"524 197 OFFCURVE",
"563 197 CURVE SMOOTH",
"616 197 OFFCURVE",
"655 240 OFFCURVE",
"655 299 CURVE SMOOTH",
"655 335 OFFCURVE",
"640 390 OFFCURVE",
"572 414 CURVE SMOOTH"
);
},
{
closed = 1;
nodes = (
"534 269 OFFCURVE",
"548 285 OFFCURVE",
"571 285 CURVE SMOOTH",
"591 285 OFFCURVE",
"606 272 OFFCURVE",
"606 254 CURVE SMOOTH",
"606 233 OFFCURVE",
"587 224 OFFCURVE",
"569 224 CURVE SMOOTH",
"548 224 OFFCURVE",
"534 239 OFFCURVE",
"534 254 CURVE SMOOTH"
);
},
{
closed = 1;
nodes = (
"427 141 OFFCURVE",
"264 243 OFFCURVE",
"119 287 CURVE",
"117 275 LINE",
"245 350 LINE SMOOTH",
"301 383 OFFCURVE",
"283 420 OFFCURVE",
"212 433 CURVE SMOOTH",
"76 458 OFFCURVE",
"86 520 OFFCURVE",
"86 561 CURVE",
"45 561 LINE",
"45 511 OFFCURVE",
"50 430 OFFCURVE",
"190 406 CURVE SMOOTH",
"237 398 OFFCURVE",
"246 387 OFFCURVE",
"201 363 CURVE SMOOTH",
"89 302 LINE SMOOTH",
"64 288 OFFCURVE",
"70 260 OFFCURVE",
"100 251 CURVE SMOOTH",
"215 216 OFFCURVE",
"386 137 OFFCURVE",
"386 36 CURVE SMOOTH",
"386 23 OFFCURVE",
"388 -11 OFFCURVE",
"410 -11 CURVE SMOOTH",
"419 -11 OFFCURVE",
"427 0 OFFCURVE",
"427 16 CURVE SMOOTH"
);
}
);
width = 698;
}
);
note = uni09AB;
unicode = 09AB;
},
{
color = 3;
glyphname = uni09AC;
lastChange = "2015-10-07 10:10:43 +0000";
layers = (
{
background = {
paths = (
{
closed = 1;
nodes = (
"239 353 OFFCURVE",
"164 313 OFFCURVE",
"90 246 CURVE",
"86 269 LINE",
"192 243 OFFCURVE",
"275 175 OFFCURVE",
"313 79 CURVE",
"304 72 LINE",
"304 466 LINE",
"344 466 LINE",
"344 0 LINE",
"319 0 LINE",
"299 114 OFFCURVE",
"212 191 OFFCURVE",
"82 208 CURVE",
"20 270 LINE",
"118 356 OFFCURVE",
"229 417 OFFCURVE",
"323 436 CURVE",
"328 382 LINE"
);
},
{
closed = 1;
nodes = (
"0 456 LINE",
"0 491 LINE",
"424 491 LINE",
"424 456 LINE"
);
},
{
closed = 1;
nodes = (
"392 167 OFFCURVE",
"398 173 OFFCURVE",
"398 180 CURVE SMOOTH",
"398 186 OFFCURVE",
"392 192 OFFCURVE",
"386 192 CURVE SMOOTH",
"379 192 OFFCURVE",
"373 186 OFFCURVE",
"373 180 CURVE SMOOTH",
"373 173 OFFCURVE",
"379 167 OFFCURVE",
"386 167 CURVE SMOOTH"
);
}
);
};
layerId = "4AE238AB-6A4C-459B-8E99-4D2856E6BBFA";
name = Regular;
paths = (
{
closed = 1;
nodes = (
"391 -12 OFFCURVE",
"399 -1 OFFCURVE",
"399 24 CURVE SMOOTH",
"399 135 OFFCURVE",
"264 265 OFFCURVE",
"50 312 CURVE",
"53 305 LINE",
"110 338 OFFCURVE",
"240 402 OFFCURVE",
"312 440 CURVE SMOOTH",
"363 467 OFFCURVE",
"378 487 OFFCURVE",
"378 520 CURVE SMOOTH",
"378 564 OFFCURVE",
"340 587 OFFCURVE",
"276 587 CURVE SMOOTH",
"-23 587 LINE SMOOTH",
"-30 587 OFFCURVE",
"-38 582 OFFCURVE",
"-38 571 CURVE SMOOTH",
"-38 562 OFFCURVE",
"-32 554 OFFCURVE",
"-23 554 CURVE SMOOTH",
"282 554 LINE SMOOTH",
"328 554 OFFCURVE",
"353 539 OFFCURVE",
"353 520 CURVE SMOOTH",
"353 496 OFFCURVE",
"326 485 OFFCURVE",
"286 465 CURVE SMOOTH",
"224 434 OFFCURVE",
"75 361 OFFCURVE",
"35 336 CURVE SMOOTH",
"12 321 OFFCURVE",
"15 282 OFFCURVE",
"52 274 CURVE SMOOTH",
"115 260 OFFCURVE",
"358 174 OFFCURVE",
"358 37 CURVE SMOOTH",
"358 22 OFFCURVE",
"360 -12 OFFCURVE",
"380 -12 CURVE SMOOTH"
);
},
{
closed = 1;
nodes = (
"400 -12 OFFCURVE",
"394 23 OFFCURVE",
"394 71 CURVE SMOOTH",
"394 409 OFFCURVE",
"398 492 OFFCURVE",
"406 583 CURVE SMOOTH",
"407 597 OFFCURVE",
"405 609 OFFCURVE",
"393 609 CURVE SMOOTH",
"361 609 OFFCURVE",
"358 380 OFFCURVE",
"358 71 CURVE SMOOTH",
"358 23 OFFCURVE",
"358 -12 OFFCURVE",
"379 -12 CURVE SMOOTH"
);
},
{
closed = 1;
nodes = (
"523 582 OFFCURVE",
"514 587 OFFCURVE",
"505 587 CURVE SMOOTH",
"493 587 OFFCURVE",
"468 587 OFFCURVE",
"447 587 CURVE SMOOTH",
"415 587 OFFCURVE",
"410 587 OFFCURVE",
"405 599 CURVE SMOOTH",
"402 606 OFFCURVE",
"392 602 OFFCURVE",
"392 592 CURVE SMOOTH",
"392 576 OFFCURVE",
"410 554 OFFCURVE",
"442 554 CURVE SMOOTH",
"505 554 LINE SMOOTH",
"514 554 OFFCURVE",
"523 558 OFFCURVE",
"523 571 CURVE SMOOTH"
);
}
);
width = 496;
}
);
note = uni09AC;
unicode = 09AC;
},
{
color = 3;
glyphname = uni09AD;
lastChange = "2015-10-07 10:11:00 +0000";
layers = (
{
background = {
paths = (
{
closed = 1;
nodes = (
"437 290 OFFCURVE",
"417 326 OFFCURVE",
"386 339 CURVE",
"419 348 LINE",
"390 297 OFFCURVE",
"336 250 OFFCURVE",
"268 250 CURVE SMOOTH",
"207 250 OFFCURVE",
"162 289 OFFCURVE",
"162 338 CURVE SMOOTH",
"162 376 OFFCURVE",
"190 403 OFFCURVE",
"225 403 CURVE SMOOTH",
"255 403 OFFCURVE",
"285 384 OFFCURVE",
"285 344 CURVE SMOOTH",
"285 318 OFFCURVE",
"273 303 OFFCURVE",
"260 296 CURVE",
"238 317 LINE",
"247 312 OFFCURVE",
"257 310 OFFCURVE",
"267 310 CURVE SMOOTH",
"311 310 OFFCURVE",
"352 345 OFFCURVE",
"379 397 CURVE",
"440 355 OFFCURVE",
"477 294 OFFCURVE",
"477 223 CURVE SMOOTH",
"477 122 OFFCURVE",
"401 46 OFFCURVE",
"307 46 CURVE SMOOTH",
"175 46 OFFCURVE",
"78 194 OFFCURVE",
"7 405 CURVE",
"32 414 LINE",
"97 221 OFFCURVE",
"183 105 OFFCURVE",
"296 105 CURVE SMOOTH",
"382 105 OFFCURVE",
"437 172 OFFCURVE",
"437 248 CURVE"
);
},
{
closed = 1;
nodes = (
"-10 491 LINE",
"525 491 LINE",
"525 456 LINE",
"-10 456 LINE"
);
}
);
};
layerId = "4AE238AB-6A4C-459B-8E99-4D2856E6BBFA";
name = Regular;
paths = (
{
closed = 1;
nodes = (
"209 338 LINE",
"258 289 OFFCURVE",
"331 325 OFFCURVE",
"331 386 CURVE SMOOTH",
"331 426 OFFCURVE",
"301 457 OFFCURVE",
"261 457 CURVE SMOOTH",
"221 457 OFFCURVE",
"180 426 OFFCURVE",
"180 383 CURVE SMOOTH",
"180 320 OFFCURVE",
"240 265 OFFCURVE",
"319 265 CURVE SMOOTH",
"414 265 OFFCURVE",
"445 359 OFFCURVE",
"456 359 CURVE SMOOTH",
"463 359 OFFCURVE",
"491 313 OFFCURVE",
"491 258 CURVE SMOOTH",
"491 159 OFFCURVE",
"407 98 OFFCURVE",
"327 98 CURVE SMOOTH",
"169 98 OFFCURVE",
"86 340 OFFCURVE",
"63 415 CURVE SMOOTH",
"59 428 OFFCURVE",
"55 438 OFFCURVE",
"42 438 CURVE SMOOTH",
"28 438 OFFCURVE",
"28 427 OFFCURVE",
"29 419 CURVE SMOOTH",
"36 364 OFFCURVE",
"138 57 OFFCURVE",
"339 57 CURVE SMOOTH",
"448 57 OFFCURVE",
"526 147 OFFCURVE",
"526 248 CURVE SMOOTH",
"526 320 OFFCURVE",
"496 373 OFFCURVE",
"477 393 CURVE SMOOTH",
"463 408 OFFCURVE",
"444 410 OFFCURVE",
"432 390 CURVE SMOOTH",
"424 377 OFFCURVE",
"389 295 OFFCURVE",
"315 295 CURVE SMOOTH",
"265 295 OFFCURVE",
"216 337 OFFCURVE",
"216 383 CURVE SMOOTH",
"216 408 OFFCURVE",
"241 420 OFFCURVE",
"258 420 CURVE SMOOTH",
"277 420 OFFCURVE",
"297 406 OFFCURVE",
"297 382 CURVE SMOOTH",
"297 341 OFFCURVE",
"224 325 OFFCURVE",
"216 375 CURVE"
);
},
{
closed = 1;
nodes = (
"569 554 LINE SMOOTH",
"578 554 OFFCURVE",
"584 562 OFFCURVE",
"584 571 CURVE SMOOTH",
"584 582 OFFCURVE",
"576 587 OFFCURVE",
"569 587 CURVE SMOOTH",
"-21 587 LINE SMOOTH",
"-28 587 OFFCURVE",
"-36 582 OFFCURVE",
"-36 571 CURVE SMOOTH",
"-36 562 OFFCURVE",
"-30 554 OFFCURVE",
"-21 554 CURVE SMOOTH"
);
}
);
width = 571;
}
);
note = uni09AD;
unicode = 09AD;
},
{
color = 3;
glyphname = uni09AE;
lastChange = "2015-10-07 10:11:17 +0000";
layers = (
{
background = {
paths = (
{
closed = 1;
nodes = (
"-10 456 LINE",
"-10 491 LINE",
"426 491 LINE",
"426 456 LINE"
);
},
{
closed = 1;
nodes = (
"88 461 LINE",
"79 453 OFFCURVE",
"99 429 OFFCURVE",
"145 391 CURVE SMOOTH",
"175 366 LINE SMOOTH",
"211 337 OFFCURVE",
"231 297 OFFCURVE",
"231 258 CURVE SMOOTH",
"231 244 OFFCURVE",
"229 232 OFFCURVE",
"225 221 CURVE",
"269 196 OFFCURVE",
"298 151 OFFCURVE",
"310 96 CURVE",
"301 82 LINE",
"301 467 LINE",
"346 467 LINE",
"346 -23 LINE",
"320 1 LINE",
"313 70 OFFCURVE",
"269 132 OFFCURVE",
"204 163 CURVE",
"192 136 OFFCURVE",
"162 119 OFFCURVE",
"129 119 CURVE SMOOTH",
"84 119 OFFCURVE",
"48 155 OFFCURVE",
"48 200 CURVE SMOOTH",
"48 245 OFFCURVE",
"86 282 OFFCURVE",
"134 282 CURVE SMOOTH",
"143 282 OFFCURVE",
"155 279 OFFCURVE",
"169 272 CURVE",
"174 276 OFFCURVE",
"177 284 OFFCURVE",
"177 295 CURVE SMOOTH",
"177 324 OFFCURVE",
"142 347 OFFCURVE",
"98 372 CURVE SMOOTH",
"43 403 OFFCURVE",
"20 425 OFFCURVE",
"8 472 CURVE"
);
}
);
};
layerId = "4AE238AB-6A4C-459B-8E99-4D2856E6BBFA";
name = Regular;
paths = (
{
closed = 1;
nodes = (
"57 556 OFFCURVE",
"49 533 OFFCURVE",
"49 505 CURVE SMOOTH",
"49 401 OFFCURVE",
"161 370 OFFCURVE",
"203 338 CURVE SMOOTH",
"268 288 OFFCURVE",
"225 185 OFFCURVE",
"166 185 CURVE SMOOTH",
"149 185 OFFCURVE",
"133 194 OFFCURVE",
"133 211 CURVE SMOOTH",
"133 228 OFFCURVE",
"150 239 OFFCURVE",
"171 239 CURVE SMOOTH",
"228 239 OFFCURVE",
"383 156 OFFCURVE",
"383 38 CURVE SMOOTH",
"383 -7 OFFCURVE",
"400 -12 OFFCURVE",
"403 -12 CURVE SMOOTH",
"421 -12 OFFCURVE",
"423 7 OFFCURVE",
"423 22 CURVE SMOOTH",
"423 134 OFFCURVE",
"273 276 OFFCURVE",
"174 276 CURVE SMOOTH",
"133 276 OFFCURVE",
"96 251 OFFCURVE",
"96 210 CURVE SMOOTH",
"96 170 OFFCURVE",
"131 148 OFFCURVE",
"167 148 CURVE SMOOTH",
"222 148 OFFCURVE",
"269 197 OFFCURVE",
"269 268 CURVE SMOOTH",
"269 316 OFFCURVE",
"251 345 OFFCURVE",
"217 369 CURVE SMOOTH",
"157 412 OFFCURVE",
"86 428 OFFCURVE",
"86 500 CURVE SMOOTH",
"86 524 OFFCURVE",
"93 550 OFFCURVE",
"113 570 CURVE",
"73 578 LINE"
);
},
{
closed = 1;
nodes = (
"-15 562 OFFCURVE",
"-9 554 OFFCURVE",
"0 554 CURVE SMOOTH",
"312 554 LINE SMOOTH",
"363 554 OFFCURVE",
"389 520 OFFCURVE",
"389 442 CURVE",
"410 459 LINE",
"410 539 OFFCURVE",
"379 587 OFFCURVE",
"295 587 CURVE SMOOTH",
"0 587 LINE SMOOTH",
"-7 587 OFFCURVE",
"-15 582 OFFCURVE",
"-15 571 CURVE SMOOTH"
);
},
{
closed = 1;
nodes = (
"425 -12 OFFCURVE",
"419 23 OFFCURVE",
"419 71 CURVE SMOOTH",
"419 409 OFFCURVE",
"423 492 OFFCURVE",
"431 583 CURVE SMOOTH",
"432 597 OFFCURVE",
"430 609 OFFCURVE",
"418 609 CURVE SMOOTH",
"387 609 OFFCURVE",
"383 380 OFFCURVE",
"383 71 CURVE SMOOTH",
"383 23 OFFCURVE",
"383 -12 OFFCURVE",
"404 -12 CURVE SMOOTH"
);
},
{
closed = 1;
nodes = (
"548 582 OFFCURVE",
"539 587 OFFCURVE",
"530 587 CURVE SMOOTH",
"518 587 OFFCURVE",
"493 587 OFFCURVE",
"472 587 CURVE SMOOTH",
"440 587 OFFCURVE",
"435 587 OFFCURVE",
"430 599 CURVE SMOOTH",
"427 606 OFFCURVE",
"417 602 OFFCURVE",
"417 592 CURVE SMOOTH",
"417 576 OFFCURVE",
"435 554 OFFCURVE",
"467 554 CURVE SMOOTH",
"530 554 LINE SMOOTH",
"539 554 OFFCURVE",
"548 558 OFFCURVE",
"548 571 CURVE SMOOTH"
);
}
);
width = 520;
}
);
note = uni09AE;
unicode = 09AE;
},
{
color = 3;
glyphname = uni09AF;
lastChange = "2015-10-07 10:11:52 +0000";
layers = (
{
background = {
paths = (
{
closed = 1;
nodes = (
"230 357 OFFCURVE",
"143 310 OFFCURVE",
"74 253 CURVE",
"71 273 LINE",
"159 247 OFFCURVE",
"264 173 OFFCURVE",
"303 79 CURVE",
"294 72 LINE",
"294 466 LINE",
"334 466 LINE",
"334 0 LINE",
"309 0 LINE",
"289 118 OFFCURVE",
"174 197 OFFCURVE",
"67 214 CURVE",
"15 283 LINE",
"103 355 OFFCURVE",
"225 416 OFFCURVE",
"312 436 CURVE",
"318 384 LINE"
);
},
{
closed = 1;
nodes = (
"-10 456 LINE",
"-10 491 LINE",
"414 491 LINE",
"414 456 LINE"
);
}
);
};
layerId = "4AE238AB-6A4C-459B-8E99-4D2856E6BBFA";
name = Regular;
paths = (
{
closed = 1;
nodes = (
"405 -12 OFFCURVE",
"412 -3 OFFCURVE",
"412 18 CURVE SMOOTH",
"412 145 OFFCURVE",
"243 240 OFFCURVE",
"111 279 CURVE",
"107 265 LINE",
"244 347 LINE SMOOTH",
"270 362 OFFCURVE",
"289 377 OFFCURVE",
"249 406 CURVE SMOOTH",
"125 496 LINE SMOOTH",
"87 521 OFFCURVE",
"90 542 OFFCURVE",
"90 563 CURVE",
"50 563 LINE",
"50 522 OFFCURVE",
"72 495 OFFCURVE",
"106 471 CURVE SMOOTH",
"233 380 LINE",
"75 288 LINE SMOOTH",
"55 276 OFFCURVE",
"58 250 OFFCURVE",
"92 243 CURVE SMOOTH",
"191 222 OFFCURVE",
"372 128 OFFCURVE",
"372 44 CURVE SMOOTH",
"372 0 OFFCURVE",
"381 -12 OFFCURVE",
"393 -12 CURVE SMOOTH"
);
},
{
closed = 1;
nodes = (
"414 -12 OFFCURVE",
"408 23 OFFCURVE",
"408 71 CURVE SMOOTH",
"408 409 OFFCURVE",
"412 492 OFFCURVE",
"420 583 CURVE SMOOTH",
"421 597 OFFCURVE",
"419 609 OFFCURVE",
"407 609 CURVE SMOOTH",
"372 609 OFFCURVE",
"372 380 OFFCURVE",
"372 71 CURVE SMOOTH",
"372 23 OFFCURVE",
"372 -12 OFFCURVE",
"393 -12 CURVE SMOOTH"
);
},
{
closed = 1;
nodes = (
"399 459 LINE",
"399 542 OFFCURVE",
"368 587 OFFCURVE",
"284 587 CURVE SMOOTH",
"-7 587 LINE SMOOTH",
"-18 587 OFFCURVE",
"-26 582 OFFCURVE",
"-26 571 CURVE SMOOTH",
"-26 562 OFFCURVE",
"-20 554 OFFCURVE",
"-7 554 CURVE SMOOTH",
"301 554 LINE SMOOTH",
"352 554 OFFCURVE",
"377 519 OFFCURVE",
"377 450 CURVE"
);
},
{
closed = 1;
nodes = (
"519 554 LINE SMOOTH",
"528 554 OFFCURVE",
"537 558 OFFCURVE",
"537 571 CURVE SMOOTH",
"537 582 OFFCURVE",
"528 587 OFFCURVE",
"519 587 CURVE SMOOTH",
"507 587 OFFCURVE",
"482 587 OFFCURVE",
"461 587 CURVE SMOOTH",
"429 587 OFFCURVE",
"424 587 OFFCURVE",
"419 599 CURVE SMOOTH",
"416 606 OFFCURVE",
"406 602 OFFCURVE",
"406 592 CURVE SMOOTH",
"406 576 OFFCURVE",
"424 554 OFFCURVE",
"456 554 CURVE SMOOTH"
);
}
);
width = 510;
}
);
note = uni09AF;
unicode = 09AF;
},
{
color = 3;
glyphname = uni09B0;
lastChange = "2015-10-07 10:12:13 +0000";
layers = (
{
background = {
paths = (
{
closed = 1;
nodes = (
"-40 500 LINE",
"384 500 LINE",
"414 456 LINE",
"334 456 LINE",
"334 -23 LINE",
"309 1 LINE",
"278 116 OFFCURVE",
"184 199 OFFCURVE",
"72 208 CURVE",
"10 275 LINE",
"103 354 OFFCURVE",
"196 405 OFFCURVE",
"289 430 CURVE",
"289 456 LINE",
"-10 456 LINE"
);
},
{
closed = 1;
nodes = (
"190 238 OFFCURVE",
"260 176 OFFCURVE",
"289 97 CURVE",
"289 366 LINE",
"218 340 OFFCURVE",
"155 307 OFFCURVE",
"101 266 CURVE"
);
},
{
closed = 1;
nodes = (
"90 104 OFFCURVE",
"109 123 OFFCURVE",
"132 123 CURVE SMOOTH",
"155 123 OFFCURVE",
"174 104 OFFCURVE",
"174 81 CURVE SMOOTH",
"174 58 OFFCURVE",
"155 40 OFFCURVE",
"132 40 CURVE SMOOTH",
"109 40 OFFCURVE",
"90 58 OFFCURVE",
"90 81 CURVE SMOOTH"
);
}
);
};
layerId = "4AE238AB-6A4C-459B-8E99-4D2856E6BBFA";
name = Regular;
paths = (
{
closed = 1;
nodes = (
"391 -12 OFFCURVE",
"399 -1 OFFCURVE",
"399 24 CURVE SMOOTH",
"399 135 OFFCURVE",
"264 265 OFFCURVE",
"50 312 CURVE",
"53 305 LINE",
"110 338 OFFCURVE",
"240 402 OFFCURVE",
"312 440 CURVE SMOOTH",
"363 467 OFFCURVE",
"378 487 OFFCURVE",
"378 520 CURVE SMOOTH",
"378 564 OFFCURVE",
"340 587 OFFCURVE",
"276 587 CURVE SMOOTH",
"-23 587 LINE SMOOTH",
"-30 587 OFFCURVE",
"-38 582 OFFCURVE",
"-38 571 CURVE SMOOTH",
"-38 562 OFFCURVE",
"-32 554 OFFCURVE",
"-23 554 CURVE SMOOTH",
"282 554 LINE SMOOTH",
"328 554 OFFCURVE",
"353 539 OFFCURVE",
"353 520 CURVE SMOOTH",
"353 496 OFFCURVE",
"326 485 OFFCURVE",
"286 465 CURVE SMOOTH",
"224 434 OFFCURVE",
"75 361 OFFCURVE",
"35 336 CURVE SMOOTH",
"12 321 OFFCURVE",
"15 282 OFFCURVE",
"52 274 CURVE SMOOTH",
"115 260 OFFCURVE",
"358 174 OFFCURVE",
"358 37 CURVE SMOOTH",
"358 22 OFFCURVE",
"360 -12 OFFCURVE",
"380 -12 CURVE SMOOTH"
);
},
{
closed = 1;
nodes = (
"400 -12 OFFCURVE",
"394 23 OFFCURVE",
"394 71 CURVE SMOOTH",
"394 409 OFFCURVE",
"398 492 OFFCURVE",
"406 583 CURVE SMOOTH",
"407 597 OFFCURVE",
"405 609 OFFCURVE",
"393 609 CURVE SMOOTH",
"361 609 OFFCURVE",
"358 380 OFFCURVE",
"358 71 CURVE SMOOTH",
"358 23 OFFCURVE",
"358 -12 OFFCURVE",
"379 -12 CURVE SMOOTH"
);
},
{
closed = 1;
nodes = (
"523 582 OFFCURVE",
"514 587 OFFCURVE",
"505 587 CURVE SMOOTH",
"493 587 OFFCURVE",
"468 587 OFFCURVE",
"447 587 CURVE SMOOTH",
"415 587 OFFCURVE",
"410 587 OFFCURVE",
"405 599 CURVE SMOOTH",
"402 606 OFFCURVE",
"392 602 OFFCURVE",
"392 592 CURVE SMOOTH",
"392 576 OFFCURVE",
"410 554 OFFCURVE",
"442 554 CURVE SMOOTH",
"505 554 LINE SMOOTH",
"514 554 OFFCURVE",
"523 558 OFFCURVE",
"523 571 CURVE SMOOTH"
);
},
{
closed = 1;
nodes = (
"204 36 OFFCURVE",
"231 51 OFFCURVE",
"231 81 CURVE SMOOTH",
"231 114 OFFCURVE",
"210 137 OFFCURVE",
"176 137 CURVE SMOOTH",
"153 137 OFFCURVE",
"129 117 OFFCURVE",
"129 92 CURVE SMOOTH",
"129 63 OFFCURVE",
"148 36 OFFCURVE",
"184 36 CURVE SMOOTH"
);
},
{
closed = 1;
nodes = (
"205 70 OFFCURVE",
"196 60 OFFCURVE",
"181 60 CURVE SMOOTH",
"166 60 OFFCURVE",
"155 75 OFFCURVE",
"155 88 CURVE SMOOTH",
"155 104 OFFCURVE",
"166 115 OFFCURVE",
"179 115 CURVE SMOOTH",
"198 115 OFFCURVE",
"205 100 OFFCURVE",
"205 86 CURVE SMOOTH"
);
}
);
width = 496;
}
);
note = uni09B0;
unicode = 09B0;
},
{
color = 3;
glyphname = uni09B2;
lastChange = "2015-10-07 10:12:30 +0000";
layers = (
{
background = {
paths = (
{
closed = 1;
nodes = (
"-40 500 LINE",
"479 500 LINE",
"509 456 LINE",
"429 456 LINE",
"429 -3 LINE",
"384 41 LINE",
"384 250 LINE SMOOTH",
"384 277 OFFCURVE",
"346 332 OFFCURVE",
"327 332 CURVE SMOOTH",
"306 332 OFFCURVE",
"289 295 OFFCURVE",
"289 248 CURVE",
"266 248 LINE",
"247 299 OFFCURVE",
"205 332 OFFCURVE",
"158 332 CURVE SMOOTH",
"107 332 OFFCURVE",
"66 295 OFFCURVE",
"66 250 CURVE SMOOTH",
"66 211 OFFCURVE",
"104 179 OFFCURVE",
"151 179 CURVE",
"142 186 OFFCURVE",
"136 197 OFFCURVE",
"136 210 CURVE SMOOTH",
"136 242 OFFCURVE",
"161 267 OFFCURVE",
"193 267 CURVE SMOOTH",
"224 267 OFFCURVE",
"249 242 OFFCURVE",
"249 210 CURVE SMOOTH",
"249 165 OFFCURVE",
"211 129 OFFCURVE",
"163 129 CURVE SMOOTH",
"88 129 OFFCURVE",
"27 193 OFFCURVE",
"27 270 CURVE SMOOTH",
"27 342 OFFCURVE",
"81 401 OFFCURVE",
"148 401 CURVE SMOOTH",
"188 401 OFFCURVE",
"223 379 OFFCURVE",
"242 343 CURVE",
"255 378 OFFCURVE",
"278 401 OFFCURVE",
"302 401 CURVE SMOOTH",
"331 401 OFFCURVE",
"364 375 OFFCURVE",
"384 335 CURVE",
"384 456 LINE",
"-10 456 LINE"
);
}
);
};
layerId = "4AE238AB-6A4C-459B-8E99-4D2856E6BBFA";
name = Regular;
paths = (
{
closed = 1;
nodes = (
"226 133 OFFCURVE",
"258 154 OFFCURVE",
"258 190 CURVE SMOOTH",
"258 220 OFFCURVE",
"236 248 OFFCURVE",
"195 248 CURVE SMOOTH",
"157 248 OFFCURVE",
"135 224 OFFCURVE",
"135 197 CURVE SMOOTH",
"135 154 OFFCURVE",
"190 136 OFFCURVE",
"217 147 CURVE",
"211 164 LINE",
"198 155 OFFCURVE",
"166 161 OFFCURVE",
"166 187 CURVE SMOOTH",
"166 204 OFFCURVE",
"180 215 OFFCURVE",
"196 215 CURVE SMOOTH",
"214 215 OFFCURVE",
"224 199 OFFCURVE",
"224 186 CURVE SMOOTH",
"224 166 OFFCURVE",
"203 157 OFFCURVE",
"181 157 CURVE SMOOTH",
"126 157 OFFCURVE",
"69 215 OFFCURVE",
"69 280 CURVE SMOOTH",
"69 336 OFFCURVE",
"111 395 OFFCURVE",
"191 395 CURVE SMOOTH",
"256 395 OFFCURVE",
"323 355 OFFCURVE",
"323 306 CURVE SMOOTH",
"323 268 OFFCURVE",
"281 276 OFFCURVE",
"281 317 CURVE SMOOTH",
"281 358 OFFCURVE",
"325 400 OFFCURVE",
"381 400 CURVE SMOOTH",
"461 400 OFFCURVE",
"484 326 OFFCURVE",
"484 263 CURVE SMOOTH",
"484 237 OFFCURVE",
"488 225 OFFCURVE",
"500 225 CURVE SMOOTH",
"510 225 OFFCURVE",
"517 235 OFFCURVE",
"517 259 CURVE SMOOTH",
"517 355 OFFCURVE",
"468 433 OFFCURVE",
"382 433 CURVE SMOOTH",
"297 433 OFFCURVE",
"250 375 OFFCURVE",
"250 316 CURVE SMOOTH",
"250 279 OFFCURVE",
"269 250 OFFCURVE",
"305 250 CURVE SMOOTH",
"335 250 OFFCURVE",
"357 269 OFFCURVE",
"357 308 CURVE SMOOTH",
"357 383 OFFCURVE",
"275 431 OFFCURVE",
"191 431 CURVE SMOOTH",
"98 431 OFFCURVE",
"28 373 OFFCURVE",
"28 292 CURVE SMOOTH",
"28 212 OFFCURVE",
"97 133 OFFCURVE",
"182 133 CURVE SMOOTH"
);
},
{
closed = 1;
nodes = (
"510 433 OFFCURVE",
"509 451 OFFCURVE",
"509 487 CURVE SMOOTH",
"509 543 OFFCURVE",
"490 587 OFFCURVE",
"404 587 CURVE SMOOTH",
"-21 587 LINE SMOOTH",
"-28 587 OFFCURVE",
"-36 582 OFFCURVE",
"-36 571 CURVE SMOOTH",
"-36 562 OFFCURVE",
"-30 554 OFFCURVE",
"-21 554 CURVE SMOOTH",
"421 554 LINE SMOOTH",
"472 554 OFFCURVE",
"490 521 OFFCURVE",
"490 471 CURVE SMOOTH",
"490 443 OFFCURVE",
"492 433 OFFCURVE",
"500 433 CURVE SMOOTH"
);
},
{
closed = 1;
nodes = (
"526 -12 OFFCURVE",
"520 23 OFFCURVE",
"520 71 CURVE SMOOTH",
"520 409 OFFCURVE",
"524 492 OFFCURVE",
"532 583 CURVE SMOOTH",
"533 597 OFFCURVE",
"531 609 OFFCURVE",
"519 609 CURVE SMOOTH",
"484 609 OFFCURVE",
"484 380 OFFCURVE",
"484 71 CURVE SMOOTH",
"484 23 OFFCURVE",
"484 -12 OFFCURVE",
"505 -12 CURVE SMOOTH"
);
},
{
closed = 1;
nodes = (
"659 582 OFFCURVE",
"650 587 OFFCURVE",
"641 587 CURVE SMOOTH",
"629 587 OFFCURVE",
"594 587 OFFCURVE",
"573 587 CURVE SMOOTH",
"541 587 OFFCURVE",
"536 587 OFFCURVE",
"531 599 CURVE SMOOTH",
"528 606 OFFCURVE",
"518 602 OFFCURVE",
"518 592 CURVE SMOOTH",
"518 576 OFFCURVE",
"536 554 OFFCURVE",
"568 554 CURVE SMOOTH",
"641 554 LINE SMOOTH",
"650 554 OFFCURVE",
"659 558 OFFCURVE",
"659 571 CURVE SMOOTH"
);
}
);
width = 621;
}
);
note = uni09B2;
unicode = 09B2;
},
{
color = 3;
glyphname = uni09B6;
lastChange = "2015-10-07 10:12:59 +0000";
layers = (
{
background = {
paths = (
{
closed = 1;
nodes = (
"381 559 LINE",
"381 527 OFFCURVE",
"402 500 OFFCURVE",
"429 500 CURVE SMOOTH",
"452 500 LINE",
"482 456 LINE",
"402 456 LINE",
"402 -3 LINE",
"357 41 LINE",
"357 348 LINE",
"329 400 OFFCURVE",
"298 432 OFFCURVE",
"275 432 CURVE SMOOTH",
"259 432 OFFCURVE",
"240 420 OFFCURVE",
"223 399 CURVE",
"267 362 OFFCURVE",
"292 322 OFFCURVE",
"292 290 CURVE SMOOTH",
"292 255 OFFCURVE",
"269 228 OFFCURVE",
"240 228 CURVE SMOOTH",
"208 228 OFFCURVE",
"176 255 OFFCURVE",
"161 296 CURVE",
"146 255 OFFCURVE",
"114 228 OFFCURVE",
"82 228 CURVE SMOOTH",
"53 228 OFFCURVE",
"30 255 OFFCURVE",
"30 290 CURVE SMOOTH",
"30 325 OFFCURVE",
"59 364 OFFCURVE",
"108 399 CURVE",
"96 427 OFFCURVE",
"69 446 OFFCURVE",
"37 446 CURVE SMOOTH",
"2 446 LINE",
"-45 500 LINE",
"37 500 LINE SMOOTH",
"78 500 OFFCURVE",
"122 475 OFFCURVE",
"151 432 CURVE",
"187 475 OFFCURVE",
"220 500 OFFCURVE",
"240 500 CURVE SMOOTH",
"275 500 OFFCURVE",
"320 460 OFFCURVE",
"357 395 CURVE",
"357 582 LINE"
);
}
);
};
layerId = "4AE238AB-6A4C-459B-8E99-4D2856E6BBFA";
name = Regular;
paths = (
{
closed = 1;
nodes = (
"470 413 OFFCURVE",
"422 580 OFFCURVE",
"288 580 CURVE SMOOTH",
"219 580 OFFCURVE",
"167 515 OFFCURVE",
"167 430 CURVE SMOOTH",
"167 366 OFFCURVE",
"210 288 OFFCURVE",
"275 288 CURVE SMOOTH",
"309 288 OFFCURVE",
"336 313 OFFCURVE",
"336 350 CURVE SMOOTH",
"336 428 OFFCURVE",
"278 492 OFFCURVE",
"178 492 CURVE SMOOTH",
"96 492 OFFCURVE",
"29 434 OFFCURVE",
"29 358 CURVE SMOOTH",
"29 321 OFFCURVE",
"53 285 OFFCURVE",
"93 285 CURVE SMOOTH",
"147 285 OFFCURVE",
"199 349 OFFCURVE",
"199 409 CURVE SMOOTH",
"199 494 OFFCURVE",
"134 587 OFFCURVE",
"44 587 CURVE",
"-1 587 LINE",
"-15 587 OFFCURVE",
"-22 581 OFFCURVE",
"-21 571 CURVE SMOOTH",
"-19 557 OFFCURVE",
"-2 554 OFFCURVE",
"5 554 CURVE",
"57 554 LINE",
"117 554 OFFCURVE",
"160 479 OFFCURVE",
"160 417 CURVE SMOOTH",
"160 366 OFFCURVE",
"127 314 OFFCURVE",
"95 314 CURVE SMOOTH",
"72 314 OFFCURVE",
"65 334 OFFCURVE",
"65 354 CURVE SMOOTH",
"65 411 OFFCURVE",
"105 463 OFFCURVE",
"178 463 CURVE SMOOTH",
"252 463 OFFCURVE",
"301 407 OFFCURVE",
"301 352 CURVE SMOOTH",
"301 335 OFFCURVE",
"293 317 OFFCURVE",
"270 317 CURVE SMOOTH",
"233 317 OFFCURVE",
"206 378 OFFCURVE",
"206 429 CURVE SMOOTH",
"206 497 OFFCURVE",
"244 549 OFFCURVE",
"298 549 CURVE SMOOTH",
"377 549 OFFCURVE",
"441 420 OFFCURVE",
"441 294 CURVE SMOOTH",
"441 284 OFFCURVE",
"451 278 OFFCURVE",
"458 278 CURVE SMOOTH",
"468 278 OFFCURVE",
"470 290 OFFCURVE",
"470 307 CURVE SMOOTH"
);
},
{
closed = 1;
nodes = (
"482 -12 OFFCURVE",
"476 23 OFFCURVE",
"476 71 CURVE SMOOTH",
"476 409 OFFCURVE",
"480 492 OFFCURVE",
"488 583 CURVE SMOOTH",
"489 597 OFFCURVE",
"487 609 OFFCURVE",
"475 609 CURVE SMOOTH",
"440 609 OFFCURVE",
"440 380 OFFCURVE",
"440 71 CURVE SMOOTH",
"440 23 OFFCURVE",
"440 -12 OFFCURVE",
"461 -12 CURVE SMOOTH"
);
},
{
closed = 1;
nodes = (
"605 582 OFFCURVE",
"596 587 OFFCURVE",
"587 587 CURVE SMOOTH",
"575 587 OFFCURVE",
"550 587 OFFCURVE",
"529 587 CURVE SMOOTH",
"497 587 OFFCURVE",
"492 587 OFFCURVE",
"487 599 CURVE SMOOTH",
"484 606 OFFCURVE",
"474 602 OFFCURVE",
"474 592 CURVE SMOOTH",
"474 576 OFFCURVE",
"492 554 OFFCURVE",
"524 554 CURVE SMOOTH",
"587 554 LINE SMOOTH",
"596 554 OFFCURVE",
"605 558 OFFCURVE",
"605 571 CURVE SMOOTH"
);
}
);
width = 579;
}
);
note = uni09B6;
unicode = 09B6;
},
{
color = 3;
glyphname = uni09B7;
lastChange = "2015-10-07 10:13:53 +0000";
layers = (
{
background = {
paths = (
{
closed = 1;
nodes = (
"78 456 LINE",
"77 482 LINE",
"132 441 OFFCURVE",
"183 394 OFFCURVE",
"229 341 CURVE",
"79 227 LINE",
"72 254 LINE",
"184 221 OFFCURVE",
"268 150 OFFCURVE",
"304 75 CURVE",
"294 72 LINE",
"294 467 LINE",
"334 467 LINE",
"334 0 LINE",
"309 0 LINE",
"287 107 OFFCURVE",
"196 175 OFFCURVE",
"74 198 CURVE",
"27 260 LINE",
"183 375 LINE",
"186 347 LINE",
"150 390 OFFCURVE",
"126 405 OFFCURVE",
"86 418 CURVE SMOOTH",
"41 432 OFFCURVE",
"18 444 OFFCURVE",
"17 477 CURVE",
"68 456 LINE",
"-10 456 LINE",
"-10 491 LINE",
"414 491 LINE",
"414 456 LINE"
);
}
);
};
layerId = "4AE238AB-6A4C-459B-8E99-4D2856E6BBFA";
name = Regular;
paths = (
{
closed = 1;
nodes = (
"410 -11 OFFCURVE",
"415 -7 OFFCURVE",
"415 13 CURVE SMOOTH",
"415 32 OFFCURVE",
"410 41 OFFCURVE",
"410 269 CURVE SMOOTH",
"410 446 OFFCURVE",
"413 496 OFFCURVE",
"421 583 CURVE SMOOTH",
"422 597 OFFCURVE",
"420 606 OFFCURVE",
"408 609 CURVE SMOOTH",
"397 611 OFFCURVE",
"394 605 OFFCURVE",
"393 597 CURVE SMOOTH",
"378 484 OFFCURVE",
"374 308 OFFCURVE",
"374 257 CURVE SMOOTH",
"374 199 OFFCURVE",
"380 59 OFFCURVE",
"383 20 CURVE SMOOTH",
"385 -7 OFFCURVE",
"393 -11 OFFCURVE",
"402 -11 CURVE SMOOTH"
);
},
{
closed = 1;
nodes = (
"-26 562 OFFCURVE",
"-20 554 OFFCURVE",
"-11 554 CURVE SMOOTH",
"301 554 LINE SMOOTH",
"352 554 OFFCURVE",
"377 520 OFFCURVE",
"380 454 CURVE SMOOTH",
"380 443 OFFCURVE",
"381 433 OFFCURVE",
"389 433 CURVE SMOOTH",
"399 433 OFFCURVE",
"399 450 OFFCURVE",
"399 459 CURVE SMOOTH",
"399 539 OFFCURVE",
"368 587 OFFCURVE",
"284 587 CURVE SMOOTH",
"-11 587 LINE SMOOTH",
"-18 587 OFFCURVE",
"-26 582 OFFCURVE",
"-26 571 CURVE SMOOTH"
);
},
{
closed = 1;
nodes = (
"411 253 OFFCURVE",
"414 274 OFFCURVE",
"392 292 CURVE SMOOTH",
"341 334 OFFCURVE",
"299 370 OFFCURVE",
"244 410 CURVE SMOOTH",
"224 424 OFFCURVE",
"217 418 OFFCURVE",
"213 411 CURVE SMOOTH",
"209 404 OFFCURVE",
"211 398 OFFCURVE",
"225 386 CURVE SMOOTH",
"296 328 OFFCURVE",
"320 308 OFFCURVE",
"362 273 CURVE SMOOTH",
"383 256 OFFCURVE",
"392 243 OFFCURVE",
"402 248 CURVE SMOOTH"
);
},
{
closed = 1;
nodes = (
"538 582 OFFCURVE",
"529 587 OFFCURVE",
"520 587 CURVE SMOOTH",
"508 587 OFFCURVE",
"483 587 OFFCURVE",
"462 587 CURVE SMOOTH",
"430 587 OFFCURVE",
"425 587 OFFCURVE",
"420 599 CURVE SMOOTH",
"417 606 OFFCURVE",
"407 602 OFFCURVE",
"407 592 CURVE SMOOTH",
"407 576 OFFCURVE",
"425 554 OFFCURVE",
"457 554 CURVE SMOOTH",
"520 554 LINE SMOOTH",
"529 554 OFFCURVE",
"538 558 OFFCURVE",
"538 571 CURVE SMOOTH"
);
},
{
closed = 1;
nodes = (
"225 233 OFFCURVE",
"170 262 OFFCURVE",
"123 278 CURVE",
"147 290 OFFCURVE",
"173 305 OFFCURVE",
"199 320 CURVE SMOOTH",
"234 341 OFFCURVE",
"277 367 OFFCURVE",
"277 378 CURVE SMOOTH",
"277 385 OFFCURVE",
"267 394 OFFCURVE",
"249 406 CURVE",
"125 496 LINE",
"87 521 OFFCURVE",
"90 542 OFFCURVE",
"90 553 CURVE SMOOTH",
"90 560 OFFCURVE",
"91 563 OFFCURVE",
"93 566 CURVE",
"48 579 LINE",
"43 570 OFFCURVE",
"41 561 OFFCURVE",
"41 552 CURVE SMOOTH",
"41 521 OFFCURVE",
"72 495 OFFCURVE",
"106 471 CURVE SMOOTH",
"229 384 LINE",
"179 349 OFFCURVE",
"102 312 OFFCURVE",
"75 294 CURVE SMOOTH",
"61 285 OFFCURVE",
"60 275 OFFCURVE",
"64 264 CURVE SMOOTH",
"68 254 OFFCURVE",
"69 249 OFFCURVE",
"87 242 CURVE SMOOTH",
"140 222 OFFCURVE",
"203 202 OFFCURVE",
"255 171 CURVE SMOOTH",
"309 139 OFFCURVE",
"368 87 OFFCURVE",
"377 44 CURVE SMOOTH",
"381 26 OFFCURVE",
"383 -11 OFFCURVE",
"401 -11 CURVE SMOOTH",
"410 -11 OFFCURVE",
"419 -7 OFFCURVE",
"419 14 CURVE SMOOTH",
"419 85 OFFCURVE",
"332 166 OFFCURVE",
"261 210 CURVE SMOOTH"
);
}
);
width = 510;
}
);
note = uni09B7;
unicode = 09B7;
},
{
color = 3;
glyphname = uni09B8;
lastChange = "2015-10-07 10:14:13 +0000";
layers = (
{
background = {
paths = (
{
closed = 1;
nodes = (
"401 467 LINE",
"401 0 LINE",
"361 0 LINE",
"361 467 LINE"
);
},
{
closed = 1;
nodes = (
"177 291 LINE",
"182 359 OFFCURVE",
"132 417 OFFCURVE",
"70 417 CURVE SMOOTH",
"36 417 OFFCURVE",
"8 439 OFFCURVE",
"7 472 CURVE",
"113 462 LINE",
"168 446 OFFCURVE",
"206 405 OFFCURVE",
"206 364 CURVE SMOOTH",
"206 345 LINE",
"207 328 OFFCURVE",
"205 317 OFFCURVE",
"202 319 CURVE"
);
},
{
closed = 1;
nodes = (
"-10 456 LINE",
"-10 491 LINE",
"481 491 LINE",
"481 456 LINE"
);
},
{
closed = 1;
nodes = (
"197 311 LINE",
"223 345 OFFCURVE",
"250 366 OFFCURVE",
"269 366 CURVE SMOOTH",
"301 366 OFFCURVE",
"338 333 OFFCURVE",
"363 283 CURVE",
"359 237 LINE",
"352 279 OFFCURVE",
"320 308 OFFCURVE",
"284 308 CURVE SMOOTH",
"266 308 OFFCURVE",
"239 281 OFFCURVE",
"202 226 CURVE SMOOTH",
"165 171 OFFCURVE",
"138 144 OFFCURVE",
"120 144 CURVE SMOOTH",
"81 144 OFFCURVE",
"44 184 OFFCURVE",
"29 241 CURVE",
"45 256 LINE",
"62 225 OFFCURVE",
"82 207 OFFCURVE",
"95 207 CURVE SMOOTH",
"105 207 OFFCURVE",
"117 215 OFFCURVE",
"131 232 CURVE SMOOTH",
"145 249 OFFCURVE",
"163 275 OFFCURVE",
"182 309 CURVE"
);
}
);
};
layerId = "4AE238AB-6A4C-459B-8E99-4D2856E6BBFA";
name = Regular;
paths = (
{
closed = 1;
nodes = (
"-26 562 OFFCURVE",
"-20 554 OFFCURVE",
"-11 554 CURVE SMOOTH",
"337 554 LINE SMOOTH",
"388 554 OFFCURVE",
"413 520 OFFCURVE",
"416 454 CURVE",
"435 459 LINE",
"435 539 OFFCURVE",
"404 587 OFFCURVE",
"320 587 CURVE SMOOTH",
"-11 587 LINE SMOOTH",
"-18 587 OFFCURVE",
"-26 582 OFFCURVE",
"-26 571 CURVE SMOOTH"
);
},
{
closed = 1;
nodes = (
"77 577 LINE",
"55 514 OFFCURVE",
"96 442 OFFCURVE",
"180 407 CURVE SMOOTH",
"255 376 OFFCURVE",
"276 334 OFFCURVE",
"219 266 CURVE",
"247 265 LINE",
"284 305 OFFCURVE",
"329 383 OFFCURVE",
"196 436 CURVE SMOOTH",
"109 471 OFFCURVE",
"106 531 OFFCURVE",
"121 570 CURVE"
);
},
{
closed = 1;
nodes = (
"435 319 OFFCURVE",
"390 357 OFFCURVE",
"340 357 CURVE SMOOTH",
"254 357 OFFCURVE",
"178 178 OFFCURVE",
"121 178 CURVE SMOOTH",
"102 178 OFFCURVE",
"87 197 OFFCURVE",
"76 212 CURVE SMOOTH",
"58 236 OFFCURVE",
"37 217 OFFCURVE",
"47 198 CURVE SMOOTH",
"59 175 OFFCURVE",
"84 145 OFFCURVE",
"127 145 CURVE SMOOTH",
"205 145 OFFCURVE",
"272 318 OFFCURVE",
"340 318 CURVE SMOOTH",
"377 318 OFFCURVE",
"410 284 OFFCURVE",
"410 206 CURVE",
"435 219 LINE"
);
},
{
closed = 1;
nodes = (
"452 -12 OFFCURVE",
"446 23 OFFCURVE",
"446 71 CURVE SMOOTH",
"446 409 OFFCURVE",
"450 492 OFFCURVE",
"458 583 CURVE SMOOTH",
"459 597 OFFCURVE",
"457 609 OFFCURVE",
"445 609 CURVE SMOOTH",
"413 609 OFFCURVE",
"410 380 OFFCURVE",
"410 71 CURVE SMOOTH",
"410 23 OFFCURVE",
"410 -12 OFFCURVE",
"431 -12 CURVE SMOOTH"
);
},
{
closed = 1;
nodes = (
"575 582 OFFCURVE",
"566 587 OFFCURVE",
"557 587 CURVE SMOOTH",
"545 587 OFFCURVE",
"520 587 OFFCURVE",
"499 587 CURVE SMOOTH",
"467 587 OFFCURVE",
"462 587 OFFCURVE",
"457 599 CURVE SMOOTH",
"454 606 OFFCURVE",
"444 602 OFFCURVE",
"444 592 CURVE SMOOTH",
"444 576 OFFCURVE",
"462 554 OFFCURVE",
"494 554 CURVE SMOOTH",
"557 554 LINE SMOOTH",
"566 554 OFFCURVE",
"575 558 OFFCURVE",
"575 571 CURVE SMOOTH"
);
}
);
width = 548;
}
);
note = uni09B8;
unicode = 09B8;
},
{
color = 3;
glyphname = uni09B9;
lastChange = "2015-10-07 10:14:39 +0000";
layers = (
{
background = {
paths = (
{
closed = 1;
nodes = (
"-40 500 LINE",
"385 500 LINE",
"415 456 LINE",
"193 456 LINE",
"204 440 OFFCURVE",
"210 427 OFFCURVE",
"210 416 CURVE",
"295 416 OFFCURVE",
"364 355 OFFCURVE",
"364 280 CURVE SMOOTH",
"364 207 OFFCURVE",
"296 142 OFFCURVE",
"204 126 CURVE",
"311 76 OFFCURVE",
"400 1 OFFCURVE",
"470 -99 CURVE",
"446 -99 LINE",
"351 13 OFFCURVE",
"222 89 OFFCURVE",
"79 114 CURVE",
"14 226 LINE",
"38 202 OFFCURVE",
"91 188 OFFCURVE",
"159 188 CURVE SMOOTH",
"218 188 OFFCURVE",
"311 263 OFFCURVE",
"311 310 CURVE SMOOTH",
"311 342 OFFCURVE",
"278 367 OFFCURVE",
"238 367 CURVE SMOOTH",
"223 367 OFFCURVE",
"210 360 OFFCURVE",
"206 348 CURVE",
"198 304 OFFCURVE",
"162 273 OFFCURVE",
"119 273 CURVE SMOOTH",
"83 273 OFFCURVE",
"53 298 OFFCURVE",
"53 329 CURVE SMOOTH",
"53 377 OFFCURVE",
"108 416 OFFCURVE",
"176 416 CURVE",
"176 421 OFFCURVE",
"172 427 OFFCURVE",
"164 434 CURVE",
"157 441 OFFCURVE",
"146 448 OFFCURVE",
"133 456 CURVE",
"-10 456 LINE"
);
}
);
};
layerId = "4AE238AB-6A4C-459B-8E99-4D2856E6BBFA";
name = Regular;
paths = (
{
closed = 1;
nodes = (
"132 433 OFFCURVE",
"149 438 OFFCURVE",
"159 438 CURVE SMOOTH",
"179 438 OFFCURVE",
"191 423 OFFCURVE",
"191 406 CURVE SMOOTH",
"191 384 OFFCURVE",
"172 374 OFFCURVE",
"159 374 CURVE SMOOTH",
"146 374 OFFCURVE",
"125 383 OFFCURVE",
"125 406 CURVE SMOOTH",
"125 449 OFFCURVE",
"200 468 OFFCURVE",
"238 468 CURVE SMOOTH",
"298 468 OFFCURVE",
"366 421 OFFCURVE",
"366 341 CURVE SMOOTH",
"366 237 OFFCURVE",
"264 170 OFFCURVE",
"164 170 CURVE SMOOTH",
"135 170 OFFCURVE",
"121 192 OFFCURVE",
"151 192 CURVE SMOOTH",
"218 192 OFFCURVE",
"274 -29 OFFCURVE",
"429 -29 CURVE SMOOTH",
"456 -29 OFFCURVE",
"464 9 OFFCURVE",
"424 9 CURVE SMOOTH",
"302 9 OFFCURVE",
"245 227 OFFCURVE",
"149 227 CURVE SMOOTH",
"117 227 OFFCURVE",
"97 212 OFFCURVE",
"97 186 CURVE SMOOTH",
"97 154 OFFCURVE",
"129 135 OFFCURVE",
"179 135 CURVE SMOOTH",
"287 135 OFFCURVE",
"408 224 OFFCURVE",
"408 343 CURVE SMOOTH",
"408 440 OFFCURVE",
"329 499 OFFCURVE",
"235 499 CURVE SMOOTH",
"169 499 OFFCURVE",
"88 469 OFFCURVE",
"88 407 CURVE SMOOTH",
"88 373 OFFCURVE",
"112 338 OFFCURVE",
"155 338 CURVE SMOOTH",
"195 338 OFFCURVE",
"224 367 OFFCURVE",
"224 401 CURVE SMOOTH",
"224 432 OFFCURVE",
"201 458 OFFCURVE",
"169 458 CURVE SMOOTH",
"158 458 OFFCURVE",
"134 455 OFFCURVE",
"121 440 CURVE",
"127 418 LINE"
);
},
{
closed = 1;
nodes = (
"498 554 LINE SMOOTH",
"507 554 OFFCURVE",
"513 562 OFFCURVE",
"513 571 CURVE SMOOTH",
"513 582 OFFCURVE",
"505 587 OFFCURVE",
"498 587 CURVE SMOOTH",
"-12 587 LINE SMOOTH",
"-19 587 OFFCURVE",
"-27 582 OFFCURVE",
"-27 571 CURVE SMOOTH",
"-27 562 OFFCURVE",
"-21 554 OFFCURVE",
"-12 554 CURVE SMOOTH"
);
}
);
width = 488;
}
);
note = uni09B9;
unicode = 09B9;
},
{
color = 3;
glyphname = g51;
lastChange = "2015-10-07 10:14:58 +0000";
layers = (
{
layerId = "4AE238AB-6A4C-459B-8E99-4D2856E6BBFA";
name = Regular;
paths = (
{
closed = 1;
nodes = (
"23 -101 OFFCURVE",
"50 -86 OFFCURVE",
"50 -56 CURVE SMOOTH",
"50 -23 OFFCURVE",
"29 0 OFFCURVE",
"-5 0 CURVE SMOOTH",
"-28 0 OFFCURVE",
"-52 -20 OFFCURVE",
"-52 -45 CURVE SMOOTH",
"-52 -74 OFFCURVE",
"-33 -101 OFFCURVE",
"3 -101 CURVE SMOOTH"
);
},
{
closed = 1;
nodes = (
"24 -67 OFFCURVE",
"15 -77 OFFCURVE",
"0 -77 CURVE SMOOTH",
"-15 -77 OFFCURVE",
"-26 -62 OFFCURVE",
"-26 -49 CURVE SMOOTH",
"-26 -33 OFFCURVE",
"-15 -22 OFFCURVE",
"-2 -22 CURVE SMOOTH",
"17 -22 OFFCURVE",
"24 -37 OFFCURVE",
"24 -51 CURVE SMOOTH"
);
}
);
width = 0;
}
);
note = g51;
},
{
glyphname = uni09BD;
lastChange = "2015-10-07 10:15:26 +0000";
layers = (
{
layerId = "4AE238AB-6A4C-459B-8E99-4D2856E6BBFA";
name = Regular;
paths = (
{
closed = 1;
nodes = (
"133 521 LINE",
"137 518 OFFCURVE",
"142 516 OFFCURVE",
"146 515 CURVE SMOOTH",
"176 506 OFFCURVE",
"191 493 OFFCURVE",
"191 476 CURVE SMOOTH",
"191 454 OFFCURVE",
"172 445 OFFCURVE",
"159 445 CURVE SMOOTH",
"146 445 OFFCURVE",
"125 453 OFFCURVE",
"125 476 CURVE SMOOTH",
"125 519 OFFCURVE",
"198 538 OFFCURVE",
"241 538 CURVE SMOOTH",
"299 538 OFFCURVE",
"392 485 OFFCURVE",
"368 386 CURVE SMOOTH",
"341 277 OFFCURVE",
"229 240 OFFCURVE",
"174 240 CURVE SMOOTH",
"142 240 OFFCURVE",
"125 262 OFFCURVE",
"146 262 CURVE SMOOTH",
"192 262 OFFCURVE",
"243 161 OFFCURVE",
"284 118 CURVE SMOOTH",
"327 72 OFFCURVE",
"389 41 OFFCURVE",
"431 41 CURVE SMOOTH",
"455 41 OFFCURVE",
"460 75 OFFCURVE",
"432 75 CURVE SMOOTH",
"406 75 OFFCURVE",
"356 97 OFFCURVE",
"303 149 CURVE SMOOTH",
"240 211 OFFCURVE",
"214 285 OFFCURVE",
"158 294 CURVE SMOOTH",
"122 300 OFFCURVE",
"93 283 OFFCURVE",
"97 252 CURVE SMOOTH",
"101 219 OFFCURVE",
"137 205 OFFCURVE",
"175 205 CURVE SMOOTH",
"268 205 OFFCURVE",
"374 272 OFFCURVE",
"399 366 CURVE SMOOTH",
"432 492 OFFCURVE",
"345 569 OFFCURVE",
"235 569 CURVE SMOOTH",
"168 569 OFFCURVE",
"88 538 OFFCURVE",
"88 478 CURVE SMOOTH",
"88 443 OFFCURVE",
"112 408 OFFCURVE",
"155 408 CURVE SMOOTH",
"195 408 OFFCURVE",
"224 436 OFFCURVE",
"224 473 CURVE SMOOTH",
"224 501 OFFCURVE",
"209 526 OFFCURVE",
"173 537 CURVE SMOOTH",
"169 538 OFFCURVE",
"166 539 OFFCURVE",
"162 541 CURVE"
);
}
);
width = 502;
}
);
note = uni09BD;
unicode = 09BD;
},
{
color = 3;
glyphname = uni09BE;
lastChange = "2015-10-07 10:15:52 +0000";
layers = (
{
background = {
paths = (
{
closed = 1;
nodes = (
"8 357 OFFCURVE",
"-79 310 OFFCURVE",
"-148 253 CURVE",
"-151 273 LINE",
"-63 247 OFFCURVE",
"42 173 OFFCURVE",
"81 79 CURVE",
"72 72 LINE",
"72 466 LINE",
"112 466 LINE",
"112 0 LINE",
"87 0 LINE",
"67 118 OFFCURVE",
"-48 197 OFFCURVE",
"-155 214 CURVE",
"-207 283 LINE",
"-119 355 OFFCURVE",
"3 416 OFFCURVE",
"90 436 CURVE",
"96 384 LINE"
);
},
{
closed = 1;
nodes = (
"-242 456 LINE",
"-242 491 LINE",
"192 491 LINE",
"192 456 LINE"
);
}
);
};
layerId = "4AE238AB-6A4C-459B-8E99-4D2856E6BBFA";
name = Regular;
paths = (
{
closed = 1;
nodes = (
"-18 587 LINE",
"-30 587 OFFCURVE",
"-36 579 OFFCURVE",
"-36 570 CURVE SMOOTH",
"-36 561 OFFCURVE",
"-30 554 OFFCURVE",
"-18 554 CURVE",
"22 554 LINE",
"70 554 OFFCURVE",
"87 524 OFFCURVE",
"87 449 CURVE SMOOTH",
"87 435 OFFCURVE",
"91 433 OFFCURVE",
"99 433 CURVE SMOOTH",
"109 433 OFFCURVE",
"109 451 OFFCURVE",
"109 453 CURVE SMOOTH",
"109 539 OFFCURVE",
"76 587 OFFCURVE",
"16 587 CURVE"
);
},
{
closed = 1;
nodes = (
"247 582 OFFCURVE",
"238 587 OFFCURVE",
"229 587 CURVE SMOOTH",
"217 587 OFFCURVE",
"192 587 OFFCURVE",
"171 587 CURVE SMOOTH",
"139 587 OFFCURVE",
"134 587 OFFCURVE",
"129 599 CURVE SMOOTH",
"126 606 OFFCURVE",
"116 602 OFFCURVE",
"116 592 CURVE SMOOTH",
"116 576 OFFCURVE",
"134 554 OFFCURVE",
"166 554 CURVE SMOOTH",
"229 554 LINE SMOOTH",
"238 554 OFFCURVE",
"247 558 OFFCURVE",
"247 571 CURVE SMOOTH"
);
},
{
closed = 1;
nodes = (
"122 -12 OFFCURVE",
"118 23 OFFCURVE",
"118 71 CURVE SMOOTH",
"118 402 OFFCURVE",
"122 497 OFFCURVE",
"130 583 CURVE SMOOTH",
"131 597 OFFCURVE",
"129 609 OFFCURVE",
"117 609 CURVE SMOOTH",
"81 609 OFFCURVE",
"82 373 OFFCURVE",
"82 71 CURVE SMOOTH",
"82 23 OFFCURVE",
"82 -12 OFFCURVE",
"102 -12 CURVE SMOOTH"
);
}
);
width = 220;
}
);
note = uni09BE;
unicode = 09BE;
},
{
color = 3;
glyphname = uni09BF;
lastChange = "2015-10-07 10:16:19 +0000";
layers = (
{
background = {
paths = (
{
closed = 1;
nodes = (
"115 467 LINE",
"115 -33 LINE",
"70 11 LINE",
"70 467 LINE"
);
},
{
closed = 1;
nodes = (
"78 486 LINE",
"50 515 OFFCURVE",
"35 548 OFFCURVE",
"35 587 CURVE SMOOTH",
"35 664 OFFCURVE",
"114 728 OFFCURVE",
"210 728 CURVE SMOOTH",
"302 728 OFFCURVE",
"412 660 OFFCURVE",
"511 543 CURVE",
"498 530 LINE",
"399 629 OFFCURVE",
"302 685 OFFCURVE",
"230 685 CURVE SMOOTH",
"146 685 OFFCURVE",
"78 629 OFFCURVE",
"78 558 CURVE SMOOTH",
"78 530 OFFCURVE",
"89 506 OFFCURVE",
"107 487 CURVE"
);
},
{
closed = 1;
nodes = (
"195 491 LINE",
"195 456 LINE",
"-10 456 LINE",
"-10 491 LINE"
);
}
);
};
layerId = "4AE238AB-6A4C-459B-8E99-4D2856E6BBFA";
name = Regular;
paths = (
{
closed = 1;
nodes = (
"-17 587 OFFCURVE",
"-22 587 OFFCURVE",
"-30 587 CURVE SMOOTH",
"-41 587 OFFCURVE",
"-48 579 OFFCURVE",
"-48 571 CURVE SMOOTH",
"-48 561 OFFCURVE",
"-41 554 OFFCURVE",
"-30 554 CURVE SMOOTH",
"19 554 LINE SMOOTH",
"82 554 OFFCURVE",
"87 494 OFFCURVE",
"88 454 CURVE SMOOTH",
"88 442 OFFCURVE",
"89 433 OFFCURVE",
"96 433 CURVE SMOOTH",
"107 433 OFFCURVE",
"107 451 OFFCURVE",
"107 453 CURVE SMOOTH",
"107 550 OFFCURVE",
"79 587 OFFCURVE",
"16 587 CURVE SMOOTH"
);
},
{
closed = 1;
nodes = (
"125 -12 OFFCURVE",
"119 23 OFFCURVE",
"119 71 CURVE SMOOTH",
"119 409 OFFCURVE",
"123 492 OFFCURVE",
"131 583 CURVE SMOOTH",
"132 597 OFFCURVE",
"128 606 OFFCURVE",
"118 609 CURVE SMOOTH",
"106 613 OFFCURVE",
"104 602 OFFCURVE",
"102 587 CURVE SMOOTH",
"83 431 OFFCURVE",
"83 402 OFFCURVE",
"83 71 CURVE SMOOTH",
"83 23 OFFCURVE",
"83 -12 OFFCURVE",
"104 -12 CURVE SMOOTH"
);
},
{
closed = 1;
nodes = (
"505 761 OFFCURVE",
"362 827 OFFCURVE",
"238 827 CURVE SMOOTH",
"131 827 OFFCURVE",
"45 780 OFFCURVE",
"45 706 CURVE SMOOTH",
"45 631 OFFCURVE",
"108 612 OFFCURVE",
"98 554 CURVE",
"119 582 LINE",
"125 568 OFFCURVE",
"141 554 OFFCURVE",
"167 554 CURVE SMOOTH",
"230 554 LINE SMOOTH",
"239 554 OFFCURVE",
"248 558 OFFCURVE",
"248 571 CURVE SMOOTH",
"248 582 OFFCURVE",
"239 587 OFFCURVE",
"230 587 CURVE SMOOTH",
"172 587 LINE SMOOTH",
"153 587 OFFCURVE",
"141 590 OFFCURVE",
"127 603 CURVE SMOOTH",
"118 612 OFFCURVE",
"81 659 OFFCURVE",
"81 699 CURVE SMOOTH",
"81 761 OFFCURVE",
"151 800 OFFCURVE",
"243 800 CURVE SMOOTH",
"351 800 OFFCURVE",
"470 738 OFFCURVE",
"537 699 CURVE SMOOTH",
"556 688 OFFCURVE",
"568 691 OFFCURVE",
"574 698 CURVE SMOOTH",
"578 703 OFFCURVE",
"578 713 OFFCURVE",
"569 719 CURVE SMOOTH"
);
}
);
width = 214;
}
);
note = uni09BF;
unicode = 09BF;
},
{
color = 3;
glyphname = uni09C0;
lastChange = "2015-10-07 10:16:40 +0000";
layers = (
{
background = {
paths = (
{
closed = 1;
nodes = (
"-40 500 LINE",
"69 500 LINE",
"69 607 OFFCURVE",
"-36 694 OFFCURVE",
"-167 694 CURVE SMOOTH",
"-264 694 OFFCURVE",
"-343 662 OFFCURVE",
"-343 622 CURVE SMOOTH",
"-343 598 OFFCURVE",
"-311 579 OFFCURVE",
"-271 579 CURVE SMOOTH",
"-260 579 OFFCURVE",
"-243 581 OFFCURVE",
"-222 584 CURVE SMOOTH",
"-200 587 OFFCURVE",
"-183 589 OFFCURVE",
"-172 589 CURVE SMOOTH",
"-109 589 OFFCURVE",
"-59 549 OFFCURVE",
"-59 501 CURVE",
"-88 501 LINE",
"-88 526 OFFCURVE",
"-110 546 OFFCURVE",
"-137 546 CURVE SMOOTH",
"-148 546 OFFCURVE",
"-163 544 OFFCURVE",
"-184 541 CURVE SMOOTH",
"-205 538 OFFCURVE",
"-220 536 OFFCURVE",
"-231 536 CURVE SMOOTH",
"-308 536 OFFCURVE",
"-372 576 OFFCURVE",
"-372 627 CURVE SMOOTH",
"-372 691 OFFCURVE",
"-289 743 OFFCURVE",
"-186 743 CURVE SMOOTH",
"-30 743 OFFCURVE",
"100 637 OFFCURVE",
"112 500 CURVE",
"165 500 LINE",
"195 456 LINE",
"115 456 LINE",
"115 -33 LINE",
"70 11 LINE",
"70 456 LINE",
"-10 456 LINE"
);
}
);
};
layerId = "4AE238AB-6A4C-459B-8E99-4D2856E6BBFA";
name = Regular;
paths = (
{
closed = 1;
nodes = (
"111 540 OFFCURVE",
"114 548 OFFCURVE",
"116 560 CURVE SMOOTH",
"118 573 OFFCURVE",
"119 584 OFFCURVE",
"119 597 CURVE SMOOTH",
"119 750 OFFCURVE",
"-25 865 OFFCURVE",
"-198 865 CURVE SMOOTH",
"-277 865 OFFCURVE",
"-413 841 OFFCURVE",
"-418 759 CURVE SMOOTH",
"-420 715 OFFCURVE",
"-384 666 OFFCURVE",
"-303 678 CURVE SMOOTH",
"-281 681 OFFCURVE",
"-224 695 OFFCURVE",
"-184 695 CURVE SMOOTH",
"-131 695 OFFCURVE",
"-117 671 OFFCURVE",
"-104 647 CURVE SMOOTH",
"-88 618 OFFCURVE",
"-57 626 OFFCURVE",
"-69 656 CURVE SMOOTH",
"-78 680 OFFCURVE",
"-120 726 OFFCURVE",
"-188 726 CURVE SMOOTH",
"-227 726 OFFCURVE",
"-279 711 OFFCURVE",
"-311 708 CURVE SMOOTH",
"-353 703 OFFCURVE",
"-395 717 OFFCURVE",
"-387 754 CURVE SMOOTH",
"-375 812 OFFCURVE",
"-257 833 OFFCURVE",
"-196 833 CURVE SMOOTH",
"-67 833 OFFCURVE",
"89 738 OFFCURVE",
"89 590 CURVE SMOOTH",
"89 578 OFFCURVE",
"88 572 OFFCURVE",
"88 563 CURVE SMOOTH",
"88 551 OFFCURVE",
"90 540 OFFCURVE",
"101 540 CURVE SMOOTH"
);
},
{
closed = 1;
nodes = (
"96 433 OFFCURVE",
"96 451 OFFCURVE",
"96 453 CURVE SMOOTH",
"96 540 OFFCURVE",
"72 587 OFFCURVE",
"9 587 CURVE SMOOTH",
"-19 587 LINE SMOOTH",
"-31 587 OFFCURVE",
"-37 579 OFFCURVE",
"-37 570 CURVE SMOOTH",
"-37 561 OFFCURVE",
"-31 554 OFFCURVE",
"-19 554 CURVE SMOOTH",
"8 554 LINE SMOOTH",
"71 554 OFFCURVE",
"76 494 OFFCURVE",
"77 454 CURVE SMOOTH",
"77 442 OFFCURVE",
"78 433 OFFCURVE",
"85 433 CURVE SMOOTH"
);
},
{
closed = 1;
nodes = (
"113 -12 OFFCURVE",
"107 23 OFFCURVE",
"107 71 CURVE SMOOTH",
"107 409 OFFCURVE",
"111 492 OFFCURVE",
"119 583 CURVE SMOOTH",
"120 597 OFFCURVE",
"118 606 OFFCURVE",
"106 609 CURVE SMOOTH",
"94 612 OFFCURVE",
"92 602 OFFCURVE",
"90 587 CURVE SMOOTH",
"71 431 OFFCURVE",
"71 402 OFFCURVE",
"71 71 CURVE SMOOTH",
"71 23 OFFCURVE",
"71 -12 OFFCURVE",
"92 -12 CURVE SMOOTH"
);
},
{
closed = 1;
nodes = (
"236 582 OFFCURVE",
"227 587 OFFCURVE",
"218 587 CURVE SMOOTH",
"206 587 OFFCURVE",
"181 587 OFFCURVE",
"160 587 CURVE SMOOTH",
"128 587 OFFCURVE",
"123 587 OFFCURVE",
"118 599 CURVE SMOOTH",
"115 606 OFFCURVE",
"105 602 OFFCURVE",
"105 592 CURVE SMOOTH",
"105 576 OFFCURVE",
"123 554 OFFCURVE",
"155 554 CURVE SMOOTH",
"218 554 LINE SMOOTH",
"227 554 OFFCURVE",
"236 558 OFFCURVE",
"236 571 CURVE SMOOTH"
);
}
);
width = 209;
}
);
note = uni09C0;
unicode = 09C0;
},
{
glyphname = uni09C1;
layers = (
{
layerId = "4AE238AB-6A4C-459B-8E99-4D2856E6BBFA";
name = Regular;
paths = (
{
closed = 1;
nodes = (
"-264 -26 OFFCURVE",
"-228 9 OFFCURVE",
"-183 9 CURVE SMOOTH",
"-158 9 OFFCURVE",
"-134 2 OFFCURVE",
"-110 -12 CURVE",
"-110 60 LINE",
"-97 49 OFFCURVE",
"-88 41 OFFCURVE",
"-84 37 CURVE SMOOTH",
"-78 31 OFFCURVE",
"-75 26 OFFCURVE",
"-75 22 CURVE SMOOTH",
"-75 -37 LINE",
"59 -172 LINE",
"44 -188 LINE",
"-84 -77 LINE",
"-97 -114 OFFCURVE",
"-136 -139 OFFCURVE",
"-180 -139 CURVE SMOOTH",
"-227 -139 OFFCURVE",
"-264 -107 OFFCURVE",
"-264 -67 CURVE SMOOTH"
);
},
{
closed = 1;
nodes = (
"-220 -86 OFFCURVE",
"-203 -100 OFFCURVE",
"-183 -100 CURVE SMOOTH",
"-156 -100 OFFCURVE",
"-132 -82 OFFCURVE",
"-121 -54 CURVE",
"-144 -38 OFFCURVE",
"-164 -30 OFFCURVE",
"-183 -30 CURVE SMOOTH",
"-203 -30 OFFCURVE",
"-220 -47 OFFCURVE",
"-220 -67 CURVE SMOOTH"
);
}
);
width = 0;
}
);
note = uni09C1;
unicode = 09C1;
},
{
glyphname = uni09C2;
layers = (
{
layerId = "4AE238AB-6A4C-459B-8E99-4D2856E6BBFA";
name = Regular;
paths = (
{
closed = 1;
nodes = (
"-224 -18 OFFCURVE",
"-188 9 OFFCURVE",
"-143 9 CURVE SMOOTH",
"-115 9 LINE",
"-115 60 LINE",
"-102 55 OFFCURVE",
"-91 50 OFFCURVE",
"-82 44 CURVE",
"-74 37 OFFCURVE",
"-70 32 OFFCURVE",
"-70 27 CURVE SMOOTH",
"-70 -35 LINE",
"-133 -35 LINE SMOOTH",
"-165 -35 OFFCURVE",
"-190 -47 OFFCURVE",
"-190 -63 CURVE SMOOTH",
"-190 -83 OFFCURVE",
"-173 -100 OFFCURVE",
"-152 -100 CURVE SMOOTH",
"-123 -100 OFFCURVE",
"-99 -93 OFFCURVE",
"-83 -80 CURVE",
"79 -196 LINE",
"61 -219 LINE",
"-68 -134 LINE",
"-87 -147 OFFCURVE",
"-112 -154 OFFCURVE",
"-143 -154 CURVE SMOOTH",
"-179 -154 OFFCURVE",
"-224 -97 OFFCURVE",
"-224 -53 CURVE SMOOTH"
);
}
);
width = 0;
}
);
note = uni09C2;
unicode = 09C2;
},
{
glyphname = uni09C3;
layers = (
{
layerId = "4AE238AB-6A4C-459B-8E99-4D2856E6BBFA";
name = Regular;
paths = (
{
closed = 1;
nodes = (
"-91 29 OFFCURVE",
"-71 10 OFFCURVE",
"-71 -13 CURVE SMOOTH",
"-71 -54 LINE",
"-161 -112 LINE",
"-33 -220 LINE",
"-44 -244 LINE",
"-236 -92 LINE",
"-116 -18 LINE",
"-116 29 LINE"
);
}
);
width = 0;
}
);
note = uni09C3;
unicode = 09C3;
},
{
glyphname = uni09C4;
layers = (
{
layerId = "4AE238AB-6A4C-459B-8E99-4D2856E6BBFA";
name = Regular;
paths = (
{
closed = 1;
nodes = (
"-115 39 LINE",
"-90 39 OFFCURVE",
"-70 20 OFFCURVE",
"-70 -3 CURVE SMOOTH",
"-70 -34 LINE",
"-149 -87 LINE",
"-65 -126 LINE",
"-77 -150 LINE",
"-123 -134 LINE",
"-169 -181 LINE",
"-26 -250 LINE",
"-43 -269 LINE",
"-231 -188 LINE",
"-157 -118 LINE",
"-236 -82 LINE",
"-115 -3 LINE"
);
}
);
width = 0;
}
);
note = uni09C4;
unicode = 09C4;
},
{
glyphname = uni09C7;
layers = (
{
layerId = "4AE238AB-6A4C-459B-8E99-4D2856E6BBFA";
name = Regular;
paths = (
{
closed = 1;
nodes = (
"-42 500 LINE",
"323 500 LINE",
"352 456 LINE",
"261 456 LINE SMOOTH",
"161 456 OFFCURVE",
"80 351 OFFCURVE",
"80 220 CURVE SMOOTH",
"80 119 OFFCURVE",
"134 37 OFFCURVE",
"201 37 CURVE",
"192 42 OFFCURVE",
"185 56 OFFCURVE",
"185 71 CURVE SMOOTH",
"185 100 OFFCURVE",
"210 123 OFFCURVE",
"242 123 CURVE SMOOTH",
"273 123 OFFCURVE",
"298 98 OFFCURVE",
"298 66 CURVE SMOOTH",
"298 21 OFFCURVE",
"262 -15 OFFCURVE",
"217 -15 CURVE SMOOTH",
"122 -15 OFFCURVE",
"46 91 OFFCURVE",
"46 220 CURVE SMOOTH",
"46 331 OFFCURVE",
"79 419 OFFCURVE",
"132 456 CURVE",
"-13 456 LINE"
);
}
);
width = 279;
}
);
note = uni09C7;
unicode = 09C7;
},
{
glyphname = uni09C8;
layers = (
{
layerId = "4AE238AB-6A4C-459B-8E99-4D2856E6BBFA";
name = Regular;
paths = (
{
closed = 1;
nodes = (
"-71 500 LINE",
"174 500 LINE SMOOTH",
"183 500 OFFCURVE",
"192 510 OFFCURVE",
"192 523 CURVE SMOOTH",
"192 542 OFFCURVE",
"178 556 OFFCURVE",
"159 556 CURVE SMOOTH",
"142 556 OFFCURVE",
"118 553 OFFCURVE",
"85 548 CURVE SMOOTH",
"52 543 OFFCURVE",
"27 541 OFFCURVE",
"10 541 CURVE SMOOTH",
"-41 541 OFFCURVE",
"-81 584 OFFCURVE",
"-81 637 CURVE SMOOTH",
"-81 660 OFFCURVE",
"-73 682 OFFCURVE",
"-60 698 CURVE",
"-37 687 LINE",
"-48 675 OFFCURVE",
"-53 660 OFFCURVE",
"-53 647 CURVE SMOOTH",
"-53 626 OFFCURVE",
"-29 609 OFFCURVE",
"0 609 CURVE SMOOTH",
"17 609 OFFCURVE",
"41 611 OFFCURVE",
"74 616 CURVE SMOOTH",
"107 621 OFFCURVE",
"132 624 OFFCURVE",
"149 624 CURVE SMOOTH",
"190 624 OFFCURVE",
"225 579 OFFCURVE",
"225 523 CURVE SMOOTH",
"225 510 OFFCURVE",
"235 500 OFFCURVE",
"248 500 CURVE SMOOTH",
"301 500 LINE",
"335 456 LINE",
"263 456 LINE SMOOTH",
"166 456 OFFCURVE",
"87 351 OFFCURVE",
"87 220 CURVE SMOOTH",
"87 121 OFFCURVE",
"137 42 OFFCURVE",
"198 42 CURVE",
"191 46 OFFCURVE",
"187 56 OFFCURVE",
"187 71 CURVE SMOOTH",
"187 100 OFFCURVE",
"212 123 OFFCURVE",
"243 123 CURVE SMOOTH",
"275 123 OFFCURVE",
"300 98 OFFCURVE",
"300 66 CURVE SMOOTH",
"300 21 OFFCURVE",
"263 -15 OFFCURVE",
"218 -15 CURVE SMOOTH",
"123 -15 OFFCURVE",
"46 91 OFFCURVE",
"46 220 CURVE SMOOTH",
"46 332 OFFCURVE",
"77 420 OFFCURVE",
"129 456 CURVE",
"-23 456 LINE"
);
}
);
width = 281;
}
);
note = uni09C8;
unicode = 09C8;
},
{
glyphname = uni09CB;
layers = (
{
layerId = "4AE238AB-6A4C-459B-8E99-4D2856E6BBFA";
name = Regular;
paths = (
{
closed = 1;
nodes = (
"274 500 LINE",
"323 456 LINE",
"281 456 LINE SMOOTH",
"168 456 OFFCURVE",
"75 344 OFFCURVE",
"75 205 CURVE SMOOTH",
"75 120 OFFCURVE",
"127 51 OFFCURVE",
"191 51 CURVE",
"184 55 OFFCURVE",
"180 66 OFFCURVE",
"180 81 CURVE SMOOTH",
"180 110 OFFCURVE",
"205 133 OFFCURVE",
"237 133 CURVE SMOOTH",
"268 133 OFFCURVE",
"293 108 OFFCURVE",
"293 76 CURVE SMOOTH",
"293 35 OFFCURVE",
"257 0 OFFCURVE",
"212 0 CURVE SMOOTH",
"117 0 OFFCURVE",
"41 92 OFFCURVE",
"41 205 CURVE SMOOTH",
"41 313 OFFCURVE",
"83 407 OFFCURVE",
"152 456 CURVE",
"-10 456 LINE",
"-40 500 LINE"
);
},
{
closed = 1;
nodes = (
"602 366 LINE",
"585 396 OFFCURVE",
"570 418 OFFCURVE",
"559 432 CURVE SMOOTH",
"546 448 OFFCURVE",
"534 456 OFFCURVE",
"525 456 CURVE SMOOTH",
"519 456 LINE",
"471 500 LINE",
"505 500 LINE SMOOTH",
"538 500 OFFCURVE",
"575 466 OFFCURVE",
"602 411 CURVE",
"602 581 LINE",
"632 561 LINE",
"632 517 OFFCURVE",
"636 500 OFFCURVE",
"664 500 CURVE SMOOTH",
"697 500 LINE",
"727 456 LINE",
"647 456 LINE",
"647 -3 LINE",
"602 41 LINE"
);
}
);
width = 717;
}
);
note = uni09CB;
unicode = 09CB;
},
{
glyphname = uni09CC;
layers = (
{
layerId = "4AE238AB-6A4C-459B-8E99-4D2856E6BBFA";
name = Regular;
paths = (
{
closed = 1;
nodes = (
"274 500 LINE",
"323 456 LINE",
"281 456 LINE SMOOTH",
"168 456 OFFCURVE",
"75 344 OFFCURVE",
"75 205 CURVE SMOOTH",
"75 120 OFFCURVE",
"127 51 OFFCURVE",
"191 51 CURVE",
"184 55 OFFCURVE",
"180 66 OFFCURVE",
"180 81 CURVE SMOOTH",
"180 110 OFFCURVE",
"205 133 OFFCURVE",
"237 133 CURVE SMOOTH",
"268 133 OFFCURVE",
"293 108 OFFCURVE",
"293 76 CURVE SMOOTH",
"293 35 OFFCURVE",
"257 0 OFFCURVE",
"212 0 CURVE SMOOTH",
"117 0 OFFCURVE",
"41 92 OFFCURVE",
"41 205 CURVE SMOOTH",
"41 313 OFFCURVE",
"83 407 OFFCURVE",
"152 456 CURVE",
"-10 456 LINE",
"-40 500 LINE"
);
},
{
closed = 1;
nodes = (
"711 500 LINE",
"711 536 OFFCURVE",
"680 565 OFFCURVE",
"643 565 CURVE SMOOTH",
"620 565 OFFCURVE",
"585 563 OFFCURVE",
"539 560 CURVE SMOOTH",
"493 557 OFFCURVE",
"458 556 OFFCURVE",
"435 556 CURVE SMOOTH",
"346 556 OFFCURVE",
"274 606 OFFCURVE",
"274 667 CURVE SMOOTH",
"274 690 OFFCURVE",
"285 712 OFFCURVE",
"305 728 CURVE",
"367 717 LINE",
"331 704 OFFCURVE",
"308 687 OFFCURVE",
"308 672 CURVE SMOOTH",
"308 648 OFFCURVE",
"352 629 OFFCURVE",
"405 629 CURVE SMOOTH",
"427 629 OFFCURVE",
"460 631 OFFCURVE",
"504 634 CURVE SMOOTH",
"549 637 OFFCURVE",
"582 639 OFFCURVE",
"604 639 CURVE SMOOTH",
"688 639 OFFCURVE",
"755 577 OFFCURVE",
"755 500 CURVE",
"806 500 LINE",
"836 456 LINE",
"756 456 LINE",
"756 -3 LINE",
"711 41 LINE",
"711 456 LINE",
"634 456 LINE",
"586 500 LINE"
);
}
);
width = 826;
}
);
note = uni09CC;
unicode = 09CC;
},
{
glyphname = uni09CD;
layers = (
{
layerId = "4AE238AB-6A4C-459B-8E99-4D2856E6BBFA";
name = Regular;
paths = (
{
closed = 1;
nodes = (
"-111 4 LINE",
"-88 4 LINE",
"111 -195 LINE",
"111 -248 LINE",
"98 -248 LINE",
"-111 -39 LINE"
);
}
);
width = 0;
}
);
note = uni09CD;
unicode = 09CD;
},
{
glyphname = uni09D7;
lastChange = "2015-10-05 15:16:29 +0000";
layers = (
{
background = {
paths = (
{
closed = 1;
nodes = (
"-40 500 LINE",
"52 500 LINE SMOOTH",
"61 500 OFFCURVE",
"70 509 OFFCURVE",
"70 518 CURVE SMOOTH",
"70 543 OFFCURVE",
"40 565 OFFCURVE",
"3 565 CURVE SMOOTH",
"-20 565 OFFCURVE",
"-55 563 OFFCURVE",
"-101 560 CURVE SMOOTH",
"-147 557 OFFCURVE",
"-182 556 OFFCURVE",
"-205 556 CURVE SMOOTH",
"-294 556 OFFCURVE",
"-366 606 OFFCURVE",
"-366 667 CURVE SMOOTH",
"-366 695 OFFCURVE",
"-358 717 OFFCURVE",
"-345 728 CURVE",
"-317 717 LINE",
"-326 710 OFFCURVE",
"-332 693 OFFCURVE",
"-332 672 CURVE SMOOTH",
"-332 648 OFFCURVE",
"-288 629 OFFCURVE",
"-235 629 CURVE SMOOTH",
"-213 629 OFFCURVE",
"-180 631 OFFCURVE",
"-136 634 CURVE SMOOTH",
"-92 637 OFFCURVE",
"-59 639 OFFCURVE",
"-37 639 CURVE SMOOTH",
"47 639 OFFCURVE",
"114 585 OFFCURVE",
"114 518 CURVE SMOOTH",
"114 509 OFFCURVE",
"123 500 OFFCURVE",
"132 500 CURVE SMOOTH",
"165 500 LINE",
"195 456 LINE",
"115 456 LINE",
"115 -33 LINE",
"70 11 LINE",
"70 456 LINE",
"-10 456 LINE"
);
}
);
};
layerId = "4AE238AB-6A4C-459B-8E99-4D2856E6BBFA";
name = Regular;
paths = (
{
closed = 1;
nodes = (
"58 481 LINE",
"63 492 OFFCURVE",
"70 503 OFFCURVE",
"70 519 CURVE SMOOTH",
"70 534 OFFCURVE",
"54 565 OFFCURVE",
"-3 565 CURVE SMOOTH",
"-33 565 OFFCURVE",
"-166 556 OFFCURVE",
"-205 556 CURVE SMOOTH",
"-294 556 OFFCURVE",
"-366 604 OFFCURVE",
"-366 671 CURVE SMOOTH",
"-366 693 OFFCURVE",
"-358 713 OFFCURVE",
"-345 728 CURVE",
"-317 717 LINE",
"-326 707 OFFCURVE",
"-332 689 OFFCURVE",
"-332 677 CURVE SMOOTH",
"-332 641 OFFCURVE",
"-278 629 OFFCURVE",
"-234 629 CURVE SMOOTH",
"-193 629 OFFCURVE",
"-81 639 OFFCURVE",
"-35 639 CURVE SMOOTH",
"56 639 OFFCURVE",
"112 583 OFFCURVE",
"126 481 CURVE"
);
},
{
closed = 1;
nodes = (
"115 467 LINE",
"115 0 LINE",
"70 0 LINE",
"70 467 LINE"
);
},
{
closed = 1;
nodes = (
"-10 456 LINE",
"-10 491 LINE",
"195 491 LINE",
"195 456 LINE"
);
}
);
width = 185;
}
);
note = uni09D7;
unicode = 09D7;
},
{
color = 3;
glyphname = uni09DC;
lastChange = "2015-10-07 10:17:24 +0000";
layers = (
{
background = {
paths = (
{
closed = 1;
nodes = (
"-40 500 LINE",
"467 500 LINE",
"497 456 LINE",
"245 456 LINE",
"245 290 LINE SMOOTH",
"245 281 OFFCURVE",
"249 272 OFFCURVE",
"256 272 CURVE SMOOTH",
"291 272 OFFCURVE",
"334 311 OFFCURVE",
"370 372 CURVE",
"421 343 OFFCURVE",
"452 281 OFFCURVE",
"452 210 CURVE SMOOTH",
"452 99 OFFCURVE",
"376 10 OFFCURVE",
"281 10 CURVE SMOOTH",
"157 10 OFFCURVE",
"45 187 OFFCURVE",
"25 419 CURVE",
"55 395 LINE",
"76 216 OFFCURVE",
"174 83 OFFCURVE",
"281 83 CURVE SMOOTH",
"360 83 OFFCURVE",
"423 146 OFFCURVE",
"423 225 CURVE SMOOTH",
"423 256 OFFCURVE",
"412 282 OFFCURVE",
"395 297 CURVE",
"362 238 OFFCURVE",
"314 203 OFFCURVE",
"271 203 CURVE SMOOTH",
"243 203 OFFCURVE",
"200 269 OFFCURVE",
"200 310 CURVE SMOOTH",
"200 456 LINE",
"-10 456 LINE"
);
},
{
closed = 1;
nodes = (
"223 -55 OFFCURVE",
"241 -36 OFFCURVE",
"264 -36 CURVE SMOOTH",
"287 -36 OFFCURVE",
"306 -55 OFFCURVE",
"306 -78 CURVE SMOOTH",
"306 -101 OFFCURVE",
"287 -119 OFFCURVE",
"264 -119 CURVE SMOOTH",
"241 -119 OFFCURVE",
"223 -101 OFFCURVE",
"223 -78 CURVE SMOOTH"
);
}
);
};
layerId = "4AE238AB-6A4C-459B-8E99-4D2856E6BBFA";
name = Regular;
paths = (
{
closed = 1;
nodes = (
"485 30 OFFCURVE",
"559 113 OFFCURVE",
"559 233 CURVE SMOOTH",
"559 311 OFFCURVE",
"523 393 OFFCURVE",
"474 393 CURVE SMOOTH",
"456 393 OFFCURVE",
"458 365 OFFCURVE",
"449 335 CURVE SMOOTH",
"439 300 OFFCURVE",
"414 263 OFFCURVE",
"369 263 CURVE SMOOTH",
"322 263 OFFCURVE",
"292 317 OFFCURVE",
"292 397 CURVE SMOOTH",
"292 498 OFFCURVE",
"310 554 OFFCURVE",
"378 554 CURVE SMOOTH",
"598 554 LINE SMOOTH",
"607 554 OFFCURVE",
"613 561 OFFCURVE",
"613 572 CURVE SMOOTH",
"613 580 OFFCURVE",
"606 587 OFFCURVE",
"598 587 CURVE SMOOTH",
"367 587 LINE SMOOTH",
"348 587 OFFCURVE",
"318 584 OFFCURVE",
"294 557 CURVE SMOOTH",
"264 523 OFFCURVE",
"256 463 OFFCURVE",
"256 397 CURVE SMOOTH",
"256 296 OFFCURVE",
"296 229 OFFCURVE",
"375 229 CURVE SMOOTH",
"463 229 OFFCURVE",
"483 321 OFFCURVE",
"489 349 CURVE",
"506 329 OFFCURVE",
"523 280 OFFCURVE",
"523 232 CURVE SMOOTH",
"523 145 OFFCURVE",
"458 72 OFFCURVE",
"363 72 CURVE SMOOTH",
"218 72 OFFCURVE",
"95 263 OFFCURVE",
"80 427 CURVE SMOOTH",
"78 448 OFFCURVE",
"68 459 OFFCURVE",
"60 459 CURVE SMOOTH",
"51 459 OFFCURVE",
"43 448 OFFCURVE",
"45 426 CURVE SMOOTH",
"62 241 OFFCURVE",
"196 30 OFFCURVE",
"363 30 CURVE SMOOTH"
);
},
{
closed = 1;
nodes = (
"298 525 LINE",
"298 567 OFFCURVE",
"250 587 OFFCURVE",
"193 587 CURVE SMOOTH",
"-2 587 LINE SMOOTH",
"-9 587 OFFCURVE",
"-17 582 OFFCURVE",
"-17 571 CURVE SMOOTH",
"-17 562 OFFCURVE",
"-11 554 OFFCURVE",
"-2 554 CURVE SMOOTH",
"206 554 LINE SMOOTH",
"234 554 OFFCURVE",
"279 544 OFFCURVE",
"269 509 CURVE"
);
},
{
closed = 1;
nodes = (
"383 -101 OFFCURVE",
"410 -86 OFFCURVE",
"410 -56 CURVE SMOOTH",
"410 -23 OFFCURVE",
"389 0 OFFCURVE",
"355 0 CURVE SMOOTH",
"332 0 OFFCURVE",
"308 -20 OFFCURVE",
"308 -45 CURVE SMOOTH",
"308 -74 OFFCURVE",
"327 -101 OFFCURVE",
"363 -101 CURVE SMOOTH"
);
},
{
closed = 1;
nodes = (
"384 -67 OFFCURVE",
"375 -77 OFFCURVE",
"360 -77 CURVE SMOOTH",
"345 -77 OFFCURVE",
"334 -62 OFFCURVE",
"334 -49 CURVE SMOOTH",
"334 -33 OFFCURVE",
"345 -22 OFFCURVE",
"358 -22 CURVE SMOOTH",
"377 -22 OFFCURVE",
"384 -37 OFFCURVE",
"384 -51 CURVE SMOOTH"
);
}
);
width = 593;
}
);
note = uni09DC;
unicode = 09DC;
},
{
color = 3;
glyphname = uni09DD;
lastChange = "2015-10-07 10:17:46 +0000";
layers = (
{
background = {
paths = (
{
closed = 1;
nodes = (
"-40 500 LINE",
"344 500 LINE",
"374 456 LINE",
"104 456 LINE",
"104 146 LINE SMOOTH",
"104 123 OFFCURVE",
"138 78 OFFCURVE",
"155 78 CURVE SMOOTH",
"215 78 OFFCURVE",
"283 159 OFFCURVE",
"283 231 CURVE",
"279 223 OFFCURVE",
"265 218 OFFCURVE",
"249 218 CURVE SMOOTH",
"221 218 OFFCURVE",
"198 243 OFFCURVE",
"198 275 CURVE SMOOTH",
"198 308 OFFCURVE",
"226 336 OFFCURVE",
"259 336 CURVE SMOOTH",
"302 336 OFFCURVE",
"336 289 OFFCURVE",
"336 230 CURVE SMOOTH",
"336 135 OFFCURVE",
"235 15 OFFCURVE",
"155 15 CURVE SMOOTH",
"123 15 OFFCURVE",
"59 103 OFFCURVE",
"59 146 CURVE SMOOTH",
"59 456 LINE",
"-10 456 LINE"
);
},
{
closed = 1;
nodes = (
"115 -55 OFFCURVE",
"133 -36 OFFCURVE",
"156 -36 CURVE SMOOTH",
"179 -36 OFFCURVE",
"198 -55 OFFCURVE",
"198 -78 CURVE SMOOTH",
"198 -101 OFFCURVE",
"179 -119 OFFCURVE",
"156 -119 CURVE SMOOTH",
"133 -119 OFFCURVE",
"115 -101 OFFCURVE",
"115 -78 CURVE SMOOTH"
);
}
);
};
layerId = "4AE238AB-6A4C-459B-8E99-4D2856E6BBFA";
name = Regular;
paths = (
{
closed = 1;
nodes = (
"483 554 LINE SMOOTH",
"492 554 OFFCURVE",
"498 561 OFFCURVE",
"498 572 CURVE SMOOTH",
"498 580 OFFCURVE",
"491 587 OFFCURVE",
"483 587 CURVE SMOOTH",
"168 587 LINE SMOOTH",
"161 587 OFFCURVE",
"153 582 OFFCURVE",
"153 571 CURVE SMOOTH",
"153 562 OFFCURVE",
"159 554 OFFCURVE",
"168 554 CURVE SMOOTH"
);
},
{
closed = 1;
nodes = (
"395 344 OFFCURVE",
"377 302 OFFCURVE",
"346 302 CURVE SMOOTH",
"324 302 OFFCURVE",
"307 317.512 OFFCURVE",
"307 338 CURVE SMOOTH",
"307 360.007 OFFCURVE",
"322 376 OFFCURVE",
"343 376 CURVE SMOOTH",
"406 376 OFFCURVE",
"411 282 OFFCURVE",
"353 178 CURVE SMOOTH",
"309 99 OFFCURVE",
"248 26 OFFCURVE",
"185 26 CURVE SMOOTH",
"155 26 OFFCURVE",
"137 42 OFFCURVE",
"139 115 CURVE SMOOTH",
"143 274 OFFCURVE",
"142 377 OFFCURVE",
"140 516 CURVE SMOOTH",
"139 553 OFFCURVE",
"155 554 OFFCURVE",
"181 554 CURVE",
"177 587 LINE",
"118 587 OFFCURVE",
"96 584 OFFCURVE",
"97 521 CURVE SMOOTH",
"100 380 OFFCURVE",
"104 275 OFFCURVE",
"100 115 CURVE SMOOTH",
"98 28 OFFCURVE",
"134 -7 OFFCURVE",
"195 -7 CURVE SMOOTH",
"287 -7 OFFCURVE",
"371 120 OFFCURVE",
"401 180 CURVE SMOOTH",
"459 295 OFFCURVE",
"447.56 406 OFFCURVE",
"343 406 CURVE SMOOTH",
"301.566 406 OFFCURVE",
"271 376.645 OFFCURVE",
"271 338 CURVE SMOOTH",
"271 300.88 OFFCURVE",
"301.775 272 OFFCURVE",
"341 272 CURVE SMOOTH",
"403 272 OFFCURVE",
"415 339 OFFCURVE",
"398 370 CURVE",
"372 367 LINE"
);
},
{
closed = 1;
nodes = (
"-8 587 OFFCURVE",
"-26 585 OFFCURVE",
"-26 570 CURVE SMOOTH",
"-26 561 OFFCURVE",
"-20 554 OFFCURVE",
"-8 554 CURVE SMOOTH",
"30 554 LINE SMOOTH",
"93 554 OFFCURVE",
"98 494 OFFCURVE",
"99 454 CURVE SMOOTH",
"99 442 OFFCURVE",
"100 433 OFFCURVE",
"107 433 CURVE SMOOTH",
"118 433 OFFCURVE",
"118 451 OFFCURVE",
"118 453 CURVE SMOOTH",
"118 550 OFFCURVE",
"100 587 OFFCURVE",
"12 587 CURVE SMOOTH"
);
},
{
closed = 1;
nodes = (
"213 -141 OFFCURVE",
"240 -126 OFFCURVE",
"240 -96 CURVE SMOOTH",
"240 -63 OFFCURVE",
"219 -40 OFFCURVE",
"185 -40 CURVE SMOOTH",
"162 -40 OFFCURVE",
"138 -60 OFFCURVE",
"138 -85 CURVE SMOOTH",
"138 -114 OFFCURVE",
"157 -141 OFFCURVE",
"193 -141 CURVE SMOOTH"
);
},
{
closed = 1;
nodes = (
"214 -107 OFFCURVE",
"205 -117 OFFCURVE",
"190 -117 CURVE SMOOTH",
"175 -117 OFFCURVE",
"164 -102 OFFCURVE",
"164 -89 CURVE SMOOTH",
"164 -73 OFFCURVE",
"175 -62 OFFCURVE",
"188 -62 CURVE SMOOTH",
"207 -62 OFFCURVE",
"214 -77 OFFCURVE",
"214 -91 CURVE SMOOTH"
);
}
);
width = 488;
}
);
note = uni09DD;
unicode = 09DD;
},
{
color = 3;
glyphname = uni09DF;
lastChange = "2015-10-07 10:18:10 +0000";
layers = (
{
background = {
paths = (
{
closed = 1;
nodes = (
"-40 500 LINE",
"376 500 LINE",
"406 456 LINE",
"326 456 LINE",
"326 -23 LINE",
"300 1 LINE",
"283 97 OFFCURVE",
"188 175 OFFCURVE",
"63 198 CURVE",
"17 260 LINE",
"146 373 LINE",
"134 394 OFFCURVE",
"109 410 OFFCURVE",
"80 414 CURVE SMOOTH",
"48 418 OFFCURVE",
"23 433 OFFCURVE",
"10 456 CURVE",
"-10 456 LINE"
);
},
{
closed = 1;
nodes = (
"221 339 LINE",
"113 251 LINE",
"177 234 OFFCURVE",
"238 182 OFFCURVE",
"281 107 CURVE",
"281 456 LINE",
"105 456 LINE"
);
},
{
closed = 1;
nodes = (
"87 94 OFFCURVE",
"106 113 OFFCURVE",
"129 113 CURVE SMOOTH",
"152 113 OFFCURVE",
"171 94 OFFCURVE",
"171 71 CURVE SMOOTH",
"171 48 OFFCURVE",
"152 30 OFFCURVE",
"129 30 CURVE SMOOTH",
"106 30 OFFCURVE",
"87 48 OFFCURVE",
"87 71 CURVE SMOOTH"
);
}
);
};
layerId = "4AE238AB-6A4C-459B-8E99-4D2856E6BBFA";
name = Regular;
paths = (
{
closed = 1;
nodes = (
"405 -12 OFFCURVE",
"412 -3 OFFCURVE",
"412 18 CURVE SMOOTH",
"412 145 OFFCURVE",
"243 240 OFFCURVE",
"111 279 CURVE",
"107 265 LINE",
"244 347 LINE SMOOTH",
"270 362 OFFCURVE",
"289 377 OFFCURVE",
"249 406 CURVE SMOOTH",
"125 496 LINE SMOOTH",
"87 521 OFFCURVE",
"90 542 OFFCURVE",
"90 563 CURVE",
"50 563 LINE",
"50 522 OFFCURVE",
"72 495 OFFCURVE",
"106 471 CURVE SMOOTH",
"233 380 LINE",
"75 288 LINE SMOOTH",
"55 276 OFFCURVE",
"58 250 OFFCURVE",
"92 243 CURVE SMOOTH",
"191 222 OFFCURVE",
"372 128 OFFCURVE",
"372 44 CURVE SMOOTH",
"372 0 OFFCURVE",
"381 -12 OFFCURVE",
"393 -12 CURVE SMOOTH"
);
},
{
closed = 1;
nodes = (
"414 -12 OFFCURVE",
"408 23 OFFCURVE",
"408 71 CURVE SMOOTH",
"408 409 OFFCURVE",
"412 492 OFFCURVE",
"420 583 CURVE SMOOTH",
"421 597 OFFCURVE",
"419 609 OFFCURVE",
"407 609 CURVE SMOOTH",
"372 609 OFFCURVE",
"372 380 OFFCURVE",
"372 71 CURVE SMOOTH",
"372 23 OFFCURVE",
"372 -12 OFFCURVE",
"393 -12 CURVE SMOOTH"
);
},
{
closed = 1;
nodes = (
"399 459 LINE",
"399 542 OFFCURVE",
"368 587 OFFCURVE",
"284 587 CURVE SMOOTH",
"-7 587 LINE SMOOTH",
"-18 587 OFFCURVE",
"-26 582 OFFCURVE",
"-26 571 CURVE SMOOTH",
"-26 562 OFFCURVE",
"-20 554 OFFCURVE",
"-7 554 CURVE SMOOTH",
"301 554 LINE SMOOTH",
"352 554 OFFCURVE",
"377 519 OFFCURVE",
"377 450 CURVE"
);
},
{
closed = 1;
nodes = (
"519 554 LINE SMOOTH",
"528 554 OFFCURVE",
"537 558 OFFCURVE",
"537 571 CURVE SMOOTH",
"537 582 OFFCURVE",
"528 587 OFFCURVE",
"519 587 CURVE SMOOTH",
"507 587 OFFCURVE",
"482 587 OFFCURVE",
"461 587 CURVE SMOOTH",
"429 587 OFFCURVE",
"424 587 OFFCURVE",
"419 599 CURVE SMOOTH",
"416 606 OFFCURVE",
"406 602 OFFCURVE",
"406 592 CURVE SMOOTH",
"406 576 OFFCURVE",
"424 554 OFFCURVE",
"456 554 CURVE SMOOTH"
);
},
{
closed = 1;
nodes = (
"220 46 OFFCURVE",
"247 61 OFFCURVE",
"247 91 CURVE SMOOTH",
"247 124 OFFCURVE",
"226 147 OFFCURVE",
"192 147 CURVE SMOOTH",
"169 147 OFFCURVE",
"145 127 OFFCURVE",
"145 102 CURVE SMOOTH",
"145 73 OFFCURVE",
"164 46 OFFCURVE",
"200 46 CURVE SMOOTH"
);
},
{
closed = 1;
nodes = (
"221 80 OFFCURVE",
"212 70 OFFCURVE",
"197 70 CURVE SMOOTH",
"182 70 OFFCURVE",
"171 85 OFFCURVE",
"171 98 CURVE SMOOTH",
"171 114 OFFCURVE",
"182 125 OFFCURVE",
"195 125 CURVE SMOOTH",
"214 125 OFFCURVE",
"221 110 OFFCURVE",
"221 96 CURVE SMOOTH"
);
}
);
width = 510;
}
);
note = uni09DF;
unicode = 09DF;
},
{
glyphname = uni09E0;
layers = (
{
layerId = "4AE238AB-6A4C-459B-8E99-4D2856E6BBFA";
name = Regular;
paths = (
{
closed = 1;
nodes = (
"15 442 OFFCURVE",
"42 470 OFFCURVE",
"77 470 CURVE SMOOTH",
"105 470 OFFCURVE",
"128 453 OFFCURVE",
"132 432 CURVE",
"156 439 OFFCURVE",
"180 477 OFFCURVE",
"195 533 CURVE",
"227 470 OFFCURVE",
"276 431 OFFCURVE",
"323 431 CURVE",
"323 553 LINE",
"368 509 LINE",
"368 281 LINE",
"405 260 OFFCURVE",
"429 236 OFFCURVE",
"437 216 CURVE",
"437 582 LINE",
"461 559 LINE",
"461 527 OFFCURVE",
"479 500 OFFCURVE",
"500 500 CURVE SMOOTH",
"524 500 LINE",
"554 456 LINE",
"482 456 LINE",
"482 50 LINE",
"457 50 LINE",
"457 114 OFFCURVE",
"424 177 OFFCURVE",
"368 225 CURVE",
"368 -64 LINE",
"278 -122 LINE",
"407 -231 LINE",
"388 -252 LINE",
"203 -102 LINE",
"342 -18 LINE",
"342 2 LINE SMOOTH",
"342 97 OFFCURVE",
"242 184 OFFCURVE",
"105 208 CURVE",
"64 276 LINE",
"271 409 LINE",
"206 437 LINE",
"166 381 OFFCURVE",
"118 347 OFFCURVE",
"77 347 CURVE SMOOTH",
"42 347 OFFCURVE",
"15 374 OFFCURVE",
"15 409 CURVE SMOOTH"
);
},
{
closed = 1;
nodes = (
"171 260 LINE",
"236 236 OFFCURVE",
"291 185 OFFCURVE",
"323 117 CURVE",
"323 355 LINE"
);
}
);
width = 544;
}
);
note = uni09E0;
unicode = 09E0;
},
{
glyphname = uni09E1;
layers = (
{
layerId = "4AE238AB-6A4C-459B-8E99-4D2856E6BBFA";
name = Regular;
paths = (
{
closed = 1;
nodes = (
"44 178 OFFCURVE",
"101 242 OFFCURVE",
"172 242 CURVE SMOOTH",
"257 242 OFFCURVE",
"326 170 OFFCURVE",
"326 79 CURVE",
"353 88 OFFCURVE",
"371 121 OFFCURVE",
"371 158 CURVE SMOOTH",
"371 213 OFFCURVE",
"302 273 OFFCURVE",
"201 306 CURVE SMOOTH",
"98 339 OFFCURVE",
"28 401 OFFCURVE",
"28 458 CURVE SMOOTH",
"28 489 OFFCURVE",
"56 514 OFFCURVE",
"89 514 CURVE SMOOTH",
"122 514 OFFCURVE",
"150 489 OFFCURVE",
"150 458 CURVE SMOOTH",
"150 437 OFFCURVE",
"142 419 OFFCURVE",
"130 415 CURVE",
"142 382 OFFCURVE",
"182 351 OFFCURVE",
"239 331 CURVE SMOOTH",
"340 296 OFFCURVE",
"408 227 OFFCURVE",
"408 158 CURVE SMOOTH",
"408 70 OFFCURVE",
"348 -2 OFFCURVE",
"273 -2 CURVE",
"273 113 OFFCURVE",
"223 205 OFFCURVE",
"160 205 CURVE SMOOTH",
"125 205 OFFCURVE",
"97 172 OFFCURVE",
"97 131 CURVE SMOOTH",
"97 114 OFFCURVE",
"102 96 OFFCURVE",
"112 79 CURVE",
"124 88 OFFCURVE",
"135 94 OFFCURVE",
"144 94 CURVE SMOOTH",
"173 94 OFFCURVE",
"196 70 OFFCURVE",
"196 39 CURVE SMOOTH",
"196 10 OFFCURVE",
"168 -13 OFFCURVE",
"132 -13 CURVE SMOOTH",
"84 -13 OFFCURVE",
"44 37 OFFCURVE",
"44 98 CURVE SMOOTH"
);
},
{
closed = 1;
nodes = (
"168 -196 OFFCURVE",
"206 -157 OFFCURVE",
"253 -157 CURVE SMOOTH",
"309 -157 OFFCURVE",
"354 -200 OFFCURVE",
"354 -252 CURVE",
"371 -247 OFFCURVE",
"383 -228 OFFCURVE",
"383 -208 CURVE SMOOTH",
"383 -176 OFFCURVE",
"338 -140 OFFCURVE",
"271 -121 CURVE SMOOTH",
"222 -106 OFFCURVE",
"188 -72 OFFCURVE",
"188 -35 CURVE SMOOTH",
"188 -11 OFFCURVE",
"206 9 OFFCURVE",
"227 9 CURVE SMOOTH",
"250 9 OFFCURVE",
"268 -9 OFFCURVE",
"268 -30 CURVE SMOOTH",
"268 -47 OFFCURVE",
"256 -62 OFFCURVE",
"241 -62 CURVE",
"248 -78 OFFCURVE",
"273 -94 OFFCURVE",
"309 -105 CURVE SMOOTH",
"368 -122 OFFCURVE",
"407 -164 OFFCURVE",
"407 -208 CURVE SMOOTH",
"407 -261 OFFCURVE",
"367 -305 OFFCURVE",
"319 -305 CURVE",
"319 -237 OFFCURVE",
"285 -182 OFFCURVE",
"244 -182 CURVE SMOOTH",
"223 -182 OFFCURVE",
"205 -200 OFFCURVE",
"205 -223 CURVE SMOOTH",
"205 -233 OFFCURVE",
"208 -243 OFFCURVE",
"214 -252 CURVE",
"221 -247 OFFCURVE",
"227 -244 OFFCURVE",
"234 -244 CURVE SMOOTH",
"253 -244 OFFCURVE",
"269 -260 OFFCURVE",
"269 -279 CURVE SMOOTH",
"269 -296 OFFCURVE",
"250 -311 OFFCURVE",
"226 -311 CURVE SMOOTH",
"194 -311 OFFCURVE",
"168 -281 OFFCURVE",
"168 -244 CURVE SMOOTH"
);
}
);
width = 436;
}
);
note = uni09E1;
unicode = 09E1;
},
{
glyphname = uni09E2;
layers = (
{
layerId = "4AE238AB-6A4C-459B-8E99-4D2856E6BBFA";
name = Regular;
paths = (
{
closed = 1;
nodes = (
"-262 -181 OFFCURVE",
"-224 -142 OFFCURVE",
"-177 -142 CURVE SMOOTH",
"-121 -142 OFFCURVE",
"-75 -185 OFFCURVE",
"-75 -237 CURVE",
"-58 -232 OFFCURVE",
"-47 -214 OFFCURVE",
"-47 -193 CURVE SMOOTH",
"-47 -161 OFFCURVE",
"-92 -125 OFFCURVE",
"-159 -106 CURVE SMOOTH",
"-226 -87 OFFCURVE",
"-272 -52 OFFCURVE",
"-272 -20 CURVE SMOOTH",
"-272 4 OFFCURVE",
"-255 24 OFFCURVE",
"-232 24 CURVE SMOOTH",
"-209 24 OFFCURVE",
"-191 9 OFFCURVE",
"-191 -10 CURVE SMOOTH",
"-191 -26 OFFCURVE",
"-197 -39 OFFCURVE",
"-208 -42 CURVE",
"-201 -59 OFFCURVE",
"-173 -78 OFFCURVE",
"-132 -90 CURVE SMOOTH",
"-67 -110 OFFCURVE",
"-23 -152 OFFCURVE",
"-23 -193 CURVE SMOOTH",
"-23 -246 OFFCURVE",
"-63 -290 OFFCURVE",
"-111 -290 CURVE",
"-111 -222 OFFCURVE",
"-145 -167 OFFCURVE",
"-186 -167 CURVE SMOOTH",
"-207 -167 OFFCURVE",
"-225 -185 OFFCURVE",
"-225 -208 CURVE SMOOTH",
"-225 -218 OFFCURVE",
"-222 -228 OFFCURVE",
"-216 -237 CURVE",
"-209 -232 OFFCURVE",
"-202 -229 OFFCURVE",
"-195 -229 CURVE SMOOTH",
"-176 -229 OFFCURVE",
"-161 -245 OFFCURVE",
"-161 -264 CURVE SMOOTH",
"-161 -281 OFFCURVE",
"-180 -296 OFFCURVE",
"-203 -296 CURVE SMOOTH",
"-235 -296 OFFCURVE",
"-262 -266 OFFCURVE",
"-262 -229 CURVE SMOOTH"
);
}
);
width = 0;
}
);
note = uni09E2;
unicode = 09E2;
},
{
glyphname = uni09E3;
layers = (
{
layerId = "4AE238AB-6A4C-459B-8E99-4D2856E6BBFA";
name = Regular;
paths = (
{
closed = 1;
nodes = (
"-266 -171 OFFCURVE",
"-228 -132 OFFCURVE",
"-181 -132 CURVE SMOOTH",
"-125 -132 OFFCURVE",
"-80 -175 OFFCURVE",
"-80 -227 CURVE",
"-63 -222 OFFCURVE",
"-51 -204 OFFCURVE",
"-51 -184 CURVE SMOOTH",
"-51 -151 OFFCURVE",
"-96 -115 OFFCURVE",
"-163 -96 CURVE SMOOTH",
"-230 -77 OFFCURVE",
"-276 -40 OFFCURVE",
"-276 -5 CURVE SMOOTH",
"-276 16 OFFCURVE",
"-259 34 OFFCURVE",
"-236 34 CURVE SMOOTH",
"-213 34 OFFCURVE",
"-196 16 OFFCURVE",
"-196 -5 CURVE SMOOTH",
"-196 -18 OFFCURVE",
"-201 -29 OFFCURVE",
"-208 -32 CURVE",
"-200 -51 OFFCURVE",
"-173 -68 OFFCURVE",
"-136 -80 CURVE SMOOTH",
"-71 -100 OFFCURVE",
"-27 -143 OFFCURVE",
"-27 -184 CURVE SMOOTH",
"-27 -237 OFFCURVE",
"-67 -280 OFFCURVE",
"-115 -280 CURVE",
"-115 -212 OFFCURVE",
"-149 -157 OFFCURVE",
"-190 -157 CURVE SMOOTH",
"-211 -157 OFFCURVE",
"-229 -175 OFFCURVE",
"-229 -198 CURVE SMOOTH",
"-229 -209 OFFCURVE",
"-226 -218 OFFCURVE",
"-221 -227 CURVE",
"-214 -222 OFFCURVE",
"-207 -219 OFFCURVE",
"-200 -219 CURVE SMOOTH",
"-181 -219 OFFCURVE",
"-165 -235 OFFCURVE",
"-165 -254 CURVE SMOOTH",
"-165 -271 OFFCURVE",
"-184 -286 OFFCURVE",
"-208 -286 CURVE SMOOTH",
"-240 -286 OFFCURVE",
"-266 -256 OFFCURVE",
"-266 -219 CURVE SMOOTH"
);
},
{
closed = 1;
nodes = (
"-8 -171 OFFCURVE",
"30 -132 OFFCURVE",
"77 -132 CURVE SMOOTH",
"133 -132 OFFCURVE",
"178 -175 OFFCURVE",
"178 -227 CURVE",
"195 -222 OFFCURVE",
"207 -204 OFFCURVE",
"207 -184 CURVE SMOOTH",
"207 -151 OFFCURVE",
"162 -115 OFFCURVE",
"95 -96 CURVE SMOOTH",
"28 -77 OFFCURVE",
"-18 -40 OFFCURVE",
"-18 -5 CURVE SMOOTH",
"-18 16 OFFCURVE",
"-1 34 OFFCURVE",
"22 34 CURVE SMOOTH",
"45 34 OFFCURVE",
"62 16 OFFCURVE",
"62 -5 CURVE SMOOTH",
"62 -18 OFFCURVE",
"57 -29 OFFCURVE",
"50 -32 CURVE",
"58 -51 OFFCURVE",
"85 -68 OFFCURVE",
"122 -80 CURVE SMOOTH",
"187 -100 OFFCURVE",
"231 -143 OFFCURVE",
"231 -184 CURVE SMOOTH",
"231 -237 OFFCURVE",
"191 -280 OFFCURVE",
"143 -280 CURVE",
"143 -212 OFFCURVE",
"109 -157 OFFCURVE",
"68 -157 CURVE SMOOTH",
"45 -157 OFFCURVE",
"28 -175 OFFCURVE",
"28 -198 CURVE SMOOTH",
"28 -208 OFFCURVE",
"31 -218 OFFCURVE",
"37 -227 CURVE",
"44 -222 OFFCURVE",
"51 -219 OFFCURVE",
"58 -219 CURVE SMOOTH",
"77 -219 OFFCURVE",
"93 -235 OFFCURVE",
"93 -254 CURVE SMOOTH",
"93 -271 OFFCURVE",
"74 -286 OFFCURVE",
"50 -286 CURVE SMOOTH",
"18 -286 OFFCURVE",
"-8 -256 OFFCURVE",
"-8 -219 CURVE SMOOTH"
);
}
);
width = 0;
}
);
note = uni09E3;
unicode = 09E3;
},
{
glyphname = uni09E6;
layers = (
{
layerId = "4AE238AB-6A4C-459B-8E99-4D2856E6BBFA";
name = Regular;
paths = (
{
closed = 1;
nodes = (
"79 345 OFFCURVE",
"155 421 OFFCURVE",
"250 421 CURVE SMOOTH",
"343 421 OFFCURVE",
"420 345 OFFCURVE",
"420 250 CURVE SMOOTH",
"420 155 OFFCURVE",
"343 79 OFFCURVE",
"250 79 CURVE SMOOTH",
"155 79 OFFCURVE",
"79 155 OFFCURVE",
"79 250 CURVE SMOOTH"
);
},
{
closed = 1;
nodes = (
"133 153 OFFCURVE",
"163 123 OFFCURVE",
"220 123 CURVE SMOOTH",
"276 123 OFFCURVE",
"367 226 OFFCURVE",
"367 290 CURVE SMOOTH",
"367 347 OFFCURVE",
"338 377 OFFCURVE",
"279 377 CURVE SMOOTH",
"223 377 OFFCURVE",
"133 274 OFFCURVE",
"133 210 CURVE SMOOTH"
);
}
);
width = 499;
}
);
note = uni09E6;
unicode = 09E6;
},
{
glyphname = uni09E7;
layers = (
{
layerId = "4AE238AB-6A4C-459B-8E99-4D2856E6BBFA";
name = Regular;
paths = (
{
closed = 1;
nodes = (
"104 473 OFFCURVE",
"131 500 OFFCURVE",
"166 500 CURVE SMOOTH",
"194 500 OFFCURVE",
"217 478 OFFCURVE",
"217 453 CURVE SMOOTH",
"217 440 OFFCURVE",
"210 427 OFFCURVE",
"198 419 CURVE",
"323 326 OFFCURVE",
"396 237 OFFCURVE",
"396 181 CURVE SMOOTH",
"396 101 OFFCURVE",
"306 0 OFFCURVE",
"235 0 CURVE SMOOTH",
"184 0 OFFCURVE",
"144 25 OFFCURVE",
"144 57 CURVE SMOOTH",
"144 88 OFFCURVE",
"212 138 OFFCURVE",
"255 138 CURVE SMOOTH",
"277 138 OFFCURVE",
"297 133 OFFCURVE",
"314 123 CURVE",
"339 132 OFFCURVE",
"357 151 OFFCURVE",
"357 171 CURVE SMOOTH",
"357 206 OFFCURVE",
"315 250 OFFCURVE",
"230 305 CURVE SMOOTH",
"146 359 OFFCURVE",
"104 403 OFFCURVE",
"104 438 CURVE SMOOTH"
);
}
);
width = 500;
}
);
note = uni09E7;
unicode = 09E7;
},
{
glyphname = uni09E8;
layers = (
{
layerId = "4AE238AB-6A4C-459B-8E99-4D2856E6BBFA";
name = Regular;
paths = (
{
closed = 1;
nodes = (
"108 477 OFFCURVE",
"130 500 OFFCURVE",
"155 500 CURVE SMOOTH",
"186 500 OFFCURVE",
"207 471 OFFCURVE",
"202 439 CURVE",
"297 388 OFFCURVE",
"355 320 OFFCURVE",
"355 260 CURVE SMOOTH",
"355 193 OFFCURVE",
"301 140 OFFCURVE",
"234 140 CURVE",
"335 81 OFFCURVE",
"411 8 OFFCURVE",
"462 -79 CURVE",
"437 -79 LINE",
"370 16 OFFCURVE",
"246 100 OFFCURVE",
"79 160 CURVE",
"37 285 LINE",
"97 232 OFFCURVE",
"168 202 OFFCURVE",
"239 202 CURVE SMOOTH",
"282 202 OFFCURVE",
"317 235 OFFCURVE",
"317 275 CURVE SMOOTH",
"317 298 OFFCURVE",
"282 327 OFFCURVE",
"212 361 CURVE SMOOTH",
"143 396 OFFCURVE",
"108 425 OFFCURVE",
"108 448 CURVE SMOOTH"
);
}
);
width = 499;
}
);
note = uni09E8;
unicode = 09E8;
},
{
glyphname = uni09E9;
layers = (
{
layerId = "4AE238AB-6A4C-459B-8E99-4D2856E6BBFA";
name = Regular;
paths = (
{
closed = 1;
nodes = (
"177 353 OFFCURVE",
"224 400 OFFCURVE",
"283 400 CURVE SMOOTH",
"383 400 OFFCURVE",
"464 306 OFFCURVE",
"464 190 CURVE SMOOTH",
"464 85 OFFCURVE",
"392 0 OFFCURVE",
"304 0 CURVE SMOOTH",
"156 0 OFFCURVE",
"36 226 OFFCURVE",
"36 505 CURVE",
"65 477 LINE",
"65 254 OFFCURVE",
"171 73 OFFCURVE",
"303 73 CURVE SMOOTH",
"374 73 OFFCURVE",
"430 129 OFFCURVE",
"430 200 CURVE SMOOTH",
"430 276 OFFCURVE",
"386 337 OFFCURVE",
"333 337 CURVE SMOOTH",
"328 337 OFFCURVE",
"322 336 OFFCURVE",
"317 334 CURVE",
"332 323 OFFCURVE",
"340 303 OFFCURVE",
"340 276 CURVE SMOOTH",
"340 233 OFFCURVE",
"303 198 OFFCURVE",
"258 198 CURVE SMOOTH",
"213 198 OFFCURVE",
"177 241 OFFCURVE",
"177 294 CURVE SMOOTH"
);
}
);
width = 500;
}
);
note = uni09E9;
unicode = 09E9;
},
